<svg viewBox="0 0 960 540" fill="none" stroke-linecap="square" stroke-miterlimit="10" xmlns="http://www.w3.org/2000/svg"><clipPath id="a"><path d="M0 0h960v540H0V0z"/></clipPath><g clip-path="url(#a)"><path d="M0 0h960v540H0z"/><path d="M185.811 58.244h588.378V282.34H185.81z"/><path fill="#000" d="M398.563 103.343q0 5.172-2.454 9.656-4.984 8.922-12.609 15.5-7.625 6.578-9.172 7.344.985.172 6.36 6.547 5.375 6.36 5.375 15.578 0 7.328-2.97 13.875-2.968 6.547-8.015 11.515-5.031 4.97-11.64 7.86-6.594 2.906-13.907 2.906-7.218 0-13.703-2.328-6.484-2.313-12.344-6.078-1.03-.656-2.078-1.375-1.047-.719-1.984-1.422-1.797-1.078-1.797-3.328 0-.875 2.906-.75-3.64 7.656-10.875 11.344-7.234 3.687-15.375 3.687-2.14 0-3.203-1.531-1.078-1.531-1.078-3 0-3.719 3.469-4.344 2.5-.625 4.687-1.031 2.203-.422 4.407-1.422 5.421-2.422 9.64-6.75 4.219-4.344 7.578-9.75 3.375-5.422 5.89-11.484 2.517-6.079 4.626-11.657 1.844-4.937 3.453-9.968 1.625-5.047 3.328-10.141 1.703-5.11 3.672-10.14 1.984-5.048.094-1.438 4.547-2.766.922-1.14-3.61 1.609-6.828 3.64-5.094 3.156-9.891 7.187-4.781 4.032-6.797 9.282-.422 1.062-.656 2.093-.219 1.016-.5 2.266-1.016 3.078-4.188 3.078-1.172 0-2.984-.969-1.797-.968-1.797-3.062 0-5.719 2.328-10.656 2.344-4.954 6.063-9.079 3.734-4.14 8.468-7.5 4.75-3.375 9.735-6.187 4.984-2.828 9.922-5.031 4.937-2.219 8.89-3.953.047-.016.485-.313.453-.312 1.515-.312 1.64 0 3.266 1.234 1.64 1.219 1.64 3.422 0 .625-.734 2.515-.719 1.891-1.61 3.844-.874 1.953-1.577 3.61-.703 1.64 1.343-6.594-3.625 3.312.063.656 3.703-2.656 7.812-4.875 4.11-2.234 8.485-3.703 4.375-1.484 8.687-1.484 6.422 0 11.032 3.625 4.625 3.609 4.625 10.53zm-11.563 0q0-1.625-1.187-2.235-1.172-.609-3.407-.609-3.656 0-7.765 1.516-4.094 1.5-8.172 3.89-4.078 2.391-7.86 5.266-3.78 2.86-6.203 4.969-2.625 7.218-5.375 15.11-2.75 7.874-5.765 15.796-3.047 7.86-6.766 15.469-3.703 7.61-8.937 14.375-.844 1.265-4.032.703-.375-2.781.75-2.781.875 0 2 .562 5.797 3.328 11.532 5.703 5.75 2.36 12.093 2.36 4.985 0 9.703-1.938 4.72-1.937 8.36-5.344 3.64-3.422 5.828-7.859 2.203-4.453 2.203-9.453 0-4.375-1.578-6.953-1.563-2.594-4.266-4.172-2.687-1.594-6.422-2.281-3.734-.688-7.109-.797.219-.11-.39.125-.61.218-1.313.437-.688.203-1.375.375-.688.172-1.14.172-2.36 0-3.516-1.578-1.141-1.594-1.141-3.328 0-2.922 1.828-3.656.547-1.454 1.797-1.579 1.266-.125 1.547-.234.984-.39 2.625-1.484 1.656-1.094 2.969-1.75 3.515-2.063 7.156-4.344 3.656-2.297 7.203-4.75 2.14-1.547 4.969-3.953 2.828-2.406 5.36-5.235 2.546-2.843 4.171-5.593 1.625-2.766 1.625-4.922zm54.563 32q0 3.75-1.72 7.234-1.702 3.469-4.202 6.453-2.485 2.97-5.375 5.328-2.891 2.36-5.36 4.047-3.734 2.578-8.031 4.907-4.297 2.312-9.594 2.312-1.281 0-3.656-.5t-2.375-4.031q0-3.86 3.563-4.688.656-.218 1.203-.218.562 0 .828-.063 1.11-.203 2.234-.734 1.125-.532 2.344-1.203 1.953-1.266 5.094-3.688 3.156-2.422 6.125-5.281 2.984-2.86 4.859-5.531 1.875-2.688 1.875-4.594 0 .906.781.906-.312 0-.86.188-.546.171-1.296.421-5.547 1.86-10.203 5.641-4.656 3.781-8.078 8.844-3.406 5.062-5.344 10.812-1.937 5.75-1.937 11.438 0 1.844.28 4.14.282 2.297 1.048 4.125.765 1.829 1.797 2.829 1.03 1 2.593 1 .532 0 1.078-.188.563-.203 1.25-.594 3-1.672 5.672-4.625 2.672-2.968 4.89-6.172.595-.718 1.126-1.546.531-.829 1.14-1.672 1.094-1.828 3.47-1.828 1.609 0 3.187 1.156 1.594 1.14 1.594 3.375 0 .875-.547 1.984-1.594 2.906-3.938 6.375-2.344 3.453-5.297 6.531-2.953 3.063-6.61 5.282-3.64 2.234-7.89 2.234-4.86 0-8.015-2.687-3.141-2.688-4.844-6.297-1.703-3.625-2.375-7.594-.672-3.984-.672-7.203 0-10.078 4.219-19.25 4.234-9.188 11.312-16.14 2.11-2.095 4.875-4.266 2.766-2.172 5.89-3.97 3.126-1.812 6.517-2.984 3.39-1.171 6.718-1.171 4.813 0 7.735 3.265 2.922 3.25 2.922 7.89zm85.624 44.25q0 2.172-2.78 4.312-2.766 2.141-5.735 3.891-2.969 1.734-5.766 3.219-2.781 1.5-3.953 1.937-2.828 1.047-5.422 1.047-5.515 0-7.656-3.594-2.125-3.578-2.125-7.937 0-4.219 1.422-9.688 1.437-5.468 3.39-11.093 1.97-5.641 4.032-10.954 2.078-5.312 3.422-9.125.859-2.578 1.859-5.75 1-3.171 1-2.125 1.828-.53-.297.454t-3.453 1.859q-5.547 3.703-10.75 7.734-5.187 4.016-9.734 7.797-1.813 7.125-4.344 14.985-2.531 7.843-5.844 15.5-1 2.109-1.969 4.453-.968 2.343-2.312 4.343-1.219 2.141-3.64 2.141-1.532 0-3.22-1.312-1.687-1.297-1.687-3.22 0-.405.422-2.359.437-1.968.562-2.093 1.61-7.125 4.063-14.625 2.469-7.5 4.953-14.969 1.969-6.656 3.703-13.375.75-2.813 1.328-5.578.594-2.781.594-5.375 0-.281-.062-.656-.063-.375-.063 2.296.875-.171-2.375 2.61-3.234 2.765-6.656 6.61-3.406 3.843-6.531 7.796-3.125 3.938-5.36 6.422-1.078 1.078-.656 1.078.406-.797.062 0-.328.797-.75 1.5-2.812 5.516-5.359 10.969-2.531 5.437-4.906 11.172-1.328 3.031-2.39 6.203-1.048 3.156-2.313 6.328-1.016 2.703-3.86 2.703-1.531 0-3.218-1.312-1.688-1.297-1.688-3.094 0-.485.234-1.297.22-.828.391-1.688.188-.859.344-1.468.156-.625.156-.875 2.25-8.735 5.36-16.844 3.109-8.125 6.906-15.984 1.734-3.579 3.359-7.282 1.64-3.703 3.531-7.39.75-1.485 1.766-3.532 1.031-2.062 2.266-4.078 1.25-2.015 2.578-3.953 1.343-1.937 2.64-3.234 1.282-1.281 3-1.281 1.422 0 3.157 1.375 1.75 1.359 1.75 3.28 0 .829-.516 2.282-.5 1.453-1.016 3-.515 1.531-1.062 2.813-.531 1.265-3.188.906-.625-3.36 1.438-5.672 2.062-2.328 4.531-4.547 2.484-2.219 5.406-3.828 2.938-1.61 6-1.61 2.64 0 4.469 1.172 1.844 1.157 2.656 2.891.828 1.719 1.047 3.516.235 1.781.235 3.453 0 2.703-.407 5.36-.39 2.655 1.282-4.016-4.36 4.359-.907 1.218 3.469-3.14 7.5-5.937 4.047-2.813 8.36-4.797 4.312-1.984 8.265-1.984 3.063 0 5.547 2.39 2.485 2.39 2.485 5.516 0 2.515-.282 4.984-.265 2.469-1.093 4.938-1.516 5.187-3.547 10.312-2.016 5.125-4.016 10.11-1.984 4.984-3.766 9.89-1.78 4.906-2.984 9.953-.234 1.203-.469 2.328-.218 1.125-.218 2.11 0 1.031-.063.812-.062-.218-.469-.218 1.547 0 4.219-1.22 2.688-1.234 5.547-2.874 2.86-1.656 5.344-3.219 2.5-1.562 3.765-1.562 1.938 0 3.235 1.453 1.297 1.437 1.297 3.203zm61-4.5q0 1.594-1.218 2.812-2.407 2.782-4.703 5.578-2.297 2.797-5.047 5.344-2.735 2.547-6.11 4.469-3.359 1.922-8.484 3.078-8.125-3.703-8.125-11.656 0-1.61.234-2.985.25-1.39.641 3.438 2.266-2.438-.39-.031-2.657 2.39-5.75 4.64-3.094 2.235-6.47 3.844-3.374 1.625-6.609 1.625-4.281 0-7.14-1.828-2.844-1.828-4.438-4.625-1.594-2.797-2.156-6.078-.547-3.281-.547-6.375 0-3.172.39-6.188.641-6.172 2.188-11.906 1.547-5.734 3.735-11.406 1.656-3.938 3.421-7.766 1.766-3.844 3.532-7.64.593-1.188 1.265-2.86.672-1.672 1.61-2.922 1.406-1.968 3.64-1.968 1.594 0 3.188 1.328 1.593 1.328 1.593 3.203 0 1.14-.343 2.875-.344 1.719-.797 3.453-.453 1.734-.922 3.406-.469 1.656-.844 2.547-1.375 4.484-3.203 8.953-1.812 4.453-3.344 8.922-1.53 4.453-2.547 8.86-1 4.406-1 8.859 0 1.281.11 2.906.11 1.625.484 2.89.375 1.25.844 1.782.469.516 1.156.516 1.844 0 4.657-1.485 2.812-1.484 5.875-3.703 3.062-2.234 5.875-4.672 2.812-2.453 3.921-3.484.97-4.64 2.938-11.438 1.969-6.797 4.64-13.656 2.672-6.875 5.907-13.14 3.234-6.266 7.125-10.704 1.468-1.468 3.187-1.468 1.719 0 3.313 1.328 1.593 1.328 1.593 4.547-.125.125-.125-.375-2.562 7.125-5.875 14.828-3.312 7.703-6.28 15.547-2.97 7.843-5.032 15.484-2.063 7.64-2.063 14.422 0 .328-.03.047-.032-.282-1.595-1.063 1.391-.25 4.25-2.375 2.875-2.14 5.61-4.765 2.75-2.625 5.25-5.125 2.515-2.5 4.234-2.5 1.782 0 3.282 1.375 1.5 1.359 1.5 3.28zm52.5-47.625q0 3.875-3.437 4.453-.969.375-1.672.312-.687-.078-1.047-.015-1.531.14-2.922.39-1.375.235-2.843.47-6.391 1.296-12.453 4.187-6.063 2.89-10.47 7.515-1.093 1.188-1.687 2.438-.593 1.234-.593 2.75 0-.266.687.078.688.344 2.781 1.062 2.11.72 4.86 1.672 2.765.938 5.328 2.86 2.578 1.906 4.39 5.015 1.828 3.094 1.828 7.813 0 5.156-1.953 9.875-1.937 4.719-5.406 8.39-3.469 3.672-8.094 5.844-4.609 2.172-9.828 2.172-5.078 0-8.937-2.187-3.86-2.172-6.422-5.579-2.563-3.421-3.813-7.64-1.234-4.235-1.234-8.625 0-.813.063-2.11.078-1.296.312-2.734.234-1.437 1.234-3.187 1-1.75 3.547-1.75 1.485 0 3.063 1.156 1.593 1.14 1.593 3.25 0 2.61.625 5.812.641 3.188 1.922 5.782 1.297 2.593 3.203 4.171 1.922 1.579 4.594 1.579 2.64 0 5.157-1.204 2.515-1.218 4.484-3.234 1.984-2.031 3.094-4.61 1.109-2.593 1.109-5.296v-1.25q0-.985-.86-1.797-.859-.828-2.718-1.656-1.86-.828-4.422-1.719-2.563-.89-5.016-2.25-2.437-1.375-4.343-3.688-1.891-2.312-1.891-6.14 0-3.594 1.547-6.813 1.547-3.234 4-5.703 7.828-7.562 17.875-10.906 10.047-3.36 20.61-3.36 2.171 0 3.155 1.485 1 1.484 1 2.922zm37.875 7.875q0 3.75-1.718 7.234-1.703 3.469-4.203 6.453-2.485 2.97-5.375 5.328-2.891 2.36-5.36 4.047-3.734 2.578-8.031 4.907-4.297 2.312-9.594 2.312-1.281 0-3.656-.5t-2.375-4.031q0-3.86 3.563-4.688.656-.218 1.203-.218.562 0 .828-.063 1.11-.203 2.234-.734 1.125-.532 2.344-1.203 1.953-1.266 5.094-3.688 3.156-2.422 6.125-5.281 2.984-2.86 4.859-5.531 1.875-2.688 1.875-4.594 0 .906.781.906-.312 0-.86.188-.546.171-1.296.421-5.547 1.86-10.203 5.641-4.656 3.781-8.078 8.844-3.407 5.062-5.344 10.812-1.938 5.75-1.938 11.438 0 1.844.282 4.14.281 2.297 1.047 4.125.765 1.829 1.797 2.829 1.03 1 2.593 1 .532 0 1.078-.188.563-.203 1.25-.594 3-1.672 5.672-4.625 2.672-2.968 4.89-6.172.595-.718 1.126-1.546.531-.829 1.14-1.672 1.094-1.828 3.47-1.828 1.609 0 3.187 1.156 1.593 1.14 1.593 3.375 0 .875-.546 1.984-1.594 2.906-3.938 6.375-2.344 3.453-5.297 6.531-2.953 3.063-6.61 5.282-3.64 2.234-7.89 2.234-4.86 0-8.015-2.687-3.141-2.688-4.844-6.297-1.703-3.625-2.375-7.594-.672-3.984-.672-7.203 0-10.078 4.219-19.25 4.234-9.188 11.312-16.14 2.11-2.095 4.875-4.266 2.766-2.172 5.89-3.97 3.126-1.812 6.516-2.984 3.391-1.171 6.72-1.171 4.812 0 7.734 3.265 2.922 3.25 2.922 7.89z"/><path d="M359.78 199.21h321.826v24.693H359.78z"/><path fill="#000" d="M440.44 219.599v5.218h2.875q1.735 0 2.61-.64.875-.656.875-2.016 0-1.422-.953-1.984-.938-.578-2.922-.578h-2.485zm0-1.297h2.938q1.438 0 2.172-.5.734-.5.734-1.781 0-1.282-.875-1.766t-2.719-.484h-2.25v4.53zm-1.609-5.89h3.938q2.64 0 3.921.812 1.282.797 1.282 2.562 0 .266-.047.516-.031.25-.172.656-.125.39-.36.719-.218.328-.671.672-.453.328-1.063.515 1.39.266 2.094 1.172.719.906.719 2.188 0 1.86-1.219 2.89-1.219 1.016-3.625 1.016h-4.797v-13.719zm11.715 13.718v-13.719h7.875l-.063 1.422h-6.203v4.484h5.89v1.407h-5.89v4.984h6.407l-.079 1.422h-7.937zm17.084-5.703q-1.969-5.688-2.172-6.39l-2.25 6.39h4.422zm2.125 5.703l-1.61-4.344h-5.468l-1.672 4.344h-1.625l5.266-13.75h1.64l5.11 13.75h-1.641zm7.36 0h-1.624v-12.297h-4.22v-1.422h10.063v1.422h-4.218v12.297zm21.996-9.063l-5.203 3.72 2.078 6.015-5.265-3.719-5.266 3.719 2.078-6.016-5.203-3.719h6.469l1.922-6.078 1.937 6.078h6.453zm-6.906.594l-1.484-4.89-1.485 4.89h-4.969l4 2.906-1.546 4.516 4-2.672 4.015 2.75-1.562-4.594 4.078-2.906h-5.047zm15.641 7.625l-4.204-9.797-.359-.937.063 3.36v8.218h-1.5v-13.719h2.078l4.781 10.922 4.734-10.922h2.016v13.719h-1.563v-8.25l.063-3.297-.344.938-4.203 9.765h-1.562zm20.77-12.875v8.906q0 2.36-1.297 3.688-1.28 1.328-3.937 1.328-2.64 0-3.906-1.328-1.25-1.328-1.25-3.703v-8.89h1.61v8.905q0 1.875.874 2.766.89.875 2.734.875 1.797 0 2.688-.89.89-.891.89-2.75v-8.907h1.594zm2.615 11.453q2.141 1.063 4.594 1.063 3.016 0 3.016-2.75 0-.89-.485-1.438-.484-.562-1.734-.875l-2.734-.687q-3.125-.781-3.125-3.328 0-1.969 1.343-2.907 1.344-.953 3.72-.953 1.25 0 2.327.266 1.094.266 1.828.719l-.468 1.312q-.625-.344-1.657-.61-1.015-.28-2.062-.28-3.36 0-3.36 2.328 0 .797.516 1.281.516.469 1.547.719l2.61.625q1.656.406 2.515 1.281.875.875.875 2.484 0 2.11-1.297 3.172-1.281 1.063-3.484 1.063-1.657 0-2.938-.344-1.281-.344-2.031-.797l.484-1.344zm13.115 2.266h-1.61v-13.719h1.61v13.719zm9.263-12.547q-1.547 0-2.672.75-1.125.75-1.672 2.031-.547 1.266-.547 2.922 0 1.235.297 2.25.297 1.016.891 1.781.594.766 1.547 1.188.953.422 2.187.422 1.594 0 3.282-.828l.265 1.36q-1.375.874-3.734.874-1.547 0-2.781-.516-1.22-.515-2.032-1.453-.797-.937-1.218-2.234-.407-1.313-.407-2.906 0-1.547.453-2.844.454-1.297 1.282-2.234.828-.938 2.062-1.454 1.25-.515 2.766-.515 2.312 0 3.906 1.015l-.64 1.313q-1.516-.922-3.235-.922zm22.001 3.484l-5.203 3.72 2.078 6.015-5.265-3.719-5.266 3.719 2.078-6.016-5.203-3.719h6.469l1.922-6.078 1.937 6.078h6.453zm-6.906.594l-1.484-4.89-1.485 4.89h-4.968l4 2.906-1.547 4.516 4-2.672 4.015 2.75-1.562-4.594 4.078-2.906h-5.047zm9.376 6.203q2.14 1.063 4.593 1.063 3.015 0 3.015-2.75 0-.89-.484-1.438-.484-.562-1.734-.875l-2.735-.687q-3.125-.781-3.125-3.328 0-1.969 1.344-2.907 1.344-.953 3.719-.953 1.25 0 2.328.266 1.094.266 1.828.719l-.469 1.312q-.625-.344-1.656-.61-1.016-.28-2.062-.28-3.36 0-3.36 2.328 0 .797.516 1.281.515.469 1.547.719l2.61.625q1.655.406 2.515 1.281.875.875.875 2.484 0 2.11-1.297 3.172-1.281 1.063-3.485 1.063-1.656 0-2.937-.344t-2.031-.797l.484-1.344zm11.426 2.266v-13.719h7.875l-.062 1.422h-6.203v4.484h5.89v1.407h-5.89v4.984h6.406l-.078 1.422h-7.938zm20.553 4.36q-.437-.438-1.468-1.813-1.032-1.375-1.547-2.422-.563.078-1.188.078-2.078 0-3.562-.875-1.47-.89-2.203-2.469-.735-1.593-.735-3.718 0-3.297 1.703-5.204 1.719-1.906 4.813-1.906 3.047 0 4.765 1.922 1.72 1.922 1.72 5.188 0 2.39-.985 4.109-.969 1.719-2.781 2.469.14.25.406.672.265.421.937 1.375.688.953 1.219 1.484l-1.094 1.11zm-7.797-7.063q1.22 1.5 3.594 1.5 2.375 0 3.578-1.5 1.203-1.5 1.203-4.156 0-2.704-1.218-4.188-1.203-1.5-3.547-1.5-2.344 0-3.578 1.5-1.235 1.484-1.235 4.188 0 2.64 1.203 4.156zm22.703-11.016v8.906q0 2.36-1.297 3.688-1.281 1.328-3.937 1.328-2.641 0-3.907-1.328-1.25-1.328-1.25-3.703v-8.89h1.61v8.905q0 1.875.875 2.766.89.875 2.734.875 1.797 0 2.688-.89.89-.891.89-2.75v-8.907h1.594zm2.865 13.719v-13.719h7.875l-.062 1.422h-6.203v4.484h5.89v1.407h-5.89v4.984h6.406l-.078 1.422h-7.938zm21.256 0h-1.828l-7.125-10.797-.453-.64q.078 1.953.078 3.484v7.953h-1.516v-13.719h1.797l7.14 10.797.47.64q-.063-2.952-.063-3.421v-8.016h1.5v13.719zm8.998-12.547q-1.547 0-2.672.75-1.125.75-1.672 2.031-.547 1.266-.547 2.922 0 1.235.297 2.25.297 1.016.89 1.781.594.766 1.547 1.188.953.422 2.188.422 1.594 0 3.281-.828l.266 1.36q-1.375.874-3.735.874-1.547 0-2.78-.516-1.22-.515-2.032-1.453-.797-.937-1.219-2.234-.406-1.313-.406-2.906 0-1.547.453-2.844t1.281-2.234q.828-.938 2.063-1.454 1.25-.515 2.765-.515 2.313 0 3.907 1.015l-.641 1.313q-1.516-.922-3.234-.922zm5.72 12.547v-13.719h7.875l-.063 1.422h-6.203v4.484h5.89v1.407h-5.89v4.984h6.406l-.078 1.422h-7.937z"/><path d="M-23.013 490.64h998.488"/><path stroke="#000" stroke-width="2" stroke-linejoin="round" stroke-linecap="butt" d="M-23.013 490.64h998.488"/><path d="M268.732 315.906h422.52v92.787h-422.52z"/><path fill="#000" d="M365.495 362.204q1.672 1.438 3.703 2.36 2.047.906 4.015.906 2.204 0 3.282-.813 1.093-.828 1.093-2.218 0-.72-.312-1.235-.313-.531-.922-.937-.594-.422-1.437-.781-.844-.36-1.844-.782l-4.078-1.734q-1.203-.485-2.328-1.25-1.125-.766-2.016-1.797-.89-1.031-1.422-2.39-.531-1.376-.531-3.11 0-1.922.812-3.625.828-1.703 2.313-2.969 1.484-1.281 3.515-2 2.047-.719 4.5-.719 2.735 0 5.391 1.063 2.672 1.047 4.688 3.063l-3.594 4.468q-1.531-1.203-3.078-1.844-1.532-.656-3.407-.656-1.828 0-2.906.75t-1.078 2.094q0 .719.36 1.219.359.5 1 .906.656.406 1.515.766.875.359 1.875.796l4.031 1.641q2.89 1.14 4.547 3.156 1.656 2.016 1.656 5.329 0 1.968-.796 3.734-.797 1.75-2.313 3.062-1.5 1.313-3.719 2.11-2.203.797-4.984.797-3.078 0-6.125-1.125-3.047-1.141-5.438-3.391l4.032-4.844zm25.047-9.5h-3.266v-5.234l3.657-.297.812-6.328h5.86v6.328h5.703v5.531h-5.703v9.547q0 2.016.828 2.906.843.891 2.234.891.578 0 1.172-.14.61-.157 1.094-.344l1.093 5.14q-.953.281-2.25.563-1.296.297-3.03.297-2.204 0-3.766-.672-1.563-.672-2.547-1.875-.985-1.203-1.438-2.906-.453-1.704-.453-3.766v-9.64zm16.556 11.656q0-3.75 3.172-5.859 3.172-2.11 10.219-2.828-.094-1.578-.954-2.516-.859-.937-2.78-.937-1.532 0-3.079.578-1.531.578-3.266 1.578l-2.484-4.656q2.297-1.39 4.813-2.25 2.53-.875 5.359-.875 4.61 0 7.031 2.625 2.422 2.61 2.422 8.14v13.625h-5.766l-.515-2.453h-.156q-1.532 1.344-3.235 2.188-1.703.844-3.719.844-1.625 0-2.921-.563-1.297-.547-2.22-1.531-.905-.985-1.421-2.281-.5-1.297-.5-2.829zm6.719-.53q0 1.156.75 1.718.75.547 2 .547 1.234 0 2.093-.531.875-.532 1.829-1.485v-4.187q-3.782.531-5.235 1.547-1.437 1-1.437 2.39zm19.788-16.657h5.75l.484 4.188h.188q1.297-2.454 3.125-3.61 1.828-1.156 3.64-1.156 1.016 0 1.657.125.656.125 1.187.36l-1.156 6.093q-.672-.188-1.25-.281-.578-.094-1.344-.094-1.343 0-2.812.969-1.453.953-2.422 3.39v13.829h-7.047v-23.813zm20.057 5.531h-3.265v-5.234l3.656-.297.812-6.328h5.86v6.328h5.703v5.531h-5.703v9.547q0 2.016.828 2.906.844.891 2.234.891.578 0 1.172-.14.61-.157 1.094-.344l1.094 5.14q-.954.281-2.25.563-1.297.297-3.032.297-2.203 0-3.765-.672-1.563-.672-2.547-1.875-.985-1.203-1.438-2.906-.453-1.704-.453-3.766v-9.64zm26.493 2.828q0-3.89 1.219-6.937 1.234-3.047 3.312-5.156 2.094-2.11 4.907-3.22 2.812-1.108 5.968-1.108 3.313 0 5.735 1.25 2.437 1.25 3.969 2.828l-3.891 4.375q-1.156-1.11-2.422-1.735-1.266-.625-3.281-.625-1.828 0-3.344.703-1.516.688-2.625 1.985-1.094 1.297-1.703 3.172-.594 1.875-.594 4.218 0 4.86 2.188 7.532 2.187 2.656 6.593 2.656.97 0 1.875-.235.922-.25 1.485-.734v-5.375h-5.172v-5.75h11.422v14.39q-1.688 1.594-4.422 2.704-2.734 1.094-6.047 1.094-3.172 0-5.937-1.032-2.75-1.03-4.813-3.046-2.062-2.016-3.25-5.016-1.172-3-1.172-6.938zm30.671 8.829q0-3.75 3.172-5.86 3.172-2.11 10.219-2.828-.094-1.578-.953-2.516-.86-.937-2.782-.937-1.53 0-3.078.578-1.531.578-3.265 1.578l-2.485-4.656q2.297-1.39 4.813-2.25 2.531-.875 5.36-.875 4.609 0 7.03 2.625 2.422 2.61 2.422 8.14v13.625h-5.765l-.516-2.453h-.156q-1.531 1.344-3.235 2.188-1.703.844-3.718.844-1.625 0-2.922-.563-1.297-.547-2.219-1.531-.906-.985-1.422-2.281-.5-1.297-.5-2.829zm6.719-.532q0 1.156.75 1.719.75.547 2 .547 1.234 0 2.094-.531.875-.532 1.828-1.485v-4.187q-3.781.531-5.235 1.547-1.437 1-1.437 2.39zm19.788-16.656h5.75l.485 3.078h.187q1.5-1.484 3.172-2.562 1.688-1.094 4.031-1.094 2.547 0 4.11 1.047 1.562 1.031 2.468 2.937 1.579-1.625 3.329-2.797 1.765-1.187 4.156-1.187 3.844 0 5.64 2.578 1.797 2.563 1.797 7.031v14.781h-7.047V357.11q0-2.593-.703-3.546-.687-.97-2.234-.97-1.766 0-4.078 2.313v16.079h-7.047V357.11q0-2.594-.703-3.547-.688-.97-2.235-.97-1.812 0-4.03 2.313v16.079h-7.048v-23.813zm39.746 11.906q0-2.875.953-5.203.953-2.328 2.515-3.937 1.563-1.61 3.579-2.47 2.015-.874 4.171-.874 2.547 0 4.438.875 1.906.86 3.172 2.406 1.281 1.531 1.906 3.625.625 2.078.625 4.531 0 .954-.11 1.75-.093.782-.187 1.22h-14.25q.485 2.733 2.14 3.968 1.657 1.219 4.048 1.219 2.547 0 5.14-1.594l2.344 4.281q-1.812 1.25-4.047 1.969-2.234.719-4.39.719-2.547 0-4.766-.844-2.203-.844-3.844-2.438-1.625-1.609-2.531-3.906-.906-2.312-.906-5.297zm15.36-2.453q0-2.062-.923-3.36-.906-1.296-3.062-1.296-1.688 0-2.97 1.14-1.265 1.125-1.64 3.516h8.594z"/><path d="M6.91 492.512H277.4v39.496H6.911z"/><path fill="#000" d="M22.926 514.354l-.593-1.89q-.344-1.048-.657-2.08-.296-1.046-.593-2.124h-.078q-.282 1.078-.594 2.125-.297 1.031-.64 2.078l-.595 1.89h3.75zm.391 1.28h-4.531l-1.203 3.798h-1.61l4.219-12.469h1.781l4.219 12.469h-1.687l-1.188-3.797zm4.305-9.733h1.547v3.687l-.031 1.672q.625-.547 1.36-.922.75-.375 1.53-.375.891 0 1.579.344.687.328 1.14.953.469.61.703 1.484.25.86.25 1.922 0 1.172-.328 2.11-.328.921-.875 1.578-.547.64-1.281.984-.719.328-1.516.328-.64 0-1.343-.297-.688-.297-1.297-.843h-.063l-.125.906h-1.25V505.9zm1.547 11.484q.61.531 1.203.75.61.219 1.063.219.578 0 1.062-.25.485-.266.828-.735.36-.468.547-1.14.203-.688.203-1.547 0-.766-.14-1.39-.125-.626-.422-1.063-.297-.453-.766-.703-.453-.25-1.093-.25-1.125 0-2.485 1.265v4.844zm8.12-2.547q0-1.156.344-2.062.36-.907.937-1.532.594-.625 1.36-.953.78-.328 1.64-.328.844 0 1.61.328.78.328 1.359.953.594.625.937 1.532.36.906.36 2.062 0 1.14-.36 2.047-.343.89-.937 1.516-.578.609-1.36.937-.765.328-1.609.328-.86 0-1.64-.328-.766-.328-1.36-.937-.578-.625-.937-1.516-.344-.906-.344-2.047zm1.61 0q0 .797.187 1.438.203.64.547 1.109.36.469.843.734.5.25 1.094.25.578 0 1.063-.25.5-.265.843-.734.36-.469.547-1.11.203-.64.203-1.437t-.203-1.453q-.187-.656-.547-1.125-.343-.484-.843-.734-.485-.266-1.063-.266-.594 0-1.094.266-.484.25-.843.734-.344.469-.547 1.125-.188.656-.188 1.453zm9.049-4.64h1.578v5.64q0 1.313.406 1.89.406.579 1.328.579.719 0 1.266-.36.562-.375 1.218-1.187v-6.563h1.563v9.235H54.01l-.125-1.438h-.062q-.641.75-1.36 1.22-.719.452-1.687.452-1.47 0-2.157-.906-.671-.922-.671-2.703v-5.86zm10.555 1.265h-1.375v-1.172l1.453-.094.187-2.578h1.313v2.578h2.484v1.266h-2.484v5.14q0 .86.312 1.329.313.453 1.11.453.25 0 .531-.078t.516-.172l.297 1.187q-.375.125-.829.235-.437.11-.875.11-.75 0-1.25-.235t-.812-.625q-.313-.406-.453-.969-.125-.578-.125-1.25v-5.125z"/><path d="M576.528 492.512h372.881v39.496H576.528z"/><path fill="#000" d="M764.514 513.197q0-1.5.422-2.687.437-1.203 1.203-2.031.765-.844 1.812-1.282 1.047-.453 2.297-.453 1.297 0 2.156.485.875.484 1.422 1.047l-.89 1.015q-.469-.5-1.094-.828-.625-.344-1.563-.344-.953 0-1.718.36-.75.343-1.282 1-.53.656-.828 1.593-.297.938-.297 2.094 0 1.172.266 2.11.281.937.797 1.609.531.672 1.297 1.031.765.36 1.781.36.656 0 1.25-.204.61-.203.984-.546v-3.25h-2.64v-1.297h4.094v5.234q-.61.625-1.61 1.047-1 .406-2.25.406-1.234 0-2.265-.437-1.016-.438-1.766-1.266-.734-.828-1.156-2.031-.422-1.219-.422-2.735zm12.886-4.906q-.453 0-.781-.281-.313-.281-.313-.719 0-.453.313-.719.328-.28.78-.28.454 0 .766.28.313.266.313.72 0 .437-.313.718-.312.281-.765.281zm-.797 1.906h1.547v9.235h-1.547v-9.235zm4.855 1.266h-1.375v-1.172l1.453-.094.188-2.578h1.312v2.578h2.484v1.266h-2.484v5.14q0 .86.313 1.329.312.453 1.109.453.25 0 .531-.078t.516-.172l.297 1.187q-.375.125-.828.235-.438.11-.875.11-.75 0-1.25-.235t-.813-.625q-.312-.406-.453-.969-.125-.578-.125-1.25v-5.125zm6.18-4.5h1.579v5.234h5.797v-5.234h1.593v12.469h-1.593v-5.875h-5.797v5.875h-1.578v-12.469zm11.883 3.234h1.578v5.641q0 1.313.407 1.89.406.579 1.328.579.719 0 1.265-.36.563-.375 1.22-1.187v-6.563h1.562v9.235h-1.297l-.125-1.438h-.063q-.64.75-1.359 1.22-.719.452-1.688.452-1.468 0-2.156-.906-.672-.922-.672-2.703v-5.86zm10.29-4.296h1.547v3.687l-.031 1.672q.625-.547 1.359-.922.75-.375 1.531-.375.89 0 1.578.344.688.328 1.141.953.469.61.703 1.484.25.86.25 1.922 0 1.172-.328 2.11-.328.921-.875 1.578-.547.64-1.281.984-.719.328-1.516.328-.64 0-1.344-.297-.687-.297-1.296-.843h-.063l-.125.906h-1.25V505.9zm1.547 11.484q.61.531 1.203.75.61.219 1.063.219.578 0 1.062-.25.484-.266.828-.735.36-.468.547-1.14.203-.688.203-1.547 0-.766-.14-1.39-.125-.626-.422-1.063-.297-.453-.766-.703-.453-.25-1.094-.25-1.125 0-2.484 1.265v4.844zm38.378-4.188q0-1.5.422-2.687.421-1.203 1.156-2.031.75-.844 1.765-1.282 1.016-.453 2.204-.453 1.14 0 2 .47.859.452 1.406 1.062l-.89 1.015q-.5-.531-1.095-.844-.593-.328-1.39-.328-.906 0-1.625.36-.719.343-1.235 1-.515.656-.796 1.593-.282.938-.282 2.094 0 1.172.266 2.11.281.937.766 1.609.5.672 1.218 1.031.719.36 1.61.36.906 0 1.578-.36t1.281-1.031l.89.969q-.734.86-1.671 1.343-.922.47-2.125.47-1.172 0-2.172-.438-1-.438-1.734-1.266-.72-.828-1.141-2.031-.406-1.219-.406-2.735zm10.543 1.641q0-1.156.344-2.062.36-.907.937-1.532.594-.625 1.36-.953.78-.328 1.64-.328.844 0 1.61.328.78.328 1.359.953.594.625.938 1.532.359.906.359 2.062 0 1.14-.36 2.047-.343.89-.937 1.516-.578.609-1.36.937-.765.328-1.609.328-.86 0-1.64-.328-.766-.328-1.36-.937-.578-.625-.937-1.516-.344-.906-.344-2.047zm1.61 0q0 .797.187 1.438.203.64.547 1.109.36.469.844.734.5.25 1.093.25.578 0 1.063-.25.5-.265.844-.734.359-.469.546-1.11.204-.64.204-1.437t-.204-1.453q-.187-.656-.546-1.125-.344-.484-.844-.734-.485-.266-1.063-.266-.593 0-1.093.266-.485.25-.844.734-.344.469-.547 1.125-.188.656-.188 1.453zm9.19-4.64h1.28l.141 1.328h.063q.593-.657 1.312-1.11.719-.453 1.547-.453 1.062 0 1.656.469.61.469.89 1.312.72-.812 1.454-1.297.734-.484 1.594-.484 1.422 0 2.11.922.702.906.702 2.687v5.86h-1.562v-5.64q0-1.313-.422-1.891-.422-.579-1.297-.579-1.031 0-2.313 1.422v6.688h-1.562v-5.64q0-1.313-.422-1.891-.406-.579-1.297-.579-1.047 0-2.328 1.422v6.688h-1.547v-9.235zm15.465 0h1.281l.141 1.328h.063q.593-.657 1.312-1.11.719-.453 1.547-.453 1.062 0 1.656.469.61.469.89 1.312.72-.812 1.454-1.297.734-.484 1.594-.484 1.422 0 2.11.922.702.906.702 2.687v5.86h-1.562v-5.64q0-1.313-.422-1.891-.422-.579-1.297-.579-1.031 0-2.313 1.422v6.688h-1.562v-5.64q0-1.313-.422-1.891-.406-.579-1.297-.579-1.047 0-2.328 1.422v6.688h-1.547v-9.235zm15.326 0h1.578v5.64q0 1.313.406 1.89.406.579 1.328.579.719 0 1.266-.36.562-.375 1.219-1.187v-6.563h1.562v9.235h-1.297l-.125-1.438h-.062q-.64.75-1.36 1.22-.718.452-1.687.452-1.469 0-2.156-.906-.672-.922-.672-2.703v-5.86zm10.29 0h1.28l.141 1.328h.063q.656-.657 1.39-1.11.735-.453 1.703-.453 1.454 0 2.125.922.688.906.688 2.687v5.86h-1.563v-5.64q0-1.313-.421-1.891-.407-.579-1.329-.579-.718 0-1.28.36-.548.36-1.25 1.062v6.688h-1.548v-9.235zm11.001-1.907q-.453 0-.781-.281-.313-.281-.313-.719 0-.453.313-.719.328-.28.781-.28t.766.28q.312.266.312.72 0 .437-.312.718-.313.281-.766.281zm-.797 1.906h1.547v9.235h-1.547v-9.235zm4.855 1.266h-1.375v-1.172l1.453-.094.188-2.578h1.312v2.578h2.485v1.266h-2.485v5.14q0 .86.313 1.329.312.453 1.11.453.25 0 .53-.078.282-.078.516-.172l.297 1.187q-.375.125-.828.235-.438.11-.875.11-.75 0-1.25-.235t-.813-.625q-.312-.406-.453-.969-.125-.578-.125-1.25v-5.125zm5.416 10.516q.14.03.328.078.203.047.375.047.797 0 1.297-.563.5-.547.78-1.406l.22-.688-3.704-9.25h1.61l1.875 5.11q.219.61.453 1.281.234.672.437 1.328h.079q.218-.625.406-1.312.187-.688.375-1.297l1.656-5.11h1.516l-3.47 10q-.25.672-.562 1.266-.296.594-.718 1.016-.407.437-.953.672-.532.25-1.235.25-.312 0-.578-.047-.266-.047-.5-.14l.313-1.235z"/></g></svg>