<svg viewBox="0 0 960 540" fill="none" stroke-linecap="square" stroke-miterlimit="10" xmlns="http://www.w3.org/2000/svg"><clipPath id="a"><path d="M0 0h960v540H0V0z"/></clipPath><g clip-path="url(#a)"><path d="M0 0h960v540H0z"/><path fill="#f3f3f3" d="M-.181-1.073h960v540h-960z"/><path fill="#fff" d="M480.955-13.955h410.08v529.26h-410.08z"/><path stroke="#000" stroke-width="2" stroke-linejoin="round" stroke-linecap="butt" d="M480.955-13.955h410.08v529.26h-410.08z"/><path fill="#ebf6ff" d="M-8.588 22.546h975.874v92.787H-8.588z"/><path stroke="#000" stroke-width="2" stroke-linejoin="round" stroke-linecap="butt" d="M-8.588 22.546h975.874v92.787H-8.588z"/><path d="M38.91 28.78h422.52v92.787H38.91z"/><path fill="#000" d="M51.614 52.563h7.484l5.235 14.062 1.859 5.469h.203l1.875-5.469 5.078-14.062h7.438V83.86h-6.578V72.39q0-1.155.093-2.546.11-1.39.25-2.797.141-1.422.282-2.781.156-1.375.297-2.531h-.188l-2.594 7.25-4.812 12.14h-2.828l-4.797-12.14-2.5-7.25h-.188q.14 1.156.282 2.53.156 1.36.265 2.782.125 1.406.219 2.797.094 1.39.094 2.547V83.86h-6.47V52.563zm35.748 7.484h7.062v13.875q0 2.594.72 3.563.718.953 2.25.953 1.343 0 2.25-.625.921-.625 1.983-2.016v-15.75h7.047V83.86h-5.75l-.53-3.313h-.142q-1.546 1.828-3.296 2.86-1.75 1.03-4.204 1.03-3.875 0-5.64-2.546-1.75-2.547-1.75-7.063V60.047zm28.56 16.656q1.641 1.25 3.126 1.875 1.484.625 3.015.625 1.594 0 2.313-.531.719-.531.719-1.484 0-.578-.407-1.032-.406-.453-1.109-.828-.687-.39-1.562-.703-.86-.312-1.766-.703-1.11-.437-2.219-1-1.094-.578-2.015-1.422-.907-.844-1.485-1.969-.578-1.125-.578-2.609 0-1.64.64-3.031.657-1.39 1.86-2.344 1.203-.969 2.875-1.516 1.688-.562 3.75-.562 2.734 0 4.797.937 2.062.938 3.61 2.094l-3.173 4.219q-1.296-.953-2.546-1.484-1.25-.532-2.5-.532-2.688 0-2.688 1.875 0 .578.375.985.39.406 1.031.75.657.328 1.5.64.844.313 1.75.657 1.157.421 2.282.984 1.125.547 2.062 1.36.938.812 1.516 2 .578 1.171.578 2.796 0 1.64-.625 3.031-.625 1.391-1.875 2.422-1.25 1.032-3.078 1.64-1.813.595-4.22.595-2.343 0-4.827-.907-2.469-.921-4.281-2.406l3.156-4.422zm23.718-20.156q-1.781 0-2.938-1.031-1.14-1.031-1.14-2.672 0-1.625 1.14-2.625 1.157-1.016 2.938-1.016 1.828 0 2.953 1.016 1.125 1 1.125 2.625 0 1.64-1.125 2.672-1.125 1.031-2.953 1.031zm-3.5 3.5h7.047V83.86h-7.047V60.047zm11.857 11.906q0-2.968 1-5.297 1.016-2.328 2.72-3.906 1.702-1.594 3.952-2.437 2.25-.844 4.703-.844 2.203 0 3.985.75 1.781.75 2.984 2l-3.219 4.36q-1.687-1.391-3.312-1.391-2.594 0-4.094 1.828-1.484 1.812-1.484 4.937t1.515 4.953q1.516 1.813 3.813 1.813 1.297 0 2.36-.516 1.062-.531 1.921-1.203l2.828 4.453Q165.95 83 163.825 83.72q-2.109.719-4.078.719-2.5 0-4.64-.844-2.125-.844-3.719-2.422-1.578-1.578-2.484-3.906-.907-2.328-.907-5.313zm36.385 3.125q1.672 1.438 3.703 2.36 2.047.906 4.016.906 2.203 0 3.28-.813 1.095-.828 1.095-2.218 0-.72-.313-1.235-.312-.531-.922-.937-.594-.422-1.437-.781-.844-.36-1.844-.782l-4.078-1.734q-1.203-.484-2.328-1.25-1.125-.766-2.016-1.797-.89-1.031-1.422-2.39-.531-1.376-.531-3.11 0-1.922.812-3.625.829-1.703 2.313-2.969 1.484-1.281 3.516-2 2.046-.718 4.5-.718 2.734 0 5.39 1.062 2.672 1.047 4.688 3.063l-3.594 4.468q-1.531-1.203-3.078-1.843-1.531-.657-3.406-.657-1.829 0-2.907.75t-1.078 2.094q0 .719.36 1.219.359.5 1 .906.656.406 1.515.766.875.359 1.875.797l4.031 1.64q2.891 1.14 4.547 3.156 1.657 2.016 1.657 5.329 0 1.968-.797 3.734-.797 1.75-2.313 3.062-1.5 1.313-3.719 2.11-2.203.797-4.984.797-3.078 0-6.125-1.125-3.047-1.141-5.437-3.391l4.03-4.844zm22.703-3.125q0-2.875.954-5.203.953-2.328 2.515-3.937 1.563-1.61 3.578-2.47 2.016-.874 4.172-.874 2.547 0 4.438.875 1.906.86 3.172 2.406 1.28 1.531 1.906 3.625.625 2.078.625 4.531 0 .954-.11 1.75-.093.782-.187 1.22h-14.25q.484 2.734 2.14 3.968 1.657 1.219 4.047 1.219 2.547 0 5.141-1.594l2.344 4.281q-1.813 1.25-4.047 1.969-2.234.719-4.39.719-2.548 0-4.766-.844-2.203-.844-3.844-2.438-1.625-1.609-2.531-3.906-.907-2.312-.907-5.297zm15.36-2.453q0-2.062-.922-3.36-.906-1.296-3.063-1.296-1.687 0-2.968 1.14-1.266 1.126-1.64 3.516h8.593zm10.895-19.28h7.047v26.53q0 1.11.406 1.547.407.422.844.422h.406q.172 0 .453-.094l.875 5.235q-.578.234-1.468.406-.891.172-2.094.172-1.813 0-3.063-.578-1.25-.579-2-1.61-.734-1.031-1.078-2.484-.328-1.469-.328-3.297v-26.25zm12.338 21.734q0-2.875.953-5.203.953-2.328 2.515-3.937 1.563-1.61 3.578-2.47 2.016-.874 4.172-.874 2.547 0 4.438.875 1.906.86 3.172 2.406 1.28 1.531 1.906 3.625.625 2.078.625 4.531 0 .954-.11 1.75-.093.782-.187 1.22h-14.25q.484 2.734 2.14 3.968 1.657 1.219 4.048 1.219 2.546 0 5.14-1.594l2.344 4.281q-1.813 1.25-4.047 1.969-2.234.719-4.39.719-2.547 0-4.766-.844-2.203-.844-3.844-2.438-1.625-1.609-2.531-3.906-.906-2.312-.906-5.297zm15.359-2.453q0-2.062-.922-3.36-.906-1.296-3.062-1.296-1.688 0-2.97 1.14-1.265 1.126-1.64 3.516h8.594zm9.505 2.453q0-2.968 1-5.297 1.015-2.328 2.718-3.906 1.703-1.594 3.953-2.437 2.25-.844 4.704-.844 2.203 0 3.984.75 1.781.75 2.984 2l-3.218 4.36q-1.688-1.391-3.313-1.391-2.594 0-4.094 1.828-1.484 1.812-1.484 4.937t1.516 4.953q1.515 1.813 3.812 1.813 1.297 0 2.36-.516 1.062-.531 1.921-1.203l2.828 4.453Q288.495 83 286.37 83.72q-2.11.719-4.078.719-2.5 0-4.641-.844-2.125-.844-3.719-2.422-1.578-1.578-2.484-3.906-.906-2.328-.906-5.313zm24.76-6.375h-3.266v-5.234l3.656-.297.813-6.328h5.859v6.328h5.703v5.531h-5.703v9.547q0 2.016.828 2.906.844.891 2.234.891.579 0 1.172-.14.61-.157 1.094-.344l1.094 5.14q-.953.282-2.25.563-1.297.297-3.031.297-2.204 0-3.766-.672-1.563-.672-2.547-1.875-.984-1.203-1.437-2.906-.454-1.704-.454-3.766v-9.64z"/><path fill="#fff" d="M65.971 143.858a9.664 9.664 0 0 1 9.664-9.664h333.87a9.664 9.664 0 0 1 9.663 9.664v64.42a9.664 9.664 0 0 1-9.664 9.664H75.634a9.664 9.664 0 0 1-9.663-9.663z"/><path stroke="#000" stroke-width="2" stroke-linejoin="round" stroke-linecap="butt" d="M65.971 143.858a9.664 9.664 0 0 1 9.664-9.664h333.87a9.664 9.664 0 0 1 9.663 9.664v64.42a9.664 9.664 0 0 1-9.664 9.664H75.634a9.664 9.664 0 0 1-9.663-9.663z"/><path d="M77.782 137.95h329.575v69.795H77.782z"/><path fill="#000" d="M93.313 167.677H87.58v-3.969h16.188v3.969h-5.72v16.89h-4.734v-16.89zm13.183 1.016h4.703v9.25q0 1.734.469 2.375.484.64 1.516.64.89 0 1.5-.422.609-.422 1.312-1.343v-10.5h4.703v15.875h-3.844l-.343-2.204h-.094q-1.031 1.22-2.203 1.907-1.156.687-2.797.687-2.594 0-3.766-1.703-1.156-1.703-1.156-4.703v-9.86zm18.973 3.687h-2.172v-3.5l2.422-.187.547-4.22h3.906v4.22h3.813v3.687h-3.813v6.36q0 1.343.563 1.937.562.594 1.484.594.39 0 .781-.094.406-.094.719-.219l.75 3.422q-.64.188-1.516.375-.859.203-2.015.203-1.469 0-2.516-.453-1.031-.453-1.687-1.25-.657-.797-.97-1.937-.296-1.141-.296-2.516v-6.422zm10.694 4.25q0-1.984.64-3.531.64-1.563 1.703-2.61 1.078-1.062 2.485-1.609 1.406-.562 2.906-.562 1.516 0 2.906.562 1.39.547 2.453 1.61 1.078 1.046 1.719 2.609.64 1.547.64 3.531 0 1.984-.64 3.547-.64 1.547-1.719 2.61-1.062 1.046-2.453 1.609-1.39.562-2.906.562-1.5 0-2.906-.562-1.407-.563-2.485-1.61-1.062-1.062-1.703-2.61-.64-1.562-.64-3.546zm4.828 0q0 2.078.718 3.297.72 1.219 2.188 1.219 1.453 0 2.187-1.22.735-1.218.735-3.296t-.735-3.297q-.734-1.219-2.187-1.219-1.469 0-2.188 1.22-.718 1.218-.718 3.296zm13.853-7.937h3.844l.313 2.78h.14q.86-1.624 2.063-2.39 1.219-.765 2.437-.765.672 0 1.11.078.437.078.78.234l-.765 4.063q-.453-.125-.843-.188-.375-.062-.891-.062-.89 0-1.875.64-.969.64-1.61 2.266v9.219h-4.703v-15.875zm15.08-2.329q-1.187 0-1.953-.687-.766-.688-.766-1.781 0-1.094.766-1.766.766-.672 1.953-.672 1.203 0 1.953.672.766.672.766 1.766 0 1.093-.766 1.78-.75.688-1.953.688zm-2.344 2.329h4.704v15.875h-4.704v-15.875zm8.254 11.453q0-2.485 2.11-3.89 2.125-1.423 6.828-1.892-.063-1.062-.64-1.687-.579-.625-1.86-.625-1.031 0-2.063.39-1.015.376-2.156 1.047l-1.672-3.093q1.531-.938 3.203-1.5 1.688-.578 3.578-.578 3.079 0 4.688 1.75 1.625 1.734 1.625 5.406v9.094h-3.844l-.36-1.625h-.093q-1.016.89-2.156 1.453-1.14.562-2.485.562-1.078 0-1.953-.375-.859-.375-1.468-1.015-.61-.657-.954-1.516-.328-.875-.328-1.906zm4.485-.344q0 .766.484 1.14.5.36 1.344.36.828 0 1.406-.344.578-.36 1.219-1v-2.781q-2.531.344-3.5 1.016-.953.671-.953 1.609zM193.5 162.13h4.704v17.703q0 .735.265 1.031.281.282.563.282h.281q.11 0 .297-.063l.578 3.485q-.375.156-.969.265-.594.125-1.39.125-1.22 0-2.063-.39-.828-.391-1.328-1.079-.484-.687-.719-1.656-.219-.984-.219-2.187V162.13z"/><path fill="#fff" d="M65.971 239.858a9.664 9.664 0 0 1 9.664-9.664h333.87a9.664 9.664 0 0 1 9.663 9.664v64.42a9.664 9.664 0 0 1-9.664 9.664H75.634c-5.336 0-9.663-4.326-9.663-9.663z"/><path stroke="#000" stroke-width="2" stroke-linejoin="round" stroke-linecap="butt" d="M65.971 239.858a9.664 9.664 0 0 1 9.664-9.664h333.87a9.664 9.664 0 0 1 9.663 9.664v64.42a9.664 9.664 0 0 1-9.664 9.664H75.634c-5.336 0-9.663-4.326-9.663-9.663z"/><path d="M77.782 236.097h329.575v69.795H77.782z"/><path fill="#000" d="M99.22 248.08q1.328-.392 3.078.312 1.5.546 1.5 1.25 0 1.078-.797 1.078.062-.047.062.5v2.718q4.75 0 5.141-.312 1.406-.984 3.516.766 2.703 2.234-.828 1.812-3.344-.422-7.829-.422v8.594q.22 2.36.094 3.187-.25 1.22-1.094 2.094-.578.578-1.343.578-.97 0-.97-1.406 0-.234-.515-.61-1.453-1.062-3.265-2.327-2.141-1.704.703-1.282 1.875 1 3.687 1.97.36.202.375.202.078-.719.078-1.64v-6.97q-4.359 6.438-12.265 10.235-1.86.281-.875-1.344 7.172-4.125 11.562-11.078-6.172.625-6.531.953-.328.532-.937.532-.516 0-2.016-1.172-1.078-.813-.953-2.235.594-1.718 1.64-.171.313.609.954.687 1.64.11 9.421-.5v-2.422q-.093-1.281-.312-1.578-.297-.375-1.125-.562-1.313-.625-.156-1.438zm16.344 3.562q0-.5-.266-.766-.28-.297-1.03-.39-1.485-.72 0-1.5 1.968-.11 3.25.577 1.155.422 1.155 1.235 0 .703-.703.937.063-.015.063.438v8.11q.14 2.25-1.172 2.25-.64 0-1.11-.782-.562-.86-.374-1.375.093-.672.187-1.703v-7.031zm10.172 6.546q.125 9.266-11.313 12.922-1.734-.609-.375-1.687 9.313-3.703 9.22-11.235v-7.359q-.079-.672-.313-.969-.172-.234-1.188-.343-.953-.954.235-1.36 1.906-.234 3.406.453 1.281.563 1.281 1.235 0 .86-.953 1.39v6.953zm14.915-7.89q.016 0-.046.531v1.922q2.078-.078 4.984-.156.344-.22 1.062-.938 1.25.938 1.922 1.594.688.687.688 1.234 0 .766-1.297.766.047 0 .016.203-3.454 11.453-14.204 16.328-1.843.328-.859-1.344 9.938-5.546 12.625-16.093-.031.093.25.172-6.953.312-11.937.875v3.296q.109 2.297.218 3.329.157 1.453-.875 1.453-.5 0-1.187-.547-.906-.75-.61-1.719.204-1.062.094-5.453 0-1.156-.172-1.594-.031-.11-.547-.328-1.53-.734.172-1.453 1.375-.14 2.75 1.031l4.547-.469v-2.734q-.078-.687-.187-.75-.203-.125-.735-.234-2.078-.36-.187-1.485 1.5-.234 3.11.328 1.202.47 1.202 1.266 0 .969-.797.969zm4.844-.672q-.844-.89.485-1.297 2.484.828 3.39 1.625 1.156.89 1.156 1.906 0 1.282-1.187 1.282-.875 0-1.219-.72-.39-.671-1-1.374-.469-.578-1.625-1.422zm2.25-1.969q-.844-.89.39-1.328 2.391.375 3.47 1.328 1.03.89 1.03 1.672 0 1.39-1.077 1.39-.703 0-1.172-.64-.625-.812-.906-1.125-.782-.781-1.735-1.297zm17.486 6.578q-2.203-1.453.578-1.453 1.281 0 2.61 1.438.577.562.577 1.218 0 .954-1.187.75-.172-.03-.406.313-1.203 1.422-3.032 3.047 2.532.844-.234 1.765v9.422q0 1.5-.969 1.5-.578 0-1.156-.734-.766-.89-.406-1.594.172-.625.172-1.812v-6.282q-4.375 3.297-8.86 4.516-1.922 0-.515-1.422 9.03-4.297 12.734-9.781.328-.484.328-.844 0 .047-.234-.047zm26.79-3.937q1.109 1.11 1.109 1.656 0 .875-1.078.875-.375 0-.734-.078-2.157 1.36-8.047 4.719-1.157 8.234-8.61 12.39-1.906.563-1.203-1.172 6.453-4.39 7.078-11.406.25-1.75-.547-1.937-2.296-.688-.187-1.485 1.766-.14 3 .844.75.625.781.422 3.078-1.813 4.703-3.39-5.031.25-9.437.984-3.563.593-3.875.843-.563.422-1.172.422-.516 0-1.625-.984-1.234-1.125-1.234-2.094 0-1.64 1.468-.703.532.875 2.313.781 2.515-.093 4.703-.422 5.625-.625 9.656-.625.672-.328 1.516-1.03l1.422 1.39zm15.115 1.844q-.515-.297.391.593 1.5 1.47-.297 1.797-2.562 7.281-5.125 10.922-.672 1.031-1.5 1.61-1.734 1.265-2.312-.204-1.328-.422-2.078-1.765-.907-1.61-.907-3.75 0-4.453 2.797-7.25 3.64-3.625 8.828-3.625 5.5 0 8.61 3.11 2.265 2.265 2.265 5.655 0 3.047-2.14 5.422-2.97 3.313-9.032 4.328-1.562-.765-.109-1.515 4.64-1.14 7.047-3.953 1.562-1.844 1.562-4.391 0-2.64-1.328-4.172-2.781-3.172-6.672-2.812zm-7.171 12.546q2.984-4.515 4.75-11.078.218-.906-.141-1.172-2.328.36-4.313 2.344-2.593 2.578-2.593 6.031 0 2.938 1 3.938.375.375.672.375.187 0 .625-.438zm43.099 3.329q-.937 2-3.047 2.812-.906.313-1.422-.047-.468-.25-.468-1.11-.094-.296-.797-.53l-1.453-.485q-.688-1.047.421-1.437l2.875.547q.954.078 1.266-.329 1.063-1.421 1.063-5.25v-9.468H230.11v-1.735h11.344l.797-1.047 1.906 1.375q1.547 1.282-.203 1.625v9.25q0 3.797-.891 5.829zm-8.594-.97q0 1.391-1.39 1.391-1.141 0-1.282-1.53-.093-.595-.187-.985l-8.734 2.203q-.672 3.078-2.11.203l-1.156-2.484 4.14-.485 6.704-12.593 2.109 1.39q1.984 1.719-.766 1.719l-5.828 9.156 5.172-.86q-.156-.593-1.36-2.343 0-1.5 1.188-.719 1.578 1.125 2.594 3.047.906 1.688.906 2.89zm-11.406-8.765q-.656-1.656-2.766-3.14-1.718-1.407.657-1.407 1.406.594 1.953.922l3.328-7.828 2.36.969q1.968 1.484-.657 1.812l-3.453 6.157q1.437 1.437 1.437 2.734 0 1.281-1.28 1.281-1.032 0-1.579-1.5zm37.594-8.11q-2.063-1.64.672-1.28 1.125.375 1.859 1.093.672.703.672 1.657 0 1.28-.969 1.28-.812 0-1.25-1.312-.265-.812-.984-1.437zm-12.922 3.641q-2.203.766-.86-1.265 2.922-2.422 5.204-6.469l2.265 1.688q1.14 1.734-1.328 1.406-1.75 2.344-5.281 4.64zm4.312 17.266q-2.453 2.297-2.453-.125V259.83q-.328.422-2.234 1.984-2.297.985-1.047-1.203 4.297-5.343 6.203-9.78l2.39 1.546q1.423 1.406-.968 1.578-.812 1.375-1.734 2.516l-.016-.016q2.14 1.063-.14 1.625v13zm-.296-3.625q2.28-4.375 2.984-10.562l2.39.89q2.204 1.25-.187 1.797-.906 4.516-3.86 8.797-2.327 1.64-1.327-.922zm8.421-14.14h3.125l1.329-1.329 1.875 1.328q1.406 1.188-.25 1.72h-6.079v15.734q-2.468 2.28-2.468-.141v-15.594h-4.22v-1.719h4.22v-6.734l2.547.422q2.156 1.375-.079 1.734v4.578zm1.282 4q3.156 3.5 3.156 6.359 0 1.594-1.188 1.594-1 0-1.375-2.25-.515-2.844-1.734-4.672-1.062-2.14 1.14-1.032zm7.265.25v10.953q0 1.296-.797 2.078-.671.687-1.656.687-.86 0-.86-1.078 0-.078-.093-.094l-1.547-.328q-1.422-.734.047-1.5h2.25q.188 0 .188-.187v-10.532h-4.641v-1.718h6.953l1.563-1.547 2.078 1.562q1.422 1.172-.266 1.703h-3.219zm-5.203-6.844v-1.735h4.422l1.563-1.547 2.078 1.563q1.359 1.156-.25 1.719h-7.813zM96.954 290.65q2.453 3.562 7.203 4.233-.594.297-.969 1.032-4.453-1.032-6.75-5.266h-.156q-.89 4.313-7.422 5.047-.297-.14 0-.375 5.64-.953 6.39-4.672h-4.905v-.453h4.968q.157-.813.235-1.844h-2.61v-.453h4.61l.812-.812 1.047.734q.438.375 0 .531H96.58q-.078 1.031-.219 1.844h3.485l.968-.953 1.188.89q.437.36 0 .516h-5.047zm6.75-.517q-4-1.859-6.828-6.906l.297-.219q.672 1.032 1.344 1.922l1.921-1.922.516.516q.89.734-.219.594l-2 1.031q.735.89 1.328 1.422l2.157-2.156.515.515q.89.75-.218.594l-2.157 1.344q2.078 1.703 4.61 2.14-.813.375-1.266 1.125zm-14.625-4.984q-.36-.36.297-.219 1.344.219 2.078.75.594.36.531 1.188 1.25-1.344 2.14-2.906h-4.968v-.438h5.203l.36-.516 1.047.813q.437.516-.516.516-3.266 4.609-7.656 6.093-.516 0-.063-.297 2.297-1.125 4.156-2.968-.593-.078-.828-.453-.515-.97-1.781-1.563zm15.516-4.594q.453.375 0 .516h-5.266v1.484q-.969.89-.969.078v-1.562h-4.297v1.484q-.968.89-.968.078v-1.562h-5.203v-.438h5.203v-2.156l1.265.219q.516.219-.297.516v1.421h4.297v-2.078l1.266.219q.516.219-.297.516v1.343h2.75l1.11-1.125 1.406 1.047z"/><path d="M265.375 270.053H409.5v25.197H265.375z"/><path fill="#000" d="M325.633 292.132q.563.578 1.313.953.765.36 1.594.36 1.03 0 1.609-.47.578-.484.578-1.25 0-.406-.14-.672-.141-.28-.376-.484-.218-.203-.546-.36-.313-.171-.688-.343l-1.5-.656q-.375-.157-.766-.375-.375-.235-.687-.547-.297-.328-.484-.766-.188-.437-.188-1.015 0-.594.25-1.094.25-.516.688-.89.437-.376 1.03-.579.61-.219 1.329-.219.937 0 1.734.36.813.36 1.36.937l-.72.86q-.468-.454-1.062-.72-.578-.265-1.312-.265-.89 0-1.422.406-.531.407-.531 1.125 0 .391.14.657.157.25.407.453.265.203.562.36l.625.28 1.5.641q.438.188.844.438.406.25.687.578.282.328.454.765.171.438.171 1.016 0 .625-.25 1.172-.25.531-.718.953-.453.406-1.11.64-.656.22-1.484.22-1.11 0-2.063-.407-.937-.422-1.625-1.14l.797-.922zm7.81-1.594q0-.953.297-1.719.297-.766.781-1.281.484-.531 1.11-.813.624-.28 1.296-.28.735 0 1.313.265.594.25.984.734.39.469.594 1.14.219.673.219 1.516 0 .422-.047.72h-5.25q.078 1.25.765 2 .704.733 1.829.733.562 0 1.03-.171.47-.172.907-.438l.469.86q-.516.328-1.14.562-.626.234-1.423.234-.781 0-1.468-.28-.688-.282-1.188-.798-.5-.515-.797-1.265-.281-.75-.281-1.72zm5.437-.594q0-1.187-.5-1.812-.5-.641-1.421-.641-.407 0-.782.172-.375.156-.687.469-.297.312-.5.765t-.266 1.047h4.156zm4.53.406l-2.344-3.718h1.422l1.032 1.718q.187.313.375.641.187.328.39.656h.078l.344-.656q.172-.328.36-.64l.937-1.72h1.375l-2.344 3.86 2.516 3.922h-1.422l-1.125-1.813q-.219-.343-.422-.687-.203-.36-.437-.703h-.063l-.406.687q-.188.344-.375.703l-1.063 1.813h-1.375l2.547-4.063zm5.152 6.203q.125.032.281.063.172.047.313.047.671 0 1.093-.469.422-.469.672-1.187l.172-.579-3.125-7.796h1.36l1.593 4.312q.172.516.375 1.078.203.563.375 1.11h.063q.172-.532.328-1.094.172-.578.328-1.094l1.39-4.312h1.282l-2.922 8.421q-.219.579-.484 1.063-.25.5-.61.86-.344.359-.797.562-.437.219-1.03.219-.267 0-.5-.047-.22-.032-.407-.11l.25-1.047zm11.36-12.64h2.625q2.438 0 3.703 1.344 1.266 1.343 1.266 3.859 0 1.25-.328 2.234-.313.985-.938 1.672-.625.672-1.547 1.031-.906.36-2.093.36h-2.688v-10.5zm2.531 9.406q1.844 0 2.75-1.094.922-1.109.922-3.109t-.922-3.047q-.906-1.062-2.75-1.062h-1.203v8.312h1.203zm6.793-.922q0-1.281 1.141-1.953 1.156-.687 3.656-.953 0-.375-.078-.719-.078-.36-.265-.625-.172-.281-.485-.437-.297-.172-.781-.172-.688 0-1.281.25-.578.25-1.032.578l-.53-.906q.546-.36 1.327-.688.782-.328 1.72-.328 1.437 0 2.077.875.64.875.64 2.328v4.766h-1.093l-.11-.922h-.03q-.563.453-1.22.781-.64.328-1.359.328-1 0-1.656-.562-.64-.578-.64-1.64zm1.297-.094q0 .672.391.97.406.28.969.28.562 0 1.062-.265.516-.266 1.078-.781v-2.157q-.984.125-1.656.313-.672.172-1.078.406-.406.234-.594.547-.172.312-.172.687zm7.286-5.671h1.094l.11 1.125h.046q.563-.563 1.172-.938.625-.375 1.438-.375 1.234 0 1.796.766.563.765.563 2.281v4.922h-1.313v-4.75q0-1.11-.359-1.594-.344-.484-1.11-.484-.609 0-1.077.312-.454.297-1.047.89v5.626h-1.313v-7.781zm8.174 3.906q0-.969.297-1.735.312-.765.828-1.28.516-.532 1.188-.798.687-.28 1.437-.28.766 0 1.313.28.562.282.953.641l-.657.86q-.343-.313-.734-.5-.375-.188-.828-.188-.531 0-.984.219-.438.203-.766.609-.313.406-.5.953-.188.547-.188 1.219t.172 1.219q.188.546.5.937.313.39.75.61.453.218.985.218.562 0 1.015-.234.453-.235.797-.563l.594.875q-.516.453-1.172.735-.64.265-1.344.265-.781 0-1.453-.265-.672-.282-1.156-.797-.484-.516-.766-1.266-.281-.765-.281-1.734zm7.296 0q0-.953.297-1.719.297-.766.781-1.281.485-.531 1.11-.813.625-.28 1.296-.28.735 0 1.313.265.594.25.984.734.39.469.594 1.14.219.673.219 1.516 0 .422-.047.72h-5.25q.078 1.25.766 2 .703.733 1.828.733.562 0 1.03-.171.47-.172.907-.438l.469.86q-.516.328-1.14.562-.626.234-1.423.234-.78 0-1.468-.28-.688-.282-1.188-.798-.5-.515-.797-1.265-.281-.75-.281-1.72zm5.438-.594q0-1.187-.5-1.812-.5-.641-1.422-.641-.407 0-.782.172-.375.156-.687.469-.297.312-.5.765t-.266 1.047h4.157z"/><path fill="#fff" d="M65.971 335.858c0-5.337 4.327-9.664 9.664-9.664h333.87a9.664 9.664 0 0 1 9.663 9.664v64.42a9.664 9.664 0 0 1-9.664 9.664H75.634c-5.336 0-9.663-4.326-9.663-9.663z"/><path stroke="#000" stroke-width="2" stroke-linejoin="round" stroke-linecap="butt" d="M65.971 335.858c0-5.337 4.327-9.664 9.664-9.664h333.87a9.664 9.664 0 0 1 9.663 9.664v64.42a9.664 9.664 0 0 1-9.664 9.664H75.634c-5.336 0-9.663-4.326-9.663-9.663z"/><path d="M77.782 332.097h329.575v69.795H77.782z"/><path fill="#000" d="M88.86 347.985h3.969v14.266h6.969v3.344H88.86v-17.61zm-.375 29.461h1.578v12.469h-1.578v-12.47zm4.079 7.875q0-1.156.36-2.063.359-.906.968-1.53.61-.626 1.406-.954.813-.328 1.703-.328.922 0 1.578.344.657.328 1.125.765l-.78 1q-.407-.36-.86-.578-.453-.234-1-.234-.625 0-1.156.265-.532.25-.922.735-.375.469-.594 1.125-.219.656-.219 1.453t.203 1.437q.219.641.578 1.11.375.469.907.734.547.25 1.172.25.656 0 1.203-.265.547-.282.953-.672l.703 1.03q-.625.548-1.39.876-.766.328-1.61.328-.906 0-1.703-.328t-1.39-.938q-.579-.625-.907-1.515-.328-.906-.328-2.047zm8.507 0q0-1.14.344-2.047.36-.906.937-1.531.578-.625 1.313-.953.75-.344 1.547-.344.875 0 1.562.312.703.297 1.156.875.47.563.72 1.36.25.797.25 1.797 0 .515-.063.843h-6.235q.11 1.5.922 2.375.828.875 2.156.875.672 0 1.235-.187.562-.203 1.078-.531l.547 1.03q-.61.376-1.36.673-.734.281-1.687.281-.922 0-1.735-.328-.812-.344-1.406-.953-.594-.625-.937-1.516-.344-.89-.344-2.031zm6.453-.703q0-1.422-.594-2.172-.593-.766-1.687-.766-.485 0-.938.203-.437.204-.812.579-.36.359-.594.906-.234.547-.312 1.25h4.937z"/><path d="M229.948 366.053h179.559v25.196h-179.56z"/><path fill="#000" d="M272.424 384.897h1.766q1.234 0 1.89-.5.657-.516.657-1.531 0-1.047-.657-1.453-.656-.422-1.89-.422h-1.766v3.906zm4.438 5.516l-2.532-4.438h-1.906v4.438h-1.328v-10.5h3.281q.797 0 1.469.156.687.156 1.172.515.5.344.765.907.282.547.282 1.375 0 1.234-.641 1.968-.64.735-1.719 1l2.657 4.579h-1.5zm2.827-3.875q0-.954.297-1.72.297-.765.78-1.28.485-.532 1.11-.813.625-.281 1.297-.281.735 0 1.313.265.593.25.984.735.39.469.594 1.14.219.672.219 1.516 0 .422-.047.719h-5.25q.078 1.25.765 2 .703.734 1.828.734.563 0 1.032-.172.468-.172.906-.437l.469.86q-.516.327-1.14.562-.626.234-1.423.234-.781 0-1.469-.281-.687-.281-1.187-.797t-.797-1.266q-.281-.75-.281-1.718zm5.437-.594q0-1.188-.5-1.813-.5-.64-1.422-.64-.406 0-.78.172-.376.156-.688.468-.297.313-.5.766t-.266 1.047h4.156zm3.077-3.313h1.094l.11 1.125h.046q.562-.562 1.172-.937.625-.375 1.437-.375 1.235 0 1.797.765.563.766.563 2.282v4.922h-1.313v-4.75q0-1.11-.36-1.594-.343-.485-1.109-.485-.609 0-1.078.313-.453.297-1.047.89v5.626h-1.312v-7.782zm8.361 5.766q0-1.281 1.141-1.953 1.156-.688 3.656-.953 0-.375-.078-.72-.078-.358-.266-.624-.171-.281-.484-.438-.297-.171-.781-.171-.688 0-1.281.25-.579.25-1.032.578l-.53-.907q.546-.359 1.327-.687.781-.328 1.719-.328 1.437 0 2.078.875.64.875.64 2.328v4.766h-1.093l-.11-.922h-.03q-.563.453-1.22.78-.64.329-1.359.329-1 0-1.656-.562-.64-.579-.64-1.641zm1.297-.094q0 .672.39.969.407.281.97.281.562 0 1.062-.265.516-.266 1.078-.782v-2.156q-.984.125-1.656.313-.672.171-1.078.406-.406.234-.594.547-.172.312-.172.687zm7.958-7.265q-.39 0-.656-.235-.25-.25-.25-.61 0-.39.25-.624.265-.235.656-.235.39 0 .64.235.266.234.266.625 0 .36-.265.61-.25.234-.641.234zm-.672 1.593h1.313v7.782h-1.313v-7.782zm3.733 6.016q.5.422 1.031.687.547.25 1.25.25.766 0 1.14-.343.391-.36.391-.875 0-.313-.156-.532-.156-.218-.406-.39-.25-.172-.578-.297l-.625-.25q-.422-.14-.844-.328-.406-.188-.734-.453-.328-.266-.547-.61-.203-.36-.203-.86 0-.452.187-.858.188-.422.531-.704.344-.296.829-.468.5-.172 1.125-.172.734 0 1.343.265.625.25 1.078.61l-.625.844q-.406-.313-.843-.5-.422-.188-.938-.188-.734 0-1.078.344-.344.328-.344.765 0 .282.14.485.157.187.392.344.234.156.546.28.313.11.657.235.406.172.828.344.437.172.765.437.344.266.547.657.219.375.219.922 0 .484-.187.906-.172.406-.532.734-.36.313-.906.485-.531.187-1.219.187-.828 0-1.578-.297-.75-.312-1.312-.765l.656-.891zm6.704 0q.5.422 1.031.687.547.25 1.25.25.766 0 1.14-.343.391-.36.391-.875 0-.313-.156-.532-.156-.218-.406-.39-.25-.172-.578-.297l-.625-.25q-.422-.14-.844-.328-.406-.188-.734-.453-.328-.266-.547-.61-.203-.36-.203-.86 0-.452.187-.858.188-.422.531-.704.344-.296.829-.468.5-.172 1.125-.172.734 0 1.343.265.625.25 1.078.61l-.625.844q-.406-.313-.843-.5-.422-.188-.938-.188-.734 0-1.078.344-.344.328-.344.765 0 .282.14.485.157.187.392.344.234.156.546.28.313.11.657.235.406.172.828.344.437.172.765.437.344.266.547.657.219.375.219.922 0 .484-.187.906-.172.406-.532.734-.36.313-.906.485-.531.187-1.219.187-.828 0-1.578-.297-.75-.312-1.312-.765l.656-.891zm6.516-.25q0-1.281 1.141-1.953 1.156-.688 3.656-.953 0-.375-.078-.72-.078-.358-.265-.624-.172-.281-.485-.438-.297-.171-.781-.171-.688 0-1.281.25-.578.25-1.032.578l-.53-.907q.546-.359 1.327-.687.782-.328 1.719-.328 1.438 0 2.078.875.64.875.64 2.328v4.766h-1.093l-.11-.922h-.03q-.563.453-1.22.78-.64.329-1.359.329-1 0-1.656-.562-.64-.579-.64-1.641zm1.297-.094q0 .672.39.969.407.281.97.281.562 0 1.062-.265.516-.266 1.078-.782v-2.156q-.984.125-1.656.313-.672.171-1.078.406-.406.234-.594.547-.172.312-.172.687zm7.286-5.672h1.094l.11 1.125h.046q.563-.562 1.172-.937.625-.375 1.437-.375 1.235 0 1.797.765.563.766.563 2.282v4.922h-1.313v-4.75q0-1.11-.36-1.594-.343-.485-1.108-.485-.61 0-1.079.313-.453.297-1.046.89v5.626h-1.313v-7.782zm8.174 3.907q0-.97.297-1.735.312-.765.828-1.281.516-.531 1.187-.797.688-.281 1.438-.281.766 0 1.312.281.563.281.954.64l-.657.86q-.343-.312-.734-.5-.375-.187-.828-.187-.531 0-.985.218-.437.203-.765.61-.313.406-.5.953-.188.547-.188 1.219 0 .671.172 1.218.188.547.5.938.313.39.75.61.453.218.985.218.562 0 1.015-.234.453-.235.797-.563l.594.875q-.516.453-1.172.734-.64.266-1.344.266-.781 0-1.453-.266-.672-.28-1.156-.796-.485-.516-.766-1.266-.281-.766-.281-1.734zm7.296 0q0-.954.297-1.72.297-.765.781-1.28.484-.532 1.11-.813.624-.281 1.296-.281.735 0 1.313.265.594.25.984.735.39.469.594 1.14.219.672.219 1.516 0 .422-.047.719h-5.25q.078 1.25.765 2 .704.734 1.829.734.562 0 1.03-.172.47-.172.907-.437l.469.86q-.516.327-1.14.562-.626.234-1.423.234-.78 0-1.468-.281t-1.188-.797q-.5-.516-.797-1.266-.281-.75-.281-1.718zm5.437-.594q0-1.188-.5-1.813-.5-.64-1.421-.64-.407 0-.782.172-.375.156-.687.468-.297.313-.5.766t-.266 1.047h4.156zm6.434-6.031h3.219q.86 0 1.578.171.719.157 1.219.516.515.36.797.953.28.594.28 1.453 0 .828-.28 1.438-.282.61-.797 1.015-.516.391-1.235.594-.703.203-1.562.203h-1.89v4.157h-1.329v-10.5zm3.063 5.25q1.375 0 2.03-.516.673-.516.673-1.64 0-1.141-.672-1.579-.672-.437-2.031-.437h-1.735v4.172h1.735zm6.028-2.532h1.094l.11 1.407h.046q.39-.735.953-1.157.578-.437 1.25-.437.469 0 .828.156l-.25 1.156q-.187-.062-.359-.093-.156-.032-.39-.032-.5 0-1.032.407-.531.39-.937 1.39v4.985h-1.313v-7.782zm5.162 5.766q0-1.281 1.14-1.953 1.156-.688 3.656-.953 0-.375-.078-.72-.078-.358-.265-.624-.172-.281-.485-.438-.297-.171-.781-.171-.687 0-1.281.25-.578.25-1.031.578l-.532-.907q.547-.359 1.328-.687.782-.328 1.72-.328 1.437 0 2.077.875.64.875.64 2.328v4.766h-1.093l-.11-.922h-.03q-.563.453-1.22.78-.64.329-1.359.329-1 0-1.656-.562-.64-.579-.64-1.641zm1.296-.094q0 .672.391.969.406.281.969.281.562 0 1.062-.265.516-.266 1.078-.782v-2.156q-.984.125-1.656.313-.672.171-1.078.406-.406.234-.594.547-.172.312-.172.687zm6.755 4.25q.125.031.281.063.172.047.313.047.672 0 1.093-.47.422-.468.672-1.187l.172-.578-3.125-7.797h1.36l1.593 4.313q.172.515.375 1.078.203.562.375 1.11h.063q.172-.532.328-1.094.172-.579.328-1.094l1.39-4.313h1.282l-2.922 8.422q-.219.578-.484 1.063-.25.5-.61.859-.343.36-.797.563-.437.218-1.03.218-.266 0-.5-.047-.22-.03-.407-.109l.25-1.047zm7.425-6.015q0-.954.297-1.72.297-.765.781-1.28.485-.532 1.11-.813.625-.281 1.296-.281.735 0 1.313.265.594.25.984.735.39.469.594 1.14.219.672.219 1.516 0 .422-.047.719h-5.25q.078 1.25.766 2 .703.734 1.828.734.562 0 1.03-.172.47-.172.907-.437l.469.86q-.516.327-1.14.562-.626.234-1.423.234-.78 0-1.468-.281t-1.188-.797q-.5-.516-.797-1.266-.281-.75-.281-1.718zm5.438-.594q0-1.188-.5-1.813-.5-.64-1.422-.64-.407 0-.782.172-.375.156-.687.468-.297.313-.5.766t-.266 1.047h4.157zm3.076-3.313h1.094l.11 1.407h.046q.39-.735.953-1.157.578-.437 1.25-.437.47 0 .828.156l-.25 1.156q-.187-.062-.359-.093-.156-.032-.39-.032-.5 0-1.032.407-.531.39-.937 1.39v4.985h-1.313v-7.782z"/><path fill="#fff" d="M65.971 431.858c0-5.337 4.327-9.664 9.664-9.664h333.87a9.664 9.664 0 0 1 9.663 9.664v64.42a9.664 9.664 0 0 1-9.664 9.664H75.634c-5.336 0-9.663-4.326-9.663-9.663z"/><path stroke="#000" stroke-width="2" stroke-linejoin="round" stroke-linecap="butt" d="M65.971 431.858c0-5.337 4.327-9.664 9.664-9.664h333.87a9.664 9.664 0 0 1 9.663 9.664v64.42a9.664 9.664 0 0 1-9.664 9.664H75.634c-5.336 0-9.663-4.326-9.663-9.663z"/><path d="M77.782 428.097h329.575v69.795H77.782z"/><path fill="#000" d="M88.86 443.985h3.969v6.782h6.078v-6.782h4v17.61h-4v-7.344H92.83v7.344h-3.97v-17.61zm16.857 10.907q0-1.672.531-2.97.547-1.312 1.454-2.202.906-.891 2.093-1.36 1.188-.484 2.453-.484 1.282 0 2.454.484 1.171.469 2.078 1.36.906.89 1.437 2.203.547 1.297.547 2.969 0 1.687-.547 3-.531 1.296-1.437 2.187-.907.89-2.078 1.375-1.172.469-2.454.469-1.265 0-2.453-.469-1.187-.484-2.093-1.375-.907-.89-1.454-2.187-.53-1.313-.53-3zm4.078 0q0 1.765.61 2.796.609 1.016 1.843 1.016 1.22 0 1.844-1.016.625-1.03.625-2.796 0-1.75-.625-2.766-.625-1.031-1.844-1.031-1.234 0-1.843 1.03-.61 1.017-.61 2.767zm11.498-6.688h3.25l.265 1.734h.11q.828-.843 1.765-1.453.953-.61 2.281-.61 1.438 0 2.313.579.875.578 1.39 1.672.891-.922 1.876-1.578.984-.672 2.328-.672 2.172 0 3.172 1.453 1.015 1.438 1.015 3.953v8.313h-3.969v-7.797q0-1.469-.39-2-.39-.547-1.25-.547-1 0-2.297 1.297v9.047h-3.969v-7.797q0-1.469-.39-2-.391-.547-1.266-.547-1.016 0-2.266 1.297v9.047h-3.968v-13.391zm22.719 0h3.969v7.797q0 1.469.406 2.016.406.53 1.265.53.75 0 1.266-.343.516-.36 1.11-1.14v-8.86h3.968v13.39h-3.234l-.297-1.859h-.094q-.86 1.016-1.844 1.61-.984.578-2.359.578-2.187 0-3.172-1.422-.984-1.438-.984-3.984v-8.313zm15.266 0h3.25l.265 2.344h.11q.734-1.375 1.75-2.016 1.03-.656 2.062-.656.563 0 .922.078.36.063.656.188l-.64 3.437q-.375-.11-.704-.156-.328-.063-.75-.063-.765 0-1.593.547-.813.531-1.36 1.906v7.782h-3.968v-13.391zm10.124 9.672q0-2.11 1.782-3.297 1.78-1.187 5.75-1.594-.047-.89-.532-1.422-.484-.53-1.562-.53-.875 0-1.735.327-.859.328-1.843.89l-1.39-2.624q1.296-.781 2.702-1.266 1.422-.484 3.016-.484 2.594 0 3.953 1.484 1.36 1.469 1.36 4.563v7.672h-3.235l-.297-1.375h-.078q-.875.75-1.828 1.234-.953.469-2.094.469-.922 0-1.656-.313-.719-.312-1.235-.86-.5-.562-.796-1.28-.282-.735-.282-1.594zm3.782-.297q0 .64.421.953.422.313 1.125.313.704 0 1.188-.297t1.016-.844v-2.344q-2.125.297-2.938.86-.812.562-.812 1.359zm-84.699 15.867h3.828q1.032 0 1.875.203.86.188 1.454.61.609.421.937 1.124.328.704.328 1.735 0 .984-.328 1.719-.328.718-.937 1.187-.61.469-1.454.719-.843.234-1.875.234h-2.25v4.938h-1.578v-12.47zm3.64 6.234q1.626 0 2.407-.61.797-.624.797-1.952 0-1.344-.797-1.86-.797-.53-2.406-.53h-2.063v4.952h2.063zm6.825-3h1.578v5.64q0 1.313.406 1.892.407.578 1.329.578.718 0 1.265-.36.563-.375 1.219-1.187v-6.563h1.562v9.235h-1.296l-.125-1.438h-.063q-.64.75-1.36 1.219-.718.453-1.687.453-1.469 0-2.156-.906-.672-.922-.672-2.703v-5.86zm10.29 0h1.28l.142 1.672h.062q.469-.875 1.14-1.39.673-.516 1.47-.516.562 0 1 .203l-.313 1.36q-.219-.079-.422-.11-.187-.047-.469-.047-.593 0-1.234.485-.625.468-1.11 1.656v5.922h-1.546v-9.235zm6.333 0h1.578v5.64q0 1.313.406 1.892.406.578 1.328.578.719 0 1.266-.36.562-.375 1.219-1.187v-6.563h1.562v9.235h-1.297l-.125-1.438h-.062q-.64.75-1.36 1.219-.718.453-1.687.453-1.469 0-2.156-.906-.672-.922-.672-2.703v-5.86z"/><path fill="#d9d9d9" d="M-8.588 490.617h971.59v54.74H-8.587z"/><path stroke="#000" stroke-width="2" stroke-linejoin="round" stroke-linecap="butt" d="M-8.588 490.617h971.59v54.74H-8.587z"/><path d="M229.948 462.053h179.559v25.196h-179.56z"/><path fill="#000" d="M323.496 475.913h6.047v1.125h-4.719v3.546h4v1.125h-4v4.704h-1.328v-10.5zm7.67 2.718h1.328v4.75q0 1.11.344 1.61.343.484 1.109.484.61 0 1.062-.313.47-.312 1.032-1v-5.53h1.312v7.78h-1.094l-.109-1.218h-.047q-.547.64-1.14 1.031-.594.375-1.422.375-1.235 0-1.813-.766-.562-.765-.562-2.265v-4.938zm9.032 1.078h-1.14v-1l1.202-.078.172-2.172h1.094v2.172h2.094v1.078h-2.094v4.313q0 .734.266 1.125.265.39.937.39.203 0 .438-.062.25-.078.437-.156l.266 1q-.328.11-.703.187-.375.094-.735.094-.625 0-1.062-.188-.422-.187-.688-.515-.25-.344-.375-.828-.11-.485-.11-1.063v-4.297zm5.08-1.078h1.328v4.75q0 1.11.344 1.61.343.484 1.109.484.61 0 1.062-.313.47-.312 1.032-1v-5.53h1.312v7.78h-1.094l-.109-1.218h-.047q-.547.64-1.14 1.031-.594.375-1.422.375-1.235 0-1.813-.766-.562-.765-.562-2.265v-4.938zm8.813 0h1.094l.11 1.407h.046q.39-.735.953-1.157.578-.437 1.25-.437.469 0 .828.156l-.25 1.156q-.187-.062-.359-.093-.156-.032-.39-.032-.5 0-1.032.407-.531.39-.937 1.39v4.985h-1.313v-7.782zm4.974 3.907q0-.954.297-1.72.297-.765.781-1.28.484-.532 1.11-.813.624-.281 1.296-.281.735 0 1.313.265.594.25.984.735.39.469.594 1.14.219.672.219 1.516 0 .422-.047.719h-5.25q.078 1.25.765 2 .704.734 1.829.734.562 0 1.03-.172.47-.172.907-.437l.469.86q-.516.327-1.14.562-.626.234-1.423.234-.78 0-1.468-.281t-1.188-.797q-.5-.516-.797-1.266-.281-.75-.281-1.718zm5.437-.594q0-1.188-.5-1.813-.5-.64-1.421-.64-.407 0-.782.172-.375.156-.687.468-.297.313-.5.766t-.266 1.047h4.156zm6.434-6.031h3.125q.797 0 1.453.156.672.14 1.14.453.47.297.735.781.266.485.266 1.172 0 .781-.453 1.422-.438.625-1.36.875v.062q1.141.172 1.782.797.64.625.64 1.703 0 .782-.297 1.36-.28.562-.812.953-.516.375-1.266.578-.734.188-1.61.188h-3.343v-10.5zm2.875 4.484q1.375 0 1.953-.453.578-.469.578-1.36 0-.859-.625-1.234-.609-.375-1.828-.375h-1.625v3.422h1.547zm.281 4.953q1.36 0 2.11-.5.75-.5.75-1.578 0-.969-.735-1.422-.734-.469-2.125-.469h-1.828v3.969h1.828zm5.737-.953q0-1.281 1.14-1.953 1.156-.688 3.656-.953 0-.375-.078-.72-.078-.358-.265-.624-.172-.281-.485-.438-.297-.171-.781-.171-.687 0-1.281.25-.578.25-1.031.578l-.532-.907q.547-.359 1.328-.687.782-.328 1.72-.328 1.437 0 2.077.875.64.875.64 2.328v4.766h-1.093l-.11-.922h-.03q-.563.453-1.22.78-.64.329-1.359.329-1 0-1.656-.563-.64-.578-.64-1.64zm1.296-.094q0 .672.391.969.406.281.969.281.562 0 1.062-.265.516-.266 1.078-.782v-2.156q-.984.125-1.656.313-.672.171-1.078.406-.406.234-.594.547-.172.312-.172.687zm7.083.344q.5.422 1.031.687.547.25 1.25.25.766 0 1.14-.343.392-.36.392-.875 0-.313-.157-.532-.156-.218-.406-.39-.25-.172-.578-.297l-.625-.25q-.422-.14-.844-.328-.406-.188-.734-.453-.328-.266-.547-.61-.203-.36-.203-.86 0-.452.187-.858.188-.422.532-.704.343-.296.828-.468.5-.172 1.125-.172.734 0 1.343.265.625.25 1.079.61l-.625.844q-.407-.313-.844-.5-.422-.188-.938-.188-.734 0-1.078.344-.344.328-.344.765 0 .282.141.485.156.187.39.344.235.156.548.28.312.11.656.235.406.172.828.344.437.172.766.437.343.266.546.657.22.375.22.922 0 .484-.188.906-.172.406-.532.734-.359.313-.906.485-.531.187-1.219.187-.828 0-1.578-.297-.75-.312-1.312-.765l.656-.891zm6.704 0q.5.422 1.031.687.547.25 1.25.25.766 0 1.141-.343.39-.36.39-.875 0-.313-.156-.532-.156-.218-.406-.39-.25-.172-.578-.297l-.625-.25q-.422-.14-.844-.328-.406-.188-.734-.453-.328-.266-.547-.61-.203-.36-.203-.86 0-.452.187-.858.188-.422.532-.704.343-.296.828-.468.5-.172 1.125-.172.734 0 1.343.265.625.25 1.079.61l-.625.844q-.407-.313-.844-.5-.422-.188-.938-.188-.734 0-1.078.344-.344.328-.344.765 0 .282.141.485.156.187.39.344.235.156.548.28.312.11.656.235.406.172.828.344.437.172.766.437.343.266.546.657.22.375.22.922 0 .484-.188.906-.172.406-.532.734-.359.313-.906.485-.531.187-1.219.187-.828 0-1.578-.297-.75-.312-1.312-.765l.656-.891z"/><path d="M498.561 128.391h329.575v83.748H498.561z"/><path fill="#000" d="M508.999 135.625h6.047v1.125h-4.719v3.547h4v1.125h-4v4.703H509v-10.5zm7.67 2.72h1.328v4.75q0 1.109.344 1.609.343.484 1.109.484.61 0 1.062-.313.47-.312 1.032-1v-5.53h1.312v7.78h-1.094l-.109-1.218h-.047q-.547.64-1.14 1.03-.594.376-1.422.376-1.235 0-1.813-.766-.562-.765-.562-2.265v-4.938zm9.032 1.077h-1.14v-1l1.202-.078.172-2.172h1.094v2.172h2.094v1.078h-2.094v4.313q0 .734.265 1.125.266.39.938.39.203 0 .437-.062.25-.078.438-.156l.266 1q-.329.109-.704.187-.375.094-.734.094-.625 0-1.062-.188-.422-.187-.688-.515-.25-.344-.375-.828-.11-.485-.11-1.063v-4.297zm5.08-1.078h1.328v4.75q0 1.11.344 1.61.343.484 1.109.484.61 0 1.062-.313.47-.312 1.032-1v-5.53h1.312v7.78h-1.094l-.109-1.218h-.047q-.547.64-1.14 1.03-.594.376-1.422.376-1.235 0-1.813-.766-.562-.765-.562-2.265v-4.938zm8.813 0h1.094l.11 1.406h.046q.39-.734.953-1.156.578-.437 1.25-.437.469 0 .828.156l-.25 1.156q-.187-.062-.36-.094-.155-.03-.39-.03-.5 0-1.03.405-.532.391-.938 1.391v4.984h-1.313v-7.78zm4.974 3.906q0-.953.297-1.718.297-.766.781-1.282.484-.53 1.11-.812.624-.281 1.296-.281.735 0 1.313.265.594.25.984.735.39.468.594 1.14.219.672.219 1.516 0 .422-.047.719h-5.25q.078 1.25.765 2 .704.734 1.829.734.562 0 1.03-.172.47-.172.907-.437l.469.859q-.516.328-1.14.563-.626.234-1.423.234-.78 0-1.468-.281-.688-.282-1.188-.797-.5-.516-.797-1.266-.281-.75-.281-1.719zm5.437-.593q0-1.188-.5-1.813-.5-.64-1.421-.64-.407 0-.782.171-.375.157-.687.47-.297.312-.5.765t-.266 1.047h4.156zm6.434-6.032h3.125q.797 0 1.453.157.672.14 1.14.453.47.297.735.781.266.484.266 1.172 0 .781-.453 1.422-.438.625-1.36.875v.062q1.141.172 1.782.797.64.625.64 1.703 0 .782-.297 1.36-.28.562-.812.953-.516.375-1.266.578-.734.187-1.61.187h-3.343v-10.5zm2.875 4.485q1.375 0 1.953-.453.578-.47.578-1.36 0-.86-.625-1.234-.609-.375-1.828-.375h-1.625v3.422h1.547zm.281 4.953q1.36 0 2.11-.5.75-.5.75-1.578 0-.969-.735-1.422-.734-.469-2.125-.469h-1.828v3.969h1.828zm5.736-.953q0-1.281 1.141-1.953 1.156-.688 3.656-.953 0-.375-.078-.72-.078-.359-.265-.624-.172-.281-.485-.438-.297-.172-.781-.172-.688 0-1.281.25-.578.25-1.032.579l-.53-.907q.546-.36 1.327-.687.782-.328 1.72-.328 1.437 0 2.077.875.64.875.64 2.328v4.765h-1.093l-.11-.921h-.03q-.563.453-1.22.78-.64.329-1.359.329-1 0-1.656-.563-.64-.578-.64-1.64zm1.297-.094q0 .672.391.969.406.281.969.281.562 0 1.062-.266.516-.265 1.078-.78v-2.157q-.984.125-1.656.312-.672.172-1.078.407-.406.234-.594.547-.172.312-.172.687zm7.083.344q.5.422 1.031.687.547.25 1.25.25.766 0 1.14-.343.391-.36.391-.875 0-.313-.156-.532-.156-.218-.406-.39-.25-.172-.578-.297l-.625-.25q-.422-.14-.844-.328-.406-.188-.734-.453-.328-.266-.547-.61-.203-.36-.203-.86 0-.452.187-.859.188-.421.531-.703.344-.297.829-.468.5-.172 1.125-.172.734 0 1.343.265.625.25 1.078.61l-.625.843q-.406-.312-.843-.5-.422-.187-.938-.187-.734 0-1.078.344-.344.328-.344.765 0 .282.141.485.156.187.39.343.235.157.547.282.313.109.657.234.406.172.828.344.437.172.765.437.344.266.547.657.22.375.22.921 0 .485-.188.907-.172.406-.532.734-.359.313-.906.484-.531.188-1.219.188-.828 0-1.578-.297-.75-.312-1.312-.766l.656-.89zm6.704 0q.5.422 1.031.687.547.25 1.25.25.766 0 1.14-.343.392-.36.392-.875 0-.313-.157-.532-.156-.218-.406-.39-.25-.172-.578-.297l-.625-.25q-.422-.14-.844-.328-.406-.188-.734-.453-.328-.266-.547-.61-.203-.36-.203-.86 0-.452.187-.859.188-.421.532-.703.343-.297.828-.468.5-.172 1.125-.172.734 0 1.343.265.625.25 1.079.61l-.625.843q-.407-.312-.844-.5-.422-.187-.938-.187-.734 0-1.078.344-.344.328-.344.765 0 .282.141.485.156.187.39.343.235.157.548.282.312.109.656.234.406.172.828.344.437.172.766.437.343.266.546.657.22.375.22.921 0 .485-.188.907-.172.406-.532.734-.359.313-.906.484-.531.188-1.219.188-.828 0-1.578-.297-.75-.312-1.312-.766l.656-.89zm-70.385 15.266h4.703v8.031h7.203v-8.031h4.735v20.86h-4.735v-8.704h-7.203v8.703h-4.703v-20.859zm20.256 12.922q0-1.985.64-3.531.641-1.563 1.704-2.61 1.078-1.062 2.484-1.61 1.406-.562 2.906-.562 1.516 0 2.906.563 1.391.547 2.454 1.61 1.078 1.046 1.718 2.609.64 1.546.64 3.53 0 1.985-.64 3.548-.64 1.547-1.718 2.61-1.063 1.046-2.454 1.608-1.39.563-2.906.563-1.5 0-2.906-.563-1.406-.562-2.484-1.609-1.063-1.062-1.704-2.61-.64-1.562-.64-3.546zm4.828 0q0 2.078.719 3.297.718 1.218 2.187 1.218 1.453 0 2.188-1.218.734-1.219.734-3.297 0-2.078-.734-3.297-.735-1.219-2.188-1.219-1.469 0-2.187 1.219-.72 1.219-.72 3.297zm13.854-7.938h3.843l.313 2.047h.14q.985-.984 2.094-1.703 1.125-.719 2.703-.719 1.688 0 2.72.688 1.046.687 1.655 1.969 1.063-1.094 2.22-1.875 1.171-.782 2.78-.782 2.563 0 3.75 1.72 1.204 1.702 1.204 4.671v9.86h-4.704v-9.25q0-1.72-.468-2.36-.453-.64-1.485-.64-1.187 0-2.718 1.53v10.72h-4.704v-9.25q0-1.72-.468-2.36-.453-.64-1.485-.64-1.218 0-2.687 1.53v10.72h-4.703V164.61zm27.267 0h4.704v9.25q0 1.735.468 2.375.485.641 1.516.641.89 0 1.5-.422t1.312-1.344v-10.5h4.704v15.875h-3.844l-.344-2.203h-.094q-1.03 1.219-2.203 1.906-1.156.688-2.797.688-2.593 0-3.765-1.703-1.157-1.703-1.157-4.703v-9.86zm18.333 0h3.843l.313 2.782h.14q.86-1.625 2.063-2.391 1.219-.766 2.438-.766.671 0 1.109.078.437.079.781.235l-.765 4.062q-.454-.125-.844-.187-.375-.063-.89-.063-.891 0-1.876.641-.969.64-1.61 2.266v9.218h-4.702V164.61zm12.158 11.453q0-2.484 2.109-3.89 2.125-1.422 6.828-1.89-.062-1.063-.64-1.688-.579-.625-1.86-.625-1.031 0-2.062.39-1.016.375-2.157 1.047l-1.671-3.094q1.53-.937 3.203-1.5 1.687-.578 3.578-.578 3.078 0 4.687 1.75 1.625 1.735 1.625 5.407v9.093h-3.843l-.36-1.625h-.094q-1.015.891-2.156 1.453-1.14.563-2.484.563-1.078 0-1.953-.375-.86-.375-1.47-1.016-.608-.656-.952-1.515-.328-.875-.328-1.907zm4.484-.343q0 .765.484 1.14.5.36 1.344.36.828 0 1.406-.344.579-.36 1.22-1v-2.781q-2.532.343-3.5 1.015-.954.672-.954 1.61zm20.541-17.89h6.75v2.5h-3.234v22.53h3.234v2.485h-6.75v-27.516zm10.695 1.796h4.704v8.031h7.203v-8.031h4.734v20.86h-4.734v-8.704h-7.203v8.703h-4.704v-20.859zm23.834 23.234v-22.53h-3.265v-2.5h6.75v27.515h-6.75v-2.485h3.265zm-157.015 10.357h3.828q1.031 0 1.875.203.86.187 1.453.61.61.421.937 1.124.328.703.328 1.734 0 .985-.328 1.72-.328.718-.937 1.187-.61.468-1.453.718-.844.235-1.875.235h-2.25v4.937h-1.578v-12.468zm3.64 6.234q1.625 0 2.406-.61.797-.624.797-1.953 0-1.343-.797-1.859-.796-.531-2.406-.531h-2.062v4.953h2.062zm6.824-3h1.579v5.64q0 1.313.406 1.891.406.578 1.328.578.719 0 1.266-.359.562-.375 1.218-1.188v-6.562h1.563v9.234h-1.297l-.125-1.437h-.063q-.64.75-1.359 1.219-.719.453-1.687.453-1.47 0-2.157-.907-.672-.921-.672-2.703v-5.859zm10.29 0h1.281l.14 1.672h.063q.47-.875 1.141-1.39.672-.516 1.469-.516.562 0 1 .203l-.313 1.36q-.219-.079-.422-.11-.187-.047-.468-.047-.594 0-1.235.484-.625.469-1.11 1.656v5.922h-1.546v-9.234zm6.333 0h1.578v5.64q0 1.313.406 1.891.407.578 1.329.578.718 0 1.265-.359.563-.375 1.219-1.188v-6.562h1.562v9.234h-1.296l-.125-1.437h-.063q-.64.75-1.36 1.219-.718.453-1.687.453-1.469 0-2.156-.907-.672-.921-.672-2.703v-5.859z"/><path fill="#fff" d="M712.483 68.333c0-11.376 9.222-20.598 20.598-20.598h189.607a20.598 20.598 0 0 1 20.598 20.598c0 11.376-9.222 20.599-20.598 20.599H733.08c-11.376 0-20.598-9.223-20.598-20.599z"/><path stroke="#000" stroke-width="2" stroke-linejoin="round" stroke-linecap="butt" d="M712.483 68.333c0-11.376 9.222-20.598 20.598-20.598h189.607a20.598 20.598 0 0 1 20.598 20.598c0 11.376-9.222 20.599-20.598 20.599H733.08c-11.376 0-20.598-9.223-20.598-20.599z"/><path d="M726.315 46.75h174.992v39.497H726.315z"/><path fill="#666" d="M737.065 70.952q.656.703 1.563 1.14.906.422 1.875.422 1.234 0 1.921-.562.688-.563.688-1.469 0-.484-.172-.812-.156-.329-.437-.563-.266-.25-.657-.437-.375-.188-.812-.391l-1.781-.781q-.438-.188-.907-.453-.453-.266-.812-.641-.36-.39-.594-.906-.219-.532-.219-1.22 0-.702.297-1.312.297-.609.813-1.046.531-.454 1.234-.688.719-.25 1.563-.25 1.125 0 2.078.422.953.422 1.61 1.11l-.845 1.03q-.578-.546-1.28-.859-.688-.328-1.563-.328-1.032 0-1.672.484-.64.485-.64 1.344 0 .453.171.781.187.313.484.547.313.235.672.422.36.172.75.328l1.766.75q.531.235 1 .532.484.296.812.687.344.39.547.906.203.516.203 1.203 0 .75-.297 1.391-.296.64-.843 1.125-.547.484-1.328.766-.782.28-1.766.28-1.313 0-2.438-.5-1.125-.5-1.937-1.343l.953-1.11zm9.088-1.875q0-1.14.343-2.047.36-.906.938-1.531.578-.625 1.312-.953.75-.344 1.547-.344.875 0 1.563.312.703.297 1.156.875.469.563.719 1.36.25.797.25 1.797 0 .515-.063.843h-6.234q.11 1.5.922 2.375.828.875 2.156.875.672 0 1.234-.187.563-.203 1.078-.531l.547 1.03q-.61.376-1.36.673-.733.28-1.687.28-.921 0-1.734-.327-.812-.344-1.406-.953-.594-.625-.938-1.516-.343-.89-.343-2.031zm6.453-.703q0-1.422-.594-2.172-.594-.766-1.688-.766-.484 0-.937.203-.438.203-.813.578-.359.36-.593.907-.235.547-.313 1.25h4.938zm3.034 2.906q0-1.516 1.344-2.328 1.36-.813 4.328-1.14 0-.423-.093-.845-.079-.421-.297-.734-.22-.328-.578-.531-.36-.203-.922-.203-.828 0-1.532.312-.687.297-1.234.672l-.625-1.078q.64-.422 1.578-.813.938-.39 2.047-.39 1.703 0 2.453 1.047.766 1.03.766 2.765v5.657h-1.297l-.125-1.11h-.047q-.656.563-1.437.953-.766.39-1.625.39-1.172 0-1.938-.687t-.766-1.937zm1.532-.125q0 .812.468 1.156.47.328 1.141.328.672 0 1.266-.312.609-.313 1.265-.922v-2.563q-1.156.157-1.953.375-.797.204-1.281.485-.484.281-.703.656-.203.375-.203.797zm8.474-6.719h1.28l.141 1.672h.063q.469-.875 1.14-1.39.672-.516 1.47-.516.562 0 1 .203l-.313 1.36q-.219-.079-.422-.11-.188-.047-.469-.047-.594 0-1.234.484-.625.47-1.11 1.657v5.922h-1.546v-9.235zm5.786 4.64q0-1.155.36-2.062.359-.906.968-1.531.61-.625 1.406-.953.813-.328 1.703-.328.922 0 1.578.344.657.328 1.125.765l-.78 1q-.407-.36-.86-.578-.453-.234-1-.234-.625 0-1.156.265-.532.25-.922.735-.375.468-.594 1.125-.219.656-.219 1.453t.203 1.437q.219.64.578 1.11.375.468.907.734.547.25 1.172.25.656 0 1.203-.266.547-.28.953-.671l.703 1.03q-.625.548-1.39.876-.766.328-1.61.328-.906 0-1.703-.328t-1.39-.938q-.579-.625-.907-1.515-.328-.907-.328-2.047zm9.195-8.937h1.546v3.688l-.046 1.906q.656-.625 1.375-1.078.734-.453 1.703-.453 1.453 0 2.125.922.687.906.687 2.687v5.86h-1.562V68.03q0-1.313-.422-1.89-.406-.579-1.328-.579-.72 0-1.282.36-.546.359-1.25 1.062v6.688h-1.546V60.139z"/><path d="M630.91 492.512h314.08v39.496H630.91z"/><path fill="#000" d="M776.605 516.713q.657.703 1.563 1.14.906.423 1.875.423 1.234 0 1.922-.563.687-.562.687-1.469 0-.484-.172-.812-.156-.328-.437-.563-.266-.25-.656-.437-.375-.188-.813-.39l-1.781-.782q-.438-.188-.906-.453-.454-.266-.813-.64-.36-.391-.594-.907-.218-.531-.218-1.219 0-.703.296-1.312.297-.61.813-1.047.531-.453 1.234-.688.72-.25 1.563-.25 1.125 0 2.078.422.953.422 1.61 1.11l-.844 1.03q-.579-.546-1.282-.859-.687-.328-1.562-.328-1.031 0-1.672.485-.64.484-.64 1.343 0 .454.171.782.188.312.485.547.312.234.671.421.36.172.75.329l1.766.75q.531.234 1 .53.484.298.813.688.343.391.546.907.204.515.204 1.203 0 .75-.297 1.39-.297.641-.844 1.125-.547.485-1.328.766t-1.766.281q-1.312 0-2.437-.5-1.125-.5-1.938-1.344l.953-1.109zm9.088-1.875q0-1.14.344-2.047.359-.906.937-1.531.578-.625 1.313-.953.75-.344 1.546-.344.875 0 1.563.313.703.296 1.156.875.469.562.719 1.359.25.797.25 1.797 0 .515-.063.844h-6.234q.11 1.5.922 2.375.828.875 2.156.875.672 0 1.235-.188.562-.203 1.078-.531l.547 1.031q-.61.375-1.36.672-.734.281-1.687.281-.922 0-1.735-.328-.812-.344-1.406-.953-.594-.625-.937-1.516-.344-.89-.344-2.03zm6.453-.703q0-1.422-.594-2.172-.594-.766-1.687-.766-.485 0-.938.204-.437.203-.812.578-.36.36-.594.906-.234.547-.313 1.25h4.938zm3.488-8.234h1.547v11.78q0 .376.125.532.14.156.312.156h.14q.079 0 .204-.047l.219 1.188q-.157.078-.375.11-.203.046-.516.046-.906 0-1.281-.531-.375-.547-.375-1.563v-11.671zm4.07 8.937q0-1.14.343-2.047.36-.906.938-1.531.578-.625 1.312-.953.75-.344 1.547-.344.875 0 1.563.313.703.296 1.156.875.469.562.719 1.359.25.797.25 1.797 0 .515-.063.844h-6.234q.11 1.5.922 2.375.828.875 2.156.875.672 0 1.234-.188.563-.203 1.078-.531l.547 1.031q-.609.375-1.359.672-.734.281-1.688.281-.921 0-1.734-.328-.812-.344-1.406-.953-.594-.625-.938-1.516-.343-.89-.343-2.03zm6.453-.703q0-1.422-.594-2.172-.594-.766-1.688-.766-.484 0-.937.204-.438.203-.813.578-.359.36-.593.906-.235.547-.313 1.25h4.938zm2.8.703q0-1.156.36-2.062.359-.907.968-1.532.61-.625 1.407-.953.812-.328 1.703-.328.922 0 1.578.344.656.328 1.125.765l-.781 1q-.407-.359-.86-.578-.453-.234-1-.234-.625 0-1.156.266-.531.25-.922.734-.375.469-.594 1.125-.218.656-.218 1.453t.203 1.438q.218.64.578 1.109.375.469.906.734.547.25 1.172.25.656 0 1.203-.265.547-.282.953-.672l.703 1.031q-.625.547-1.39.875-.766.328-1.61.328-.906 0-1.703-.328t-1.39-.937q-.579-.625-.907-1.516-.328-.906-.328-2.047zm9.46-3.375h-1.374v-1.172l1.453-.094.187-2.578h1.313v2.578h2.484v1.266h-2.484v5.14q0 .86.312 1.329.313.453 1.11.453.25 0 .53-.078.282-.078.516-.172l.297 1.187q-.375.125-.828.235-.437.11-.875.11-.75 0-1.25-.235t-.812-.625q-.313-.406-.453-.969-.125-.578-.125-1.25v-5.125zm9.997 5.25q.656.703 1.562 1.14.907.423 1.875.423 1.235 0 1.922-.563.688-.562.688-1.469 0-.484-.172-.812-.156-.328-.438-.563-.265-.25-.656-.437-.375-.188-.812-.39l-1.782-.782q-.437-.188-.906-.453-.453-.266-.812-.64-.36-.391-.594-.907-.219-.531-.219-1.219 0-.703.297-1.312.297-.61.812-1.047.532-.453 1.235-.688.719-.25 1.562-.25 1.125 0 2.078.422.954.422 1.61 1.11l-.844 1.03q-.578-.546-1.281-.859-.688-.328-1.563-.328-1.031 0-1.672.485-.64.484-.64 1.343 0 .454.172.782.187.312.484.547.313.234.672.421.36.172.75.329l1.766.75q.53.234 1 .53.484.298.812.688.344.391.547.907.203.515.203 1.203 0 .75-.297 1.39-.297.641-.844 1.125-.546.485-1.328.766-.781.281-1.765.281-1.313 0-2.438-.5-1.125-.5-1.937-1.344l.953-1.109zm9.087-1.875q0-1.14.344-2.047.36-.906.937-1.531.579-.625 1.313-.953.75-.344 1.547-.344.875 0 1.562.313.703.296 1.157.875.468.562.718 1.359.25.797.25 1.797 0 .515-.062.844h-6.235q.11 1.5.922 2.375.828.875 2.157.875.671 0 1.234-.188.562-.203 1.078-.531l.547 1.031q-.61.375-1.36.672-.734.281-1.687.281-.922 0-1.734-.328-.813-.344-1.407-.953-.593-.625-.937-1.516-.344-.89-.344-2.03zm6.453-.703q0-1.422-.593-2.172-.594-.766-1.688-.766-.484 0-.937.204-.438.203-.813.578-.36.36-.594.906-.234.547-.312 1.25h4.937zm3.488-3.938h1.281l.141 1.672h.063q.468-.875 1.14-1.39.672-.516 1.469-.516.562 0 1 .203l-.313 1.36q-.218-.079-.421-.11-.188-.047-.47-.047-.593 0-1.234.485-.625.468-1.109 1.656v5.922h-1.547v-9.235zm5.146 0h1.61l1.75 5.25q.202.672.421 1.36.219.687.438 1.36h.062q.219-.673.422-1.36.219-.688.422-1.36l1.75-5.25h1.531l-3.266 9.235H855.9l-3.312-9.235zm9.353 4.641q0-1.14.344-2.047.359-.906.937-1.531.578-.625 1.313-.953.75-.344 1.547-.344.875 0 1.562.313.703.296 1.156.875.469.562.719 1.359.25.797.25 1.797 0 .515-.062.844h-6.235q.11 1.5.922 2.375.828.875 2.156.875.672 0 1.235-.188.562-.203 1.078-.531l.547 1.031q-.61.375-1.36.672-.734.281-1.687.281-.922 0-1.735-.328-.812-.344-1.406-.953-.594-.625-.937-1.516-.344-.89-.344-2.03zm6.453-.703q0-1.422-.594-2.172-.593-.766-1.687-.766-.485 0-.938.204-.437.203-.812.578-.36.36-.594.906-.234.547-.312 1.25h4.937zm3.488-3.938h1.281l.14 1.672h.063q.469-.875 1.14-1.39.673-.516 1.47-.516.562 0 1 .203l-.313 1.36q-.219-.079-.422-.11-.187-.047-.468-.047-.594 0-1.235.485-.625.468-1.11 1.656v5.922h-1.546v-9.235zm36.763-3.234h7.187v1.328h-5.609v3.922h4.734v1.344h-4.734v4.531h5.797v1.344h-7.375v-12.469zm11.41 7.64l-2.781-4.406h1.687l1.234 2.032q.204.375.422.765.235.391.485.782h.078l.406-.782q.219-.39.438-.765l1.109-2.032h1.64l-2.796 4.579 3 4.656h-1.688l-1.344-2.14-.5-.845q-.25-.421-.515-.812h-.078q-.235.39-.47.812-.233.407-.452.844l-1.25 2.14h-1.64l3.015-4.827zm7.399-6.312q-.454 0-.782-.281-.312-.281-.312-.719 0-.453.312-.719.328-.28.782-.28.453 0 .765.28.313.266.313.72 0 .437-.313.718-.312.281-.765.281zm-.797 1.906h1.547v9.235h-1.547v-9.235zm4.855 1.266h-1.375v-1.172l1.453-.094.187-2.578h1.313v2.578h2.484v1.266h-2.484v5.14q0 .86.312 1.329.313.453 1.11.453.25 0 .531-.078t.516-.172l.297 1.187q-.375.125-.829.235-.437.11-.875.11-.75 0-1.25-.235t-.812-.625q-.313-.406-.453-.969-.125-.578-.125-1.25v-5.125z"/><path fill="#cfe2f3" d="M503.984 301.913a6.583 6.583 0 0 1 6.583-6.582h48.346a6.583 6.583 0 0 1 6.583 6.583v26.33a6.583 6.583 0 0 1-6.583 6.583h-48.346a6.583 6.583 0 0 1-6.583-6.583z"/><path stroke="#000" stroke-width="2" stroke-linejoin="round" stroke-linecap="butt" d="M503.984 301.913a6.583 6.583 0 0 1 6.583-6.582h48.346a6.583 6.583 0 0 1 6.583 6.583v26.33a6.583 6.583 0 0 1-6.583 6.583h-48.346a6.583 6.583 0 0 1-6.583-6.583z"/><path fill="#000" d="M523.496 318.018q.531.547 1.234.89.72.329 1.485.329.969 0 1.515-.438.547-.437.547-1.156 0-.375-.14-.64-.125-.266-.344-.454-.219-.187-.516-.328-.297-.156-.64-.328l-1.407-.61q-.343-.155-.703-.359-.359-.203-.656-.5-.281-.312-.469-.718-.172-.422-.172-.953 0-.563.235-1.032.234-.484.64-.828.422-.36.985-.547.562-.203 1.234-.203.875 0 1.625.344.75.328 1.281.86l-.671.812q-.454-.438-1-.672-.547-.25-1.235-.25-.828 0-1.328.39-.5.376-.5 1.047 0 .36.14.61.141.25.376.437.25.188.531.328.281.141.578.266l1.406.594q.407.187.782.422.375.218.64.53.281.313.438.72.156.406.156.953 0 .578-.234 1.094-.235.515-.672.906-.422.375-1.047.594-.61.218-1.39.218-1.032 0-1.923-.39-.875-.391-1.53-1.078l.75-.86zm7.89-4.14h-1.079v-.938l1.14-.078.157-2.031h1.031v2.03h1.969v1.017h-1.969v4.046q0 .672.25 1.047.25.36.875.36.188 0 .406-.047.235-.063.422-.14l.235.921q-.297.11-.657.188-.343.093-.687.093-.594 0-1-.187-.39-.188-.64-.5-.235-.313-.345-.75-.109-.453-.109-1v-4.031zm4.39 4.39q0-1.203 1.063-1.828 1.078-.64 3.422-.906 0-.344-.078-.672-.063-.328-.235-.578-.172-.266-.453-.422-.281-.156-.734-.156-.657 0-1.203.25-.547.234-.97.53l-.5-.858q.5-.329 1.235-.625.75-.313 1.625-.313 1.344 0 1.938.828.593.813.593 2.172v4.469h-1.015l-.11-.875h-.015q-.531.437-1.14.75-.61.312-1.282.312-.938 0-1.547-.547-.594-.546-.594-1.53zm1.203-.094q0 .641.36.907.375.265.922.265.531 0 1-.25.468-.25 1-.718v-2.032q-.922.125-1.547.297-.625.156-1.016.39-.375.22-.547.516-.172.282-.172.625zm6.864-4.296h-1.078v-.938l1.14-.078.157-2.031h1.03v2.03h1.97v1.017h-1.97v4.046q0 .672.25 1.047.25.36.876.36.187 0 .406-.047.235-.063.422-.14l.234.921q-.296.11-.656.188-.344.093-.687.093-.594 0-1-.187-.391-.188-.641-.5-.234-.313-.344-.75-.11-.453-.11-1v-4.031z"/><path fill="#fff" d="M571.481 301.908a6.586 6.586 0 0 1 6.583-6.585l64.346-.026a6.58 6.58 0 0 1 6.583 6.58v26.33a6.586 6.586 0 0 1-6.583 6.586l-64.346.026a6.58 6.58 0 0 1-6.583-6.58z"/><path stroke="#000" stroke-width="2" stroke-linejoin="round" stroke-linecap="butt" d="M571.481 301.908a6.586 6.586 0 0 1 6.583-6.585l64.346-.026a6.58 6.58 0 0 1 6.583 6.58v26.33a6.586 6.586 0 0 1-6.583 6.586l-64.346.026a6.58 6.58 0 0 1-6.583-6.58z"/><path fill="#000" d="M587.68 314.975h1.657q1.156-.001 1.765-.47.61-.485.61-1.438 0-.984-.61-1.359-.61-.39-1.765-.39h-1.657v3.657zm4.157 5.17l-2.375-4.155h-1.782v4.157h-1.25v-9.843l3.079-.002q.75 0 1.39.14.64.14 1.094.484.453.328.703.86.266.515.266 1.28 0 1.157-.61 1.845-.593.687-1.593.938l2.484 4.296h-1.406zm2.64-1.891q0-1.204 1.062-1.829 1.079-.641 3.422-.908 0-.343-.078-.671-.062-.329-.234-.578-.172-.266-.453-.422-.282-.156-.735-.156-.656 0-1.203.25-.547.235-.969.532l-.5-.86q.5-.327 1.235-.625.75-.312 1.625-.313 1.344 0 1.937.827.594.813.594 2.172v4.469h-1.016l-.109-.875h-.016q-.53.438-1.14.75-.61.314-1.281.314-.938 0-1.547-.546-.594-.547-.594-1.531zm1.203-.095q0 .641.36.906.374.266.921.266.532 0 1-.25.47-.25 1-.72v-2.031q-.922.125-1.547.297-.625.157-1.015.391-.375.22-.547.516-.172.282-.172.625zm6.66-5.315h1.016l.11 1.062h.046q.516-.531 1.094-.875.578-.36 1.344-.36 1.156 0 1.687.718.531.718.531 2.125v4.625h-1.234v-4.453q0-1.031-.328-1.484-.328-.469-1.047-.469-.562 0-1 .298-.437.281-1 .828v5.282h-1.219v-7.297zm8.017-3.394h1.204v7.234h.046l3.11-3.845h1.36l-2.438 2.938 2.78 4.358h-1.358l-2.125-3.514-1.375 1.594v1.922h-1.204V309.45zm7.88 1.888q-.36 0-.61-.219-.25-.218-.25-.562 0-.36.25-.578.25-.22.61-.22t.61.22q.25.218.25.577 0 .344-.25.563-.25.219-.61.219zm-.625 1.5h1.219v7.296h-1.219v-7.296zm3.606-.002h1.015l.11 1.063h.047q.515-.532 1.093-.876.578-.36 1.344-.36 1.156 0 1.688.718.53.719.53 2.125v4.625h-1.234v-4.453q0-1.03-.328-1.484-.328-.469-1.047-.468-.562 0-1 .297-.437.282-1 .829v5.28l-1.218.001v-7.297zm8.532 8.528q0 .578.563.922.562.343 1.562.343.516 0 .938-.125.437-.126.734-.329t.469-.469q.172-.265.172-.562 0-.5-.375-.703-.375-.188-1.11-.187h-1.25q-.218 0-.468-.03-.235-.016-.485-.094-.39.281-.578.594-.172.328-.172.64zm-1.078.157q0-.453.281-.875.297-.422.782-.766v-.063q-.266-.171-.453-.453-.188-.296-.188-.734 0-.469.25-.812.266-.344.547-.532v-.062q-.36-.297-.656-.797-.297-.516-.297-1.172 0-.594.219-1.078.218-.484.593-.813.375-.344.875-.516.516-.187 1.063-.188.297 0 .562.063.266.046.47.109l2.546-.001v.953h-1.5q.25.25.422.641.172.39.172.86 0 .577-.219 1.062-.203.469-.563.797-.359.313-.843.5-.485.172-1.047.173-.266 0-.563-.063-.28-.062-.53-.187-.188.156-.329.36-.14.203-.14.515 0 .344.265.563.281.218 1.031.218h1.406q1.282-.001 1.907.42.64.406.64 1.328 0 .5-.25.954-.25.468-.734.812-.484.344-1.172.548-.672.203-1.531.203-.672 0-1.235-.124-.546-.125-.953-.39-.39-.25-.609-.61-.219-.359-.219-.843zm3.016-4.533q.312 0 .594-.11.28-.124.5-.343.218-.235.328-.547.125-.328.125-.735 0-.812-.453-1.25-.454-.437-1.094-.436-.64 0-1.094.438-.453.437-.453 1.25 0 .406.125.734.125.312.328.547.219.218.5.343.281.11.594.11z"/><path fill="#fff" d="M654.497 301.908a6.583 6.583 0 0 1 6.583-6.582h86.834a6.583 6.583 0 0 1 6.583 6.582v26.33a6.583 6.583 0 0 1-6.583 6.584H661.08a6.583 6.583 0 0 1-6.583-6.583z"/><path stroke="#000" stroke-width="2" stroke-linejoin="round" stroke-linecap="butt" d="M654.497 301.908a6.583 6.583 0 0 1 6.583-6.582h86.834a6.583 6.583 0 0 1 6.583 6.582v26.33a6.583 6.583 0 0 1-6.583 6.584H661.08a6.583 6.583 0 0 1-6.583-6.583z"/><path fill="#000" d="M669.163 310.31h1.25v9.844h-1.25v-9.844zm3.745 2.547h1.016l.11 1.062h.046q.516-.531 1.094-.875.578-.36 1.344-.36 1.156 0 1.687.72.531.718.531 2.125v4.625h-1.234V315.7q0-1.03-.328-1.484-.328-.469-1.047-.469-.562 0-1 .297-.437.281-1 .828v5.282h-1.219v-7.297zm11.299-2.375q-.407-.188-.829-.188-1.015 0-1.015 1.422v1.14h1.547v1.016h-1.547v6.282h-1.235v-6.282h-.984v-.937l.984-.078v-1.141q0-1.125.516-1.766.516-.656 1.61-.656.359 0 .656.078.312.063.562.157l-.265.953zm.451 6.047q0-.922.281-1.625.282-.72.735-1.204.469-.5 1.078-.75.61-.265 1.281-.265.672 0 1.281.265.61.25 1.079.75.468.485.734 1.204.281.703.281 1.625 0 .89-.281 1.609-.266.703-.734 1.203-.47.484-1.079.75-.609.25-1.28.25-.673 0-1.282-.25-.61-.266-1.078-.75-.453-.5-.735-1.203-.28-.719-.28-1.61zm1.281 0q0 .625.141 1.14.156.5.422.875.281.36.672.563.39.203.86.203.468 0 .859-.203.39-.203.656-.563.281-.375.437-.875.157-.515.157-1.14 0-.641-.157-1.157-.156-.515-.437-.89-.266-.375-.656-.578-.391-.204-.86-.204t-.86.204q-.39.203-.671.578-.266.375-.422.89-.14.516-.14 1.157zm7.21-3.672h1.015l.11 1.328h.047q.375-.688.906-1.094.531-.406 1.156-.406.438 0 .781.156l-.234 1.078q-.188-.062-.344-.094-.14-.03-.36-.03-.468 0-.984.374-.5.375-.875 1.297v4.688h-1.218v-7.297zm5.085 0h1.016l.11 1.062h.046q.47-.531 1.032-.875.562-.36 1.234-.36.828 0 1.297.376.484.36.703 1.015.578-.625 1.156-1 .578-.39 1.25-.39 1.125 0 1.672.719.547.718.547 2.125v4.625h-1.234V315.7q0-1.03-.329-1.484-.328-.469-1.015-.469-.828 0-1.828 1.125v5.282h-1.235V315.7q0-1.03-.328-1.484-.328-.469-1.031-.469-.828 0-1.844 1.125v5.282h-1.219v-7.297zm11.791 5.406q0-1.203 1.063-1.828 1.078-.64 3.422-.906 0-.344-.079-.672-.062-.328-.234-.578-.172-.266-.453-.422-.281-.157-.734-.157-.657 0-1.204.25-.546.235-.968.532l-.5-.86q.5-.328 1.234-.625.75-.312 1.625-.312 1.344 0 1.938.828.593.812.593 2.172v4.469h-1.015l-.11-.875h-.015q-.532.437-1.141.75-.61.312-1.281.312-.938 0-1.547-.547-.594-.547-.594-1.531zm1.203-.094q0 .64.36.906.375.266.922.266.53 0 1-.25.468-.25 1-.719v-2.031q-.922.125-1.547.297-.625.156-1.016.39-.375.22-.547.516-.172.281-.172.625zm6.864-4.297h-1.078v-.937l1.14-.078.156-2.032h1.032v2.032h1.968v1.015h-1.968v4.047q0 .672.25 1.047.25.36.875.36.187 0 .406-.047.234-.063.422-.141l.234.922q-.297.11-.656.187-.344.094-.688.094-.593 0-1-.187-.39-.188-.64-.5-.235-.313-.344-.75-.11-.454-.11-1v-4.032zm5.375-2.515q-.359 0-.609-.22-.25-.218-.25-.562 0-.359.25-.578.25-.218.61-.218.359 0 .609.218.25.219.25.578 0 .344-.25.563-.25.219-.61.219zm-.625 1.5h1.22v7.297h-1.22v-7.297zm3.059 3.672q0-.922.281-1.625.281-.72.735-1.204.468-.5 1.078-.75.61-.265 1.281-.265.672 0 1.281.265.61.25 1.078.75.47.485.735 1.204.281.703.281 1.625 0 .89-.281 1.609-.266.703-.735 1.203-.468.484-1.078.75-.61.25-1.281.25-.672 0-1.281-.25-.61-.266-1.078-.75-.454-.5-.735-1.203-.281-.719-.281-1.61zm1.281 0q0 .625.14 1.14.157.5.423.875.281.36.672.563.39.203.859.203t.86-.203q.39-.203.656-.563.28-.375.437-.875.156-.515.156-1.14 0-.641-.156-1.157-.156-.515-.437-.89-.266-.375-.657-.578-.39-.204-.859-.204t-.86.204q-.39.203-.671.578-.266.375-.422.89-.14.516-.14 1.157zm7.21-3.672h1.015l.11 1.062h.046q.516-.531 1.094-.875.578-.36 1.344-.36 1.156 0 1.687.72.532.718.532 2.125v4.625h-1.235V315.7q0-1.03-.328-1.484-.328-.469-1.047-.469-.562 0-1 .297-.437.281-1 .828v5.282h-1.218v-7.297z"/><path fill="#cfe2f3" d="M497.058 328.759h373.606v92.787H497.058z"/><path stroke="#000" stroke-width="2" stroke-linejoin="round" stroke-linecap="butt" d="M497.058 328.759h373.606v92.787H497.058z"/><path fill="#000" d="M516.847 357.514h1.11l3.093 5.36.922 1.765h.047q-.032-.64-.079-1.328-.046-.703-.046-1.39v-4.407h1.015v8.531h-1.11l-3.093-5.375-.922-1.75h-.062q.062.657.11 1.329.046.656.046 1.343v4.453h-1.031v-8.53zm11.764 8.688q-.797 0-1.47-.313-.671-.312-1.155-.89-.485-.579-.75-1.407-.266-.828-.266-1.843 0-1.032.266-1.844.265-.813.75-1.375.484-.578 1.156-.875.672-.297 1.469-.297.812 0 1.484.312.672.297 1.156.875.485.563.75 1.375.266.813.266 1.829 0 1.015-.266 1.843-.265.828-.75 1.407-.484.578-1.156.89-.672.313-1.484.313zm0-.953q.578 0 1.03-.235.47-.25.798-.703.328-.469.515-1.11.188-.656.188-1.452 0-.797-.188-1.438-.187-.64-.515-1.078-.328-.438-.797-.672-.453-.25-1.031-.25-.563 0-1.032.25-.453.234-.796.672-.329.437-.516 1.078-.172.64-.172 1.438 0 .796.172 1.453.187.64.516 1.109.343.453.796.703.47.235 1.032.235zm7.474-6.829h-2.578v-.906h6.25v.906h-2.578v7.625h-1.094v-7.625zm5.379-.906h4.906v.906h-3.828v2.688h3.234v.922h-3.234v3.094h3.969v.921h-5.047v-8.53zm7.055 6.672q.453.484 1.062.781.625.282 1.282.282.843 0 1.312-.375.469-.391.469-1.016 0-.328-.11-.547-.109-.234-.296-.39-.188-.157-.454-.282-.25-.14-.562-.281l-1.219-.531q-.297-.141-.61-.313-.312-.187-.562-.437-.234-.266-.39-.625-.157-.36-.157-.828 0-.485.188-.891.203-.422.562-.719.36-.312.844-.484.5-.172 1.078-.172.766 0 1.407.297.656.297 1.109.765l-.578.704q-.39-.391-.875-.594-.469-.219-1.063-.219-.718 0-1.156.328-.437.328-.437.922 0 .313.125.531.125.203.328.375.218.157.468.282.25.125.5.234l1.22.516q.359.156.671.359.328.203.563.469.234.265.375.625.14.343.14.812 0 .516-.203.953-.203.438-.578.782-.375.328-.906.515-.532.188-1.219.188-.89 0-1.656-.328-.766-.344-1.328-.938l.656-.75zm82.989-4.911q.578 0 1.25-.36.688-.375 1.297-1.25-.156-1.796-.844-2.703-.687-.906-1.843-.906-.438 0-.829.188-.39.187-.671.546-.282.344-.454.844-.156.485-.156 1.078 0 1.188.547 1.875.563.688 1.703.688zm-2.625 3.86q.375.437.89.702.532.266 1.11.266.64 0 1.203-.266.578-.265 1.016-.875.437-.625.703-1.61.266-1 .281-2.452-.562.719-1.328 1.14-.765.407-1.515.407-1.579 0-2.516-.922-.922-.938-.922-2.813 0-.875.281-1.578.282-.719.766-1.234.484-.516 1.14-.797.657-.281 1.376-.281.89 0 1.656.359.781.36 1.344 1.094.562.719.875 1.812.312 1.094.312 2.563 0 1.828-.39 3.11-.376 1.28-1.032 2.093-.64.797-1.469 1.172-.812.375-1.734.375-.969 0-1.703-.36-.719-.375-1.219-.921l.875-.985zm8.929.734h2.78v-8.922h-2.202v-1.016q.828-.14 1.437-.36.625-.218 1.125-.53h1.188v10.828h2.515v1.296h-6.843v-1.296zm12.866.296q.453 0 .828-.187.39-.203.672-.547.28-.36.437-.844.172-.484.172-1.093 0-1.188-.563-1.875-.546-.688-1.687-.688-.563 0-1.234.375-.672.375-1.282 1.219.14 1.797.813 2.719.687.921 1.844.921zm2.484-9.093q-.375-.438-.906-.688-.516-.25-1.078-.25-.641 0-1.22.266-.562.265-1 .875-.437.594-.702 1.578-.266.984-.282 2.422.579-.703 1.329-1.11.765-.406 1.5-.406 1.578 0 2.515.938.953.922.953 2.797 0 .875-.297 1.593-.28.703-.78 1.219-.485.516-1.141.813-.641.28-1.375.28-.891 0-1.657-.359-.765-.375-1.328-1.093-.547-.735-.875-1.828-.328-1.094-.328-2.563 0-1.812.375-3.094.39-1.297 1.031-2.093.657-.813 1.47-1.172.827-.375 1.75-.375.983 0 1.687.375.718.359 1.234.906l-.875.969zm39.685 1.942h2.531q.656 0 1.187.125.547.11.922.36.391.25.594.656.219.39.219.937 0 .64-.36 1.157-.359.515-1.125.703v.062q.938.14 1.454.656.53.5.53 1.375 0 .625-.234 1.094-.234.469-.671.781-.422.313-1.016.47-.594.155-1.313.155h-2.718v-8.53zm2.343 3.64q1.094 0 1.563-.374.484-.375.484-1.094 0-.703-.5-1-.5-.312-1.5-.312h-1.312v2.78h1.265zm.22 4.032q1.109 0 1.718-.406.61-.406.61-1.281 0-.797-.61-1.157-.594-.375-1.719-.375h-1.484v3.219h1.484zm5.274-7.672h4.906v.906h-3.828v2.688h3.234v.922h-3.234v3.094h3.969v.921h-5.047v-8.53zm7.055 6.672q.453.484 1.062.781.625.282 1.282.282.843 0 1.312-.375.469-.391.469-1.016 0-.328-.11-.547-.109-.234-.296-.39-.188-.157-.454-.282-.25-.14-.562-.281l-1.219-.531q-.297-.141-.61-.313-.312-.187-.562-.437-.234-.266-.39-.625-.157-.36-.157-.828 0-.485.188-.891.203-.422.562-.719.36-.312.844-.484.5-.172 1.078-.172.766 0 1.407.297.656.297 1.109.765l-.578.704q-.39-.391-.875-.594-.469-.219-1.063-.219-.718 0-1.156.328-.437.328-.437.922 0 .313.125.531.125.203.328.375.218.157.468.282.25.125.5.234l1.22.516q.359.156.671.359.328.203.563.469.234.265.375.625.14.343.14.812 0 .516-.203.953-.203.438-.578.782-.375.328-.906.515-.532.188-1.219.188-.89 0-1.656-.328-.766-.344-1.328-.938l.656-.75zm8.851-5.766h-2.578v-.906h6.25v.906h-2.578v7.625h-1.094v-7.625zm8.102 5.766q.453.484 1.063.781.625.282 1.28.282.845 0 1.313-.375.47-.391.47-1.016 0-.328-.11-.547-.11-.234-.297-.39-.188-.157-.453-.282-.25-.14-.563-.281l-1.218-.531q-.297-.141-.61-.313-.312-.187-.562-.437-.235-.266-.391-.625-.156-.36-.156-.828 0-.485.187-.891.203-.422.563-.719.36-.312.844-.484.5-.172 1.078-.172.765 0 1.406.297.656.297 1.11.765l-.579.704q-.39-.391-.875-.594-.469-.219-1.062-.219-.72 0-1.157.328-.437.328-.437.922 0 .313.125.531.125.203.328.375.219.157.469.282.25.125.5.234l1.219.516q.359.156.671.359.329.203.563.469.234.265.375.625.14.343.14.812 0 .516-.203.953-.203.438-.578.782-.375.328-.906.515-.531.188-1.219.188-.89 0-1.656-.328-.766-.344-1.328-.938l.656-.75zm6.586-2.406q0-1.031.281-1.844.297-.812.797-1.39.516-.579 1.203-.876.703-.312 1.516-.312.781 0 1.36.328.593.313.968.734l-.61.688q-.343-.375-.75-.578-.406-.219-.952-.219-.61 0-1.11.25-.484.234-.844.688-.343.437-.546 1.078-.188.64-.188 1.422 0 .812.188 1.453.187.64.515 1.109.344.453.828.703.5.235 1.11.235.625 0 1.078-.235.469-.25.875-.703l.61.656q-.5.578-1.141.907-.641.328-1.454.328-.812 0-1.5-.297-.671-.297-1.171-.86-.5-.578-.782-1.39-.28-.828-.28-1.875zm11.251 4.422q-.797 0-1.469-.313-.672-.312-1.156-.89-.484-.579-.75-1.407-.266-.828-.266-1.843 0-1.032.266-1.844.266-.813.75-1.375.484-.578 1.156-.875.672-.297 1.469-.297.812 0 1.484.312.672.297 1.157.875.484.563.75 1.375.265.813.265 1.829 0 1.015-.265 1.843-.266.828-.75 1.407-.485.578-1.157.89-.672.313-1.484.313zm0-.953q.578 0 1.031-.235.469-.25.797-.703.328-.469.516-1.11.187-.656.187-1.452 0-.797-.187-1.438-.188-.64-.516-1.078-.328-.438-.797-.672-.453-.25-1.031-.25-.563 0-1.031.25-.453.234-.797.672-.328.437-.516 1.078-.172.64-.172 1.438 0 .796.172 1.453.188.64.516 1.109.344.453.797.703.468.235 1.031.235zm6.787-3.688h1.422q1.016 0 1.547-.406.531-.406.531-1.25t-.53-1.172q-.532-.344-1.548-.344h-1.422v3.172zm3.594 4.484l-2.047-3.593h-1.547v3.593h-1.078v-8.53h2.656q.657 0 1.204.124.562.125.953.422.406.281.625.734.218.454.218 1.11 0 1-.53 1.61-.516.593-1.391.812l2.171 3.718h-1.234zm3.072-8.53h4.906v.905h-3.828v2.688h3.234v.922h-3.234v3.094h3.969v.921h-5.047v-8.53zm45.725 5.197q.531.547 1.265.969.735.422 1.797.422.547 0 1.032-.203.484-.203.843-.563.36-.36.563-.875.219-.515.219-1.14 0-1.25-.704-1.953-.703-.704-1.875-.704-.625 0-1.078.188-.453.187-1 .562l-.828-.53.39-5.845h6.063v1.36h-4.687l-.328 3.578q.437-.219.875-.344.437-.14.984-.14.781 0 1.469.234.687.219 1.187.687.516.47.813 1.188.297.703.297 1.687 0 .985-.344 1.75-.344.75-.922 1.282-.562.515-1.297.797-.719.28-1.515.28-.735 0-1.329-.155-.593-.141-1.078-.36-.484-.234-.875-.531-.39-.297-.703-.61l.766-1.03zm9.538 1.157h2.78v-8.922h-2.202v-1.016q.828-.14 1.437-.36.625-.218 1.125-.53h1.188v10.828h2.515v1.296h-6.843v-1.296zm8.537.359q1.36-1.36 2.422-2.453 1.063-1.11 1.781-2.047.735-.953 1.11-1.734.375-.797.375-1.532 0-1.047-.578-1.703-.563-.672-1.719-.672-.75 0-1.406.438-.64.422-1.172 1.031l-.89-.89q.75-.844 1.609-1.344.859-.5 2.046-.5 1.704 0 2.672.984.97.969.97 2.578 0 .86-.376 1.735-.375.859-1.031 1.78-.656.923-1.563 1.923-.89.984-1.968 2.109.484-.031 1.015-.062.531-.047 1.016-.047h3.515v1.343h-7.828v-.937zm9.804-1.578q.547.578 1.281 1.015.734.438 1.813.438 1.093 0 1.796-.594.704-.61.704-1.625 0-.531-.204-.984-.187-.453-.64-.766-.453-.328-1.203-.5-.735-.172-1.828-.172v-1.187q.968 0 1.625-.172.656-.172 1.062-.469.422-.312.578-.734.172-.422.172-.89 0-.891-.562-1.407-.547-.516-1.516-.516-.766 0-1.406.344-.625.344-1.188.89l-.828-.984q.703-.672 1.547-1.093.844-.422 1.922-.422.797 0 1.469.203.671.203 1.156.594.484.39.75.968.265.563.265 1.313 0 1.094-.609 1.797-.61.703-1.594 1.078v.078q.547.14 1.016.406.484.25.844.64.359.376.547.891.203.516.203 1.141 0 .797-.313 1.453-.312.64-.86 1.094-.53.437-1.265.687-.719.235-1.547.235-.718 0-1.328-.156-.594-.141-1.094-.375-.484-.235-.875-.532-.39-.312-.687-.656l.797-1.031zm9.21.062q.53.547 1.265.969.734.422 1.797.422.547 0 1.031-.203.485-.203.844-.563.36-.36.562-.875.22-.515.22-1.14 0-1.25-.704-1.953-.703-.704-1.875-.704-.625 0-1.078.188-.453.187-1 .562l-.828-.53.39-5.845h6.063v1.36h-4.688l-.328 3.578q.438-.219.875-.344.438-.14.985-.14.78 0 1.468.234.688.219 1.188.687.516.47.812 1.188.297.703.297 1.687 0 .985-.343 1.75-.344.75-.922 1.282-.563.515-1.297.797-.719.28-1.516.28-.734 0-1.328-.155-.594-.141-1.078-.36-.484-.234-.875-.531-.39-.297-.703-.61l.765-1.03zm9.537 1.157h2.781v-8.922h-2.203v-1.016q.828-.14 1.438-.36.625-.218 1.125-.53h1.187v10.828h2.516v1.296h-6.844v-1.296zm-155.486 25.645h1.265l1.657 4.578.625 1.75h.046l.61-1.75 1.625-4.578h1.281v8.531h-1.031v-4.687q0-.578.047-1.266.047-.687.093-1.265h-.046l-.688 1.906-1.64 4.453h-.61l-1.656-4.453-.672-1.906h-.047q.031.578.078 1.265.063.688.063 1.266v4.687h-1v-8.53zm13.314 5.063l-.406-1.297q-.234-.719-.437-1.422-.204-.719-.422-1.453h-.047q-.203.734-.406 1.453-.204.703-.438 1.422l-.406 1.297h2.562zm.266.875h-3.094l-.828 2.593h-1.11l2.891-8.53h1.219l2.89 8.53h-1.156l-.812-2.593zm4.86-1.813l-2.313-4.125h1.203l1.157 2.188q.171.297.312.578.156.281.344.656h.062q.172-.375.313-.656.14-.281.297-.578l1.125-2.188h1.14l-2.328 4.172 2.485 4.36h-1.188l-1.25-2.297q-.172-.313-.344-.641-.172-.344-.39-.734h-.047q-.188.39-.36.734-.156.328-.312.64l-1.234 2.297h-1.157l2.485-4.406zm7.53.14q0-1.03.28-1.843.297-.812.797-1.39.516-.579 1.204-.876.703-.312 1.515-.312.781 0 1.36.328.593.313.968.734l-.61.688q-.343-.375-.75-.578-.405-.219-.952-.219-.61 0-1.11.25-.484.234-.843.688-.344.437-.547 1.078-.188.64-.188 1.422 0 .812.188 1.453.187.64.515 1.109.344.453.829.703.5.235 1.109.235.625 0 1.078-.235.469-.25.875-.703l.61.656q-.5.578-1.141.907-.64.328-1.453.328-.813 0-1.5-.297-.672-.297-1.172-.86-.5-.578-.781-1.39-.282-.828-.282-1.875zm11.25 4.423q-.797 0-1.468-.313-.672-.312-1.157-.89-.484-.579-.75-1.407-.265-.828-.265-1.843 0-1.032.265-1.844.266-.813.75-1.375.485-.578 1.157-.875.671-.297 1.468-.297.813 0 1.485.312.672.297 1.156.875.484.563.75 1.375.266.813.266 1.829 0 1.015-.266 1.843-.266.828-.75 1.407-.484.578-1.156.89-.672.313-1.485.313zm0-.953q.578 0 1.032-.235.468-.25.796-.703.329-.469.516-1.11.188-.656.188-1.452 0-.797-.188-1.438-.187-.64-.516-1.078-.328-.438-.796-.672-.454-.25-1.032-.25-.562 0-1.031.25-.453.234-.797.672-.328.437-.515 1.078-.172.64-.172 1.438 0 .796.172 1.453.187.64.515 1.109.344.453.797.703.469.235 1.031.235zm5.71-7.735h1.265l1.656 4.578.625 1.75h.047l.61-1.75 1.625-4.578h1.28v8.531h-1.03v-4.687q0-.578.046-1.266.047-.687.094-1.265h-.047l-.687 1.906-1.64 4.453h-.61l-1.656-4.453-.672-1.906h-.047q.031.578.078 1.265.062.688.062 1.266v4.687h-1v-8.53zm9.689 0h2.531q.657 0 1.188.125.547.11.922.36.39.25.593.656.22.39.22.937 0 .64-.36 1.157-.36.515-1.125.703v.062q.937.14 1.453.656.531.5.531 1.375 0 .625-.234 1.094-.235.469-.672.781-.422.313-1.016.47-.593.155-1.312.155h-2.719v-8.53zm2.344 3.64q1.094 0 1.562-.374.485-.375.485-1.094 0-.703-.5-1-.5-.312-1.5-.312h-1.313v2.78h1.266zm.219 4.032q1.109 0 1.718-.406.61-.406.61-1.281 0-.797-.61-1.157-.593-.375-1.718-.375h-1.485v3.219h1.485zm8.415 1.016q-.797 0-1.47-.313-.671-.312-1.155-.89-.485-.579-.75-1.407-.266-.828-.266-1.843 0-1.032.266-1.844.265-.813.75-1.375.484-.578 1.156-.875.672-.297 1.469-.297.812 0 1.484.312.672.297 1.156.875.485.563.75 1.375.266.813.266 1.829 0 1.015-.266 1.843-.265.828-.75 1.407-.484.578-1.156.89-.672.313-1.484.313zm0-.953q.578 0 1.03-.235.47-.25.798-.703.328-.469.515-1.11.188-.656.188-1.452 0-.797-.188-1.438-.187-.64-.515-1.078-.328-.438-.797-.672-.453-.25-1.031-.25-.563 0-1.032.25-.453.234-.797.672-.328.437-.515 1.078-.172.64-.172 1.438 0 .796.172 1.453.187.64.515 1.109.344.453.797.703.469.235 1.032.235zm73.142-2.599q.547.578 1.281 1.015.734.438 1.813.438 1.093 0 1.796-.594.703-.61.703-1.625 0-.531-.203-.984-.187-.453-.64-.766-.453-.328-1.203-.5-.735-.172-1.829-.172v-1.187q.97 0 1.625-.172.657-.172 1.063-.469.422-.312.578-.734.172-.422.172-.89 0-.891-.563-1.407-.546-.516-1.515-.516-.766 0-1.406.344-.625.344-1.188.89l-.828-.984q.703-.672 1.547-1.093.844-.422 1.922-.422.797 0 1.468.203.672.203 1.157.594.484.39.75.968.265.563.265 1.313 0 1.094-.609 1.797-.61.703-1.594 1.078v.078q.547.14 1.016.406.484.25.844.64.359.376.546.891.204.516.204 1.141 0 .797-.313 1.453-.312.64-.86 1.094-.53.437-1.265.687-.719.235-1.547.235-.719 0-1.328-.156-.594-.141-1.094-.375-.484-.235-.875-.532-.39-.312-.687-.656l.797-1.031zm13.756-2.078v-3.516q0-.5.016-1.172.031-.672.078-1.172h-.078q-.234.438-.484.86-.235.422-.5.859l-2.844 4.14h3.812zm3.125 1.25h-1.64v3.343h-1.485v-3.343h-5.453v-1.032l5.188-7.75h1.75v7.532h1.64v1.25zm1.866 2.047h2.781v-8.922h-2.203v-1.016q.828-.14 1.438-.36.625-.218 1.125-.53h1.187v10.828h2.516v1.296h-6.844v-1.296z"/><path d="M508.013 294.249h367.653v25.196H508.013z"/><path fill="#000" d="M814.219 316.187q-.125.422-.375.906H812.5q-.313.422-.75.734v1.36q-.469.234-.89.375l-.954-.97q-.25.048-.531.048-.266 0-.516-.047l-.968.969q-.407-.14-.875-.375v-1.36q-.422-.297-.766-.734h-1.328q-.266-.469-.375-.906l.953-.938q-.031-.25-.031-.547 0-.25.03-.515l-.952-.953q.11-.422.375-.891h1.328q.328-.422.766-.75v-1.344q.468-.265.875-.375l.968.953q.25-.03.516-.03.281 0 .531.03l.953-.953q.422.11.89.375v1.344q.454.328.75.75h1.345q.25.469.375.89l-.953.954q.03.265.03.515 0 .297-.03.547l.953.938zm-4.844 1.765q1.328 0 2.281-.984.953-.984.953-2.266 0-1.297-.968-2.265-.97-.97-2.266-.97-1.281 0-2.266.985-.968.97-.968 2.25 0 1.313.968 2.282.985.968 2.266.968zm.797-2.437q-.344.344-.797.344-.453 0-.797-.344-.328-.344-.328-.813 0-.468.328-.797.344-.328.797-.328.469 0 .797.328.344.329.344.797 0 .47-.344.813zm12.952 3.281q-.938 0-1.72-.36-.765-.374-1.327-1.03-.547-.672-.86-1.626-.296-.953-.296-2.14 0-1.188.296-2.125.313-.938.86-1.578.562-.657 1.328-1 .781-.344 1.719-.344.922 0 1.687.36.781.343 1.344 1 .562.64.86 1.577.312.938.312 2.11 0 1.187-.313 2.14-.297.954-.86 1.625-.562.657-1.343 1.032-.765.359-1.687.359zm0-1.11q.656 0 1.187-.28.531-.282.906-.813.391-.531.594-1.266.219-.75.219-1.687 0-.906-.219-1.64-.203-.735-.594-1.25-.375-.516-.906-.782-.531-.281-1.187-.281-.672 0-1.203.28-.532.267-.922.782-.375.516-.594 1.25-.203.735-.203 1.64 0 .938.203 1.688.219.735.594 1.266.39.531.922.812.53.282 1.203.282zm7.2 1.532v2.469h-1.218v-10.375h1.015l.11.843h.046q.485-.421 1.079-.718.593-.297 1.234-.297.719 0 1.25.265.547.266.906.75.36.485.547 1.172.188.672.188 1.532 0 .937-.266 1.671-.25.72-.688 1.235-.437.5-1.015.765-.563.266-1.188.266-.515 0-1.015-.219-.5-.234-1-.625l.015 1.266zm0-2.234q.5.421.969.593t.828.172q.438 0 .813-.203.39-.203.672-.562.28-.375.437-.907.156-.547.156-1.218 0-.594-.11-1.094-.093-.5-.327-.844-.235-.36-.61-.547-.359-.203-.875-.203-.468 0-.937.266-.469.25-1.016.734v3.813zm7.119-4.657h-1.078v-.937l1.14-.078.157-2.032h1.03v2.032h1.97v1.015h-1.97v4.047q0 .672.25 1.047.25.36.876.36.187 0 .406-.047.234-.063.422-.141l.234.922q-.297.11-.656.187-.344.094-.687.094-.594 0-1-.187-.391-.188-.641-.5-.234-.313-.344-.75-.11-.454-.11-1v-4.032zm5.376-2.515q-.36 0-.61-.22-.25-.218-.25-.562 0-.359.25-.578.25-.218.61-.218.359 0 .609.218.25.219.25.578 0 .344-.25.563-.25.219-.61.219zm-.625 1.5h1.218v7.297h-1.218v-7.297zm3.058 3.672q0-.922.281-1.625.282-.72.735-1.204.468-.5 1.078-.75.61-.265 1.281-.265.672 0 1.281.265.61.25 1.078.75.47.485.735 1.204.281.703.281 1.625 0 .89-.281 1.609-.266.703-.735 1.203-.468.484-1.078.75-.609.25-1.28.25-.673 0-1.282-.25-.61-.266-1.078-.75-.453-.5-.735-1.203-.28-.719-.28-1.61zm1.281 0q0 .625.141 1.14.156.5.422.875.281.36.672.563.39.203.86.203.468 0 .858-.203.391-.203.657-.563.281-.375.437-.875.156-.515.156-1.14 0-.641-.156-1.157-.156-.515-.437-.89-.266-.375-.657-.578-.39-.204-.859-.204t-.86.204q-.39.203-.671.578-.266.375-.422.89-.14.516-.14 1.157zm7.21-3.672h1.015l.11 1.062h.047q.515-.531 1.093-.875.578-.36 1.344-.36 1.156 0 1.688.72.53.718.53 2.125v4.625h-1.234v-4.454q0-1.03-.328-1.484-.328-.469-1.047-.469-.562 0-1 .297-.437.281-1 .828v5.282h-1.218v-7.297zm7.814 5.64q.484.39.984.64.5.235 1.172.235.719 0 1.078-.328.36-.328.36-.812 0-.282-.157-.485-.156-.218-.39-.375-.22-.156-.532-.281-.297-.125-.594-.234-.39-.141-.78-.313-.391-.172-.704-.422-.297-.25-.5-.578-.187-.328-.187-.797 0-.422.171-.797.172-.39.485-.671.328-.282.797-.438.468-.156 1.047-.156.687 0 1.265.25.578.234 1 .578l-.578.781q-.375-.297-.781-.469-.406-.187-.89-.187-.688 0-1.016.328-.313.313-.313.734 0 .25.125.438.14.187.36.328.234.14.515.266.297.109.61.218.39.157.78.329.407.156.72.406.328.25.53.61.204.359.204.859 0 .453-.188.843-.172.39-.515.688-.328.297-.828.469-.5.187-1.141.187-.781 0-1.5-.281-.703-.297-1.219-.735l.61-.828z"/><path fill="#fff" d="M514.72 226.034a8.588 8.588 0 0 1 8.587-8.588h46.163a8.588 8.588 0 0 1 8.588 8.588v44.62a8.588 8.588 0 0 1-8.588 8.587h-46.163a8.588 8.588 0 0 1-8.588-8.587z"/><path stroke="#6aa84f" stroke-width="2" stroke-linejoin="round" stroke-linecap="butt" d="M514.72 226.034a8.588 8.588 0 0 1 8.587-8.588h46.163a8.588 8.588 0 0 1 8.588 8.588v44.62a8.588 8.588 0 0 1-8.588 8.587h-46.163a8.588 8.588 0 0 1-8.588-8.587z"/><path d="M514.72 218.756h63.338v50.236h-63.339z"/><path fill="#6aa84f" d="M546.831 255.335q1.063 0 1.813-.78.75-.782.75-2.516 0-1.625-.75-2.282-.75-.656-1.907-.656-.765 0-1.562.453-.797.438-1.5 1.563.156 1.218.469 2.015.328.797.734 1.297.422.5.922.703.5.203 1.031.203zm4.094-12.312q-.531-.578-1.406-1-.86-.438-1.75-.438-.844 0-1.579.329-.734.312-1.296 1.062-.547.75-.907 1.969-.343 1.219-.422 2.969.391-.516.907-.907.515-.406 1.047-.672.546-.28 1.093-.421.547-.141 1.032-.141 1.312 0 2.406.39 1.11.376 1.922 1.141.812.766 1.265 1.953.453 1.188.453 2.782 0 1.609-.546 2.859-.547 1.234-1.47 2.14-.905.891-2.14 1.36-1.219.469-2.61.469-1.468 0-2.859-.578-1.39-.579-2.468-1.797-1.063-1.22-1.703-3.125-.641-1.907-.641-4.594 0-2.844.687-4.922.688-2.078 1.813-3.422 1.14-1.344 2.625-2 1.5-.656 3.094-.656 2.015 0 3.484.719 1.484.718 2.438 1.718l-2.47 2.813z"/><path fill="#3d85c6" d="M594.72 226.034a8.588 8.588 0 0 1 8.587-8.588h46.163a8.588 8.588 0 0 1 8.588 8.588v44.62a8.588 8.588 0 0 1-8.588 8.587h-46.163a8.588 8.588 0 0 1-8.588-8.587z"/><path stroke="#3d85c6" stroke-width="2" stroke-linejoin="round" stroke-linecap="butt" d="M594.72 226.034a8.588 8.588 0 0 1 8.587-8.588h46.163a8.588 8.588 0 0 1 8.588 8.588v44.62a8.588 8.588 0 0 1-8.588 8.587h-46.163a8.588 8.588 0 0 1-8.588-8.587z"/><path d="M594.72 218.756h63.338v50.236h-63.339z"/><path fill="#fff" d="M623.315 252.742q0 1.343.922 2.109.938.75 2.219.75 1.188 0 1.953-.625.766-.625.766-1.906 0-.672-.313-1.156-.297-.485-.875-.875-.578-.407-1.36-.75-.78-.36-1.75-.766-.671.64-1.124 1.469-.438.828-.438 1.75zm4.329-6.11q1.234-1.437 1.234-2.968 0-1.188-.656-1.907-.657-.718-1.797-.718-.938 0-1.61.578-.671.578-.671 1.75 0 1.25.953 1.953.968.703 2.547 1.312zm-8.36 6.657q0-1.86 1-3.032 1.016-1.187 2.453-1.953v-.125q-1.187-.906-1.953-2.031-.765-1.14-.765-2.781 0-1.282.484-2.313.484-1.047 1.344-1.781.859-.734 2.062-1.11 1.203-.39 2.61-.39 1.375 0 2.515.406 1.156.39 1.953 1.11.813.718 1.25 1.765.453 1.031.453 2.281 0 1.485-.796 2.625-.797 1.125-1.86 1.829v.125q1.469.796 2.485 2.046 1.03 1.25 1.03 3.266 0 1.219-.515 2.25-.5 1.016-1.453 1.766-.937.75-2.266 1.187-1.328.438-2.953.438-1.547 0-2.843-.407-1.297-.406-2.235-1.14-.937-.735-1.469-1.75-.53-1.031-.53-2.281zm55.436-27.255a8.588 8.588 0 0 1 8.587-8.588h46.163a8.588 8.588 0 0 1 8.588 8.588v44.62a8.588 8.588 0 0 1-8.588 8.587h-46.163a8.588 8.588 0 0 1-8.588-8.587z"/><path stroke="#b45f06" stroke-width="2" stroke-linejoin="round" stroke-linecap="butt" d="M674.72 226.034a8.588 8.588 0 0 1 8.587-8.588h46.163a8.588 8.588 0 0 1 8.588 8.588v44.62a8.588 8.588 0 0 1-8.588 8.587h-46.163a8.588 8.588 0 0 1-8.588-8.587z"/><path d="M674.72 218.756h63.338v50.236h-63.339z"/><path fill="#b45f06" d="M691.727 254.664h4.422v-11.735h-3.813v-2.922q1.672-.312 2.813-.765 1.156-.453 2.25-1.078h3.453v16.5h3.812v3.812h-12.937v-3.812zm23.115 4.203q-1.641 0-2.985-.688-1.344-.687-2.297-2.031-.937-1.36-1.468-3.328-.516-1.985-.516-4.578 0-2.594.516-4.547.53-1.953 1.468-3.281.953-1.329 2.297-1.985 1.344-.656 2.985-.656 1.625 0 2.968.656 1.344.656 2.282 1.985.953 1.328 1.484 3.28.531 1.954.531 4.548 0 2.593-.531 4.578-.531 1.969-1.484 3.328-.938 1.344-2.282 2.031-1.343.688-2.968.688zm0-3.657q.609 0 1.109-.296.516-.313.89-1.11.391-.797.594-2.14.219-1.344.219-3.422 0-2.078-.219-3.407-.203-1.328-.593-2.078-.375-.765-.891-1.047-.5-.296-1.11-.296-.578 0-1.093.296-.516.282-.906 1.047-.375.75-.61 2.078-.219 1.329-.219 3.407 0 2.078.22 3.422.234 1.343.609 2.14.39.797.906 1.11.515.296 1.094.296z"/><path fill="#fff" d="M754.72 226.034a8.588 8.588 0 0 1 8.587-8.588h46.163a8.588 8.588 0 0 1 8.588 8.588v44.62a8.588 8.588 0 0 1-8.588 8.587h-46.163a8.588 8.588 0 0 1-8.588-8.587z"/><path stroke="#c00" stroke-width="2" stroke-linejoin="round" stroke-linecap="butt" d="M754.72 226.034a8.588 8.588 0 0 1 8.587-8.588h46.163a8.588 8.588 0 0 1 8.588 8.588v44.62a8.588 8.588 0 0 1-8.588 8.587h-46.163a8.588 8.588 0 0 1-8.588-8.587z"/><path d="M754.72 218.756h63.338v50.236h-63.339z"/><path fill="#c00" d="M771.727 254.664h4.422v-11.735h-3.813v-2.922q1.672-.312 2.813-.765 1.156-.453 2.25-1.078h3.453v16.5h3.812v3.812h-12.937v-3.812zm15.849 1.125q1.953-1.829 3.562-3.407 1.625-1.593 2.782-2.984 1.172-1.39 1.828-2.578.656-1.203.656-2.297 0-1.5-.766-2.281-.765-.797-2.109-.797-1.125 0-2 .625-.86.625-1.625 1.469l-2.562-2.532q1.515-1.61 3.078-2.422 1.562-.812 3.75-.812 1.5 0 2.734.469 1.234.453 2.125 1.312.89.844 1.375 2.031.484 1.172.484 2.657 0 1.28-.546 2.609-.547 1.328-1.47 2.656-.905 1.328-2.077 2.657-1.157 1.328-2.407 2.593.766-.093 1.704-.172.953-.078 1.687-.078h4.094v3.969h-14.297v-2.687z"/><path fill="#000" d="M516.847 389.514h2.531q.656 0 1.187.125.547.11.922.36.391.25.594.656.219.39.219.937 0 .64-.36 1.157-.359.515-1.125.703v.062q.938.14 1.454.656.53.5.53 1.375 0 .625-.234 1.094-.234.469-.671.781-.422.313-1.016.47-.594.155-1.313.155h-2.718v-8.53zm2.343 3.64q1.094 0 1.563-.374.484-.375.484-1.094 0-.703-.5-1-.5-.312-1.5-.312h-1.312v2.78h1.265zm.22 4.032q1.109 0 1.718-.406.61-.406.61-1.281 0-.797-.61-1.157-.594-.375-1.719-.375h-1.484v3.219h1.484zm5.274-7.672h2.609q.703 0 1.281.14.594.126 1 .423.407.28.625.765.235.485.235 1.188 0 .672-.235 1.172-.218.484-.64.812-.407.328-.985.5-.578.156-1.281.156h-1.531v3.375h-1.078v-8.53zm2.484 4.266q1.11 0 1.64-.422.548-.422.548-1.328 0-.922-.547-1.281-.532-.36-1.641-.36h-1.406v3.39h1.406zm5.193-4.266h1.265l1.657 4.578.625 1.75h.046l.61-1.75 1.625-4.578h1.281v8.531h-1.031v-4.687q0-.578.047-1.266.047-.687.093-1.265h-.046l-.688 1.906-1.64 4.453h-.61l-1.656-4.453-.672-1.906h-.047q.031.578.078 1.265.063.688.063 1.266v4.687h-1v-8.53zm95.929 6.355h2.781v-8.922h-2.203v-1.016q.828-.14 1.438-.36.625-.218 1.125-.53h1.187v10.828h2.516v1.296h-6.844v-1.296zm9.96-1.954q0 .516.187.938.203.406.547.734.36.313.828.485.485.156 1.032.156 1.078 0 1.718-.578.657-.594.657-1.547 0-.578-.266-1-.266-.422-.719-.734-.453-.313-1.062-.563-.594-.266-1.235-.531-.718.5-1.203 1.156-.484.656-.484 1.484zm3.422-3.359q.61-.547.937-1.156.328-.61.328-1.281 0-.907-.547-1.516-.546-.625-1.562-.625-.86 0-1.406.531-.547.531-.547 1.422 0 .547.219.938.234.39.625.703.39.297.89.53.5.235 1.063.454zm-4.828 3.516q0-.594.187-1.094.203-.5.516-.906.328-.422.734-.735.406-.312.844-.531v-.078q-.672-.484-1.188-1.156-.5-.672-.5-1.641 0-.703.266-1.266.266-.578.719-.984.453-.406 1.078-.625.625-.234 1.375-.234.797 0 1.422.234.625.234 1.062.672.453.422.688 1.016.25.593.25 1.296 0 .485-.172.922-.156.438-.406.813-.235.375-.532.687-.28.297-.562.516v.062q.39.235.765.532.391.297.672.672.297.359.47.843.187.469.187 1.078 0 .688-.282 1.282-.28.578-.797 1.015-.515.438-1.234.688-.719.25-1.594.25-.86 0-1.593-.25-.72-.25-1.25-.688-.516-.453-.829-1.062-.296-.61-.296-1.328zm13.225 3.328q-1.844 0-2.875-1.64-1.016-1.641-1.016-4.688 0-3.063 1.016-4.657 1.031-1.593 2.875-1.593 1.828 0 2.844 1.593 1.03 1.594 1.03 4.657 0 3.047-1.03 4.687-1.016 1.64-2.844 1.64zm0-1.266q.531 0 .953-.281.437-.297.75-.906.312-.625.484-1.578.172-.97.172-2.297 0-1.328-.172-2.282-.172-.953-.484-1.546-.313-.61-.75-.891-.422-.281-.953-.281-.531 0-.969.28-.437.282-.75.892-.312.593-.484 1.546-.172.954-.172 2.282 0 2.656.656 3.859.656 1.203 1.719 1.203z"/><path fill="#f3f3f3" d="M828 132.501h47.654v46.016H828z"/><path fill="#93c47d" d="M836.501 155.244h7.874V140h15.748v15.244h7.874l-15.748 15.244z"/><path fill="#000" fill-opacity=".654" d="M739.501 194.738a3.48 3.48 0 0 1 3.48-3.48h78.095l28.925-16.757 6.036 16.756h19.827a3.48 3.48 0 0 1 3.48 3.48v13.921a3.48 3.48 0 0 1-3.48 3.481H742.982a3.48 3.48 0 0 1-3.48-3.48v-13.921z"/><path fill="#fff" d="M753.529 198.22h1.812q1.672 0 2.531.921.875.922.875 2.657 0 .859-.218 1.53-.22.673-.657 1.141-.422.47-1.047.72t-1.437.25h-1.86v-7.22zm1.75 6.468q1.265 0 1.89-.75.64-.765.64-2.14t-.64-2.094q-.625-.735-1.89-.735h-.829v5.72h.829zm4.319-1.906q0-.672.203-1.188.203-.53.547-.89.344-.375.781-.563.453-.187.953-.187.485 0 .922.187.453.188.797.563.344.36.547.89.203.516.203 1.188 0 .656-.203 1.187-.203.516-.547.875-.344.36-.797.547-.437.172-.922.172-.5 0-.953-.172-.437-.187-.781-.547-.344-.359-.547-.875-.203-.53-.203-1.187zm.937 0q0 .453.11.828.11.375.312.656.203.266.485.422.296.14.64.14.344 0 .625-.14.281-.156.485-.422.203-.281.312-.656.11-.375.11-.828 0-.469-.11-.844-.11-.39-.312-.656-.204-.281-.485-.422-.281-.156-.625-.156t-.64.156q-.282.14-.485.422-.203.266-.312.656-.11.375-.11.844zm4.604-2.688h.922l.797 3.094.156.75q.078.36.157.735h.046q.094-.375.172-.735l.188-.75.828-3.094h.875l.844 3.094.187.75q.094.36.188.735h.047q.078-.375.156-.735.078-.375.172-.75l.78-3.094h.86l-1.437 5.344h-1.094l-.781-2.875-.188-.75q-.078-.375-.172-.781h-.046q-.079.406-.172.781-.094.375-.203.766l-.735 2.86h-1.062l-1.485-5.345zm8.292 0h.75l.078.766h.032q.375-.39.796-.64.422-.266.985-.266.86 0 1.25.531t.39 1.563v3.39h-.906v-3.265q0-.766-.25-1.094-.234-.344-.765-.344-.422 0-.735.219-.312.203-.734.61v3.874h-.89v-5.344zm5.83-2.484h.89v6.813q0 .218.078.312t.187.094h.063q.047 0 .125-.031l.125.687q-.094.047-.219.063-.11.015-.297.015-.515 0-.734-.297-.219-.312-.219-.906v-6.75zm2.31 5.172q0-.672.203-1.188.204-.53.547-.89.344-.375.782-.563.453-.187.953-.187.484 0 .922.187.453.188.796.563.344.36.547.89.203.516.203 1.188 0 .656-.203 1.187-.203.516-.547.875-.343.36-.796.547-.438.172-.922.172-.5 0-.953-.172-.438-.187-.782-.547-.343-.359-.547-.875-.203-.53-.203-1.187zm.938 0q0 .453.11.828.109.375.312.656.203.266.484.422.297.14.64.14.344 0 .626-.14.28-.156.484-.422.203-.281.313-.656.109-.375.109-.828 0-.469-.11-.844-.109-.39-.312-.656-.203-.281-.484-.422-.282-.156-.625-.156-.344 0-.64.156-.282.14-.485.422-.203.266-.313.656-.11.375-.11.844zm4.979 1.266q0-.875.78-1.344.798-.469 2.5-.656 0-.25-.046-.485-.047-.25-.172-.437-.125-.188-.344-.297-.203-.125-.53-.125-.47 0-.876.187-.406.172-.719.39l-.359-.624q.375-.25.906-.469.547-.234 1.188-.234.984 0 1.422.61.437.593.437 1.593v3.281h-.75l-.078-.64h-.016q-.39.328-.843.546-.438.22-.922.22-.688 0-1.14-.391-.438-.391-.438-1.125zm.89-.063q0 .469.266.672.266.187.672.187.375 0 .719-.171.359-.188.734-.547v-1.485q-.672.094-1.14.219-.454.11-.735.281-.281.157-.406.375-.11.219-.11.469zm4.44-1.203q0-.656.188-1.172.203-.531.516-.89.328-.36.734-.563.422-.203.89-.203.454 0 .798.172.343.172.687.453l-.031-.922v-2.047h.906v7.828h-.75l-.078-.625h-.031q-.313.313-.735.531-.406.22-.875.22-1.015 0-1.625-.72-.593-.718-.593-2.062zm.938-.016q0 .969.375 1.516.39.531 1.094.531.375 0 .703-.172.328-.187.672-.562v-2.797q-.344-.313-.656-.438-.313-.125-.657-.125-.312 0-.593.157-.282.14-.5.406-.203.266-.328.64-.11.376-.11.844zm9.926-4.422q-.296-.14-.609-.14-.75 0-.75 1.047v.843h1.14v.735h-1.14v4.61h-.89v-4.61h-.735v-.688l.734-.047v-.843q0-.828.375-1.297.375-.485 1.188-.485.25 0 .469.063.234.047.422.125l-.204.687zm.3 4.438q0-.672.203-1.188.203-.53.547-.89.343-.375.78-.563.454-.187.954-.187.484 0 .922.187.453.188.797.563.343.36.547.89.203.516.203 1.188 0 .656-.203 1.187-.204.516-.547.875-.344.36-.797.547-.438.172-.922.172-.5 0-.953-.172-.438-.187-.781-.547-.344-.359-.547-.875-.203-.53-.203-1.187zm.937 0q0 .453.11.828.109.375.312.656.203.266.484.422.297.14.641.14.344 0 .625-.14.281-.156.484-.422.203-.281.313-.656.11-.375.11-.828 0-.469-.11-.844-.11-.39-.313-.656-.203-.281-.484-.422-.281-.156-.625-.156t-.64.156q-.282.14-.485.422-.203.266-.313.656-.109.375-.109.844zm5.245-2.688h.75l.078.97h.031q.266-.516.656-.813.39-.297.86-.297.312 0 .562.11l-.172.796q-.125-.047-.234-.062-.11-.016-.281-.016-.344 0-.72.281-.359.266-.64.938v3.437h-.89v-5.344zm8.6 5.47q-.688 0-1.25-.25-.563-.266-.984-.75-.407-.5-.625-1.188-.22-.703-.22-1.578 0-.875.22-1.563.218-.687.625-1.156.421-.485.984-.735.562-.25 1.25-.25.672 0 1.234.266.578.25.985.734.422.47.64 1.157.235.687.235 1.547 0 .875-.235 1.578-.218.687-.64 1.187-.407.485-.985.75-.562.25-1.234.25zm0-.798q.484 0 .875-.203.39-.219.672-.61.281-.39.422-.921.156-.547.156-1.234 0-.672-.156-1.204-.14-.546-.422-.921-.281-.375-.672-.579-.39-.203-.875-.203-.484 0-.875.203-.39.204-.672.579-.281.375-.437.921-.157.532-.157 1.204 0 .687.157 1.234.156.531.437.922.281.39.672.61.39.202.875.202zm6.732-6.422q-.297-.14-.61-.14-.75 0-.75 1.047v.843h1.141v.735h-1.14v4.61h-.891v-4.61h-.734v-.688l.734-.047v-.843q0-.828.375-1.297.375-.485 1.188-.485.25 0 .468.063.235.047.422.125l-.203.687zm3.112 0q-.297-.14-.61-.14-.75 0-.75 1.047v.843h1.141v.735h-1.14v4.61h-.891v-4.61h-.735v-.688l.735-.047v-.843q0-.828.375-1.297.375-.485 1.187-.485.25 0 .469.063.234.047.422.125l-.203.687zm.705-.734h.89v6.813q0 .218.079.312.078.094.187.094h.063q.047 0 .125-.031l.125.687q-.094.047-.219.063-.11.015-.297.015-.515 0-.734-.297-.219-.312-.219-.906v-6.75zm3.17 1.375q-.265 0-.453-.156-.171-.172-.171-.422 0-.266.171-.422.188-.156.454-.156.265 0 .437.156.188.156.188.422 0 .25-.188.422-.172.156-.437.156zm-.453 1.11h.891v5.343h-.89v-5.344zm2.622 0h.75l.078.765h.031q.375-.39.797-.64.422-.266.985-.266.859 0 1.25.531.39.531.39 1.563v3.39h-.906v-3.265q0-.766-.25-1.094-.234-.344-.766-.344-.422 0-.734.219-.313.203-.734.61v3.874h-.891v-5.344zm5.423 2.687q0-.672.203-1.188.203-.515.531-.875.344-.375.766-.562.437-.203.906-.203.5 0 .906.187.406.172.672.5t.406.797q.141.453.141 1.031 0 .297-.031.5h-3.61q.063.86.532 1.375.484.5 1.25.5.39 0 .718-.109.328-.125.625-.312l.313.593q-.344.219-.781.39-.422.157-.985.157-.531 0-1-.187-.469-.188-.812-.547-.344-.36-.547-.875-.203-.516-.203-1.172zm3.75-.406q0-.828-.36-1.266-.343-.437-.968-.437-.282 0-.547.125-.25.109-.469.328-.203.203-.344.53-.125.313-.172.72h2.86zm4.172-4.157h2.219q.594 0 1.078.11.5.11.844.36.36.25.547.655.187.407.187 1 0 .579-.187 1-.188.407-.547.688-.344.266-.844.406-.484.14-1.078.14h-1.297v2.86h-.922v-7.219zm2.11 3.61q.937 0 1.39-.36.469-.359.469-1.125 0-.78-.469-1.078-.453-.312-1.39-.312h-1.188v2.875h1.188zm3.95-4.219h.89v6.813q0 .218.079.312.078.094.187.094h.063q.047 0 .125-.031l.125.687q-.094.047-.219.063-.11.015-.297.015-.515 0-.734-.297-.219-.312-.219-.906v-6.75zm2.452 6.438q0-.875.781-1.344.797-.469 2.5-.656 0-.25-.047-.485-.047-.25-.172-.437-.125-.188-.343-.297-.203-.125-.532-.125-.468 0-.875.187-.406.172-.718.39l-.36-.624q.375-.25.907-.469.546-.234 1.187-.234.984 0 1.422.61.437.593.437 1.593v3.281h-.75l-.078-.64h-.015q-.39.328-.844.546-.438.22-.922.22-.687 0-1.14-.391-.438-.391-.438-1.125zm.89-.063q0 .469.266.672.266.187.672.187.375 0 .719-.171.36-.188.734-.547v-1.485q-.672.094-1.14.219-.454.11-.735.281-.281.157-.406.375-.11.219-.11.469zm4.457 2.922q.093.031.203.047.11.031.219.031.453 0 .734-.328.297-.313.469-.813l.125-.39-2.157-5.36h.938l1.094 2.954q.125.359.25.75.14.39.265.765h.047q.125-.375.235-.765.109-.391.218-.75l.953-2.954h.875l-2.015 5.782q-.14.406-.313.734-.172.344-.422.594-.234.25-.546.39-.313.141-.72.141-.187 0-.343-.031-.14-.016-.281-.078l.172-.72z"/></g></svg>