<svg width="563" height="172" viewBox="0 0 563 172" xmlns="http://www.w3.org/2000/svg"><defs><filter x="-50%" y="-50%" width="200%" height="200%" filterUnits="objectBoundingBox" id="a"><feOffset dy="2" in="SourceAlpha" result="shadowOffsetOuter1"/><feGaussianBlur stdDeviation="4" in="shadowOffsetOuter1" result="shadowBlurOuter1"/><feColorMatrix values="0 0 0 0 0 0 0 0 0 0 0 0 0 0 0 0 0 0 0.5 0" in="shadowBlurOuter1" result="shadowMatrixOuter1"/><feMerge><feMergeNode in="shadowMatrixOuter1"/><feMergeNode in="SourceGraphic"/></feMerge></filter></defs><g filter="url(#a)" transform="translate(8 6)" fill="none" fill-rule="evenodd"><path stroke="#F9D153" d="M282.398 144.456l-6.764 5.115 2.776-8.012-6.957-4.85 8.48.164 2.465-8.114 2.465 8.114 8.48-.164-6.957 4.85 2.776 8.012zm109.914 0l-6.765 5.115 2.777-8.012-6.957-4.85 8.48.164 2.465-8.114 2.464 8.114 8.48-.164-6.957 4.85 2.777 8.012z"/><path d="M.778.514h34.35c5.587 0 10.71.466 15.366 1.397 4.657.931 8.71 2.41 12.162 4.437s6.136 4.74 8.053 8.136c1.918 3.396 2.877 7.56 2.877 12.49 0 5.15-1.507 9.916-4.52 14.3-3.013 4.382-7.642 7.395-13.888 9.038v.658c7.78 1.315 13.724 4.081 17.832 8.3 4.11 4.218 6.164 9.943 6.164 17.174 0 5.37-1.041 10.026-3.123 13.97-2.082 3.945-4.958 7.232-8.629 9.861-3.67 2.63-8.025 4.575-13.066 5.835-5.04 1.26-10.518 1.89-16.435 1.89H.778V.514zm32.706 44.54c7.56 0 13.01-1.37 16.353-4.11 3.342-2.739 5.012-6.628 5.012-11.669 0-4.93-1.753-8.491-5.259-10.682-3.506-2.192-8.765-3.287-15.778-3.287h-13.97v29.747h13.642zm2.465 48.154c7.889 0 13.97-1.479 18.243-4.437 4.273-2.959 6.41-7.506 6.41-13.641 0-5.588-2.082-9.725-6.246-12.409-4.163-2.684-10.299-4.027-18.407-4.027H19.843v34.514h16.106zm56.044-25.474c0-6.574 1.04-12.49 3.123-17.75 2.081-5.26 4.848-9.697 8.3-13.313 3.45-3.615 7.423-6.41 11.915-8.382 4.492-1.972 9.094-2.958 13.805-2.958 5.479 0 10.3.931 14.463 2.794 4.164 1.863 7.643 4.492 10.437 7.889 2.794 3.397 4.903 7.45 6.327 12.162 1.425 4.711 2.137 9.861 2.137 15.449 0 3.725-.274 6.684-.822 8.875H110.4c.877 7.341 3.424 12.984 7.643 16.928 4.218 3.945 9.614 5.917 16.188 5.917 3.507 0 6.766-.52 9.78-1.561 3.012-1.041 5.998-2.493 8.957-4.356l6.41 11.834c-3.836 2.52-8.109 4.601-12.82 6.245-4.712 1.643-9.642 2.465-14.792 2.465-5.588 0-10.792-.958-15.613-2.876-4.821-1.917-9.04-4.684-12.655-8.3-3.616-3.615-6.438-8.026-8.465-13.23-2.027-5.205-3.04-11.149-3.04-17.832zm54.072-7.232c0-6.464-1.342-11.504-4.027-15.12-2.684-3.616-6.82-5.424-12.408-5.424-4.821 0-9.04 1.726-12.656 5.177-3.615 3.452-5.861 8.574-6.738 15.367h35.829zm34.514-33.199h15.613l1.315 11.012h.657c3.397-3.616 7.095-6.684 11.094-9.204 4-2.52 8.519-3.78 13.559-3.78 5.917 0 10.656 1.26 14.216 3.78 3.561 2.52 6.273 6.081 8.136 10.683 3.835-4.164 7.834-7.615 11.998-10.354 4.163-2.74 8.82-4.109 13.97-4.109 8.546 0 14.846 2.767 18.9 8.3 4.054 5.533 6.081 13.45 6.081 23.749V108h-19.065V59.845c0-6.684-1.013-11.395-3.04-14.134-2.027-2.74-5.123-4.11-9.286-4.11-5.04 0-10.683 3.343-16.928 10.026V108h-18.9V59.845c0-6.684-1.014-11.395-3.041-14.134-2.027-2.74-5.178-4.11-9.45-4.11-5.04 0-10.684 3.343-16.929 10.026V108h-18.9V27.303zm137.726 0h18.9v48.155c0 6.684.987 11.395 2.96 14.135 1.971 2.739 5.149 4.108 9.532 4.108 3.506 0 6.601-.876 9.286-2.63 2.684-1.752 5.56-4.601 8.628-8.546V27.303h18.9V108h-15.449l-1.479-11.833h-.493c-3.506 4.163-7.313 7.505-11.422 10.025-4.11 2.52-8.957 3.78-14.545 3.78-8.656 0-14.956-2.766-18.9-8.3-3.945-5.533-5.918-13.449-5.918-23.748v-50.62zm93.024 59.331c3.615 2.849 7.204 5.068 10.765 6.657 3.56 1.588 7.423 2.383 11.586 2.383 4.383 0 7.615-.904 9.697-2.712 2.082-1.808 3.123-4.136 3.123-6.985 0-1.644-.493-3.095-1.48-4.355-.985-1.26-2.3-2.384-3.944-3.37-1.643-.986-3.506-1.89-5.588-2.711a298.956 298.956 0 01-6.245-2.548 98.822 98.822 0 01-8.053-3.451c-2.74-1.315-5.177-2.904-7.314-4.767a24.04 24.04 0 01-5.26-6.491c-1.369-2.466-2.054-5.397-2.054-8.793 0-7.122 2.63-12.93 7.89-17.422 5.259-4.492 12.435-6.738 21.53-6.738 5.587 0 10.627.986 15.12 2.958 4.492 1.973 8.382 4.219 11.669 6.739l-8.71 11.504c-2.85-2.081-5.726-3.752-8.63-5.012a22.674 22.674 0 00-9.12-1.89c-4.055 0-7.04.849-8.958 2.547-1.918 1.698-2.876 3.808-2.876 6.328 0 1.643.465 3.04 1.397 4.19.931 1.151 2.164 2.165 3.698 3.041 1.534.877 3.314 1.698 5.341 2.465 2.027.767 4.136 1.534 6.328 2.301 2.739.986 5.478 2.11 8.217 3.37a33.742 33.742 0 017.478 4.684c2.246 1.862 4.054 4.136 5.424 6.82 1.37 2.685 2.054 5.89 2.054 9.615 0 3.506-.685 6.766-2.054 9.779-1.37 3.013-3.37 5.642-5.999 7.889-2.63 2.246-5.917 4.026-9.861 5.341-3.945 1.315-8.437 1.972-13.477 1.972-5.588 0-11.094-1.068-16.517-3.205-5.424-2.136-10.108-4.793-14.052-7.97l8.875-12.163zm64.754-18.9c0-6.574 1.041-12.49 3.123-17.75 2.082-5.26 4.848-9.697 8.3-13.313 3.451-3.615 7.423-6.41 11.915-8.382 4.493-1.972 9.094-2.958 13.806-2.958 5.478 0 10.3.931 14.463 2.794 4.163 1.863 7.642 4.492 10.436 7.889 2.794 3.397 4.903 7.45 6.328 12.162 1.424 4.711 2.136 9.861 2.136 15.449 0 3.725-.274 6.684-.822 8.875h-51.277c.876 7.341 3.424 12.984 7.642 16.928 4.218 3.945 9.615 5.917 16.189 5.917 3.506 0 6.765-.52 9.779-1.561 3.013-1.041 5.998-2.493 8.957-4.356l6.41 11.834c-3.835 2.52-8.108 4.601-12.82 6.245-4.711 1.643-9.642 2.465-14.792 2.465-5.588 0-10.792-.958-15.613-2.876-4.821-1.917-9.04-4.684-12.655-8.3-3.616-3.615-6.437-8.026-8.464-13.23-2.027-5.205-3.04-11.149-3.04-17.832zm54.072-7.232c0-6.464-1.342-11.504-4.027-15.12-2.684-3.616-6.82-5.424-12.408-5.424-4.821 0-9.04 1.726-12.655 5.177-3.616 3.452-5.862 8.574-6.739 15.367h35.829z" fill="#E17F9B"/><path d="M208.326 123.003h1.591v7.52l-.072 3.4a15.993 15.993 0 012.857-1.917c1.012-.53 2.06-.795 3.145-.795 2.314 0 4.05.801 5.207 2.404 1.157 1.603 1.735 3.754 1.735 6.454 0 1.47-.204 2.784-.614 3.941-.41 1.157-.97 2.14-1.682 2.947a7.258 7.258 0 01-2.458 1.844 6.956 6.956 0 01-2.91.633c-.845 0-1.718-.187-2.622-.56a11.447 11.447 0 01-2.586-1.501h-.072l-.18 1.627h-1.339v-25.997zm1.591 22.779c.965.82 1.893 1.398 2.785 1.736.891.337 1.675.506 2.35.506.868 0 1.675-.193 2.422-.579a5.624 5.624 0 001.917-1.627c.53-.699.946-1.537 1.247-2.513.301-.976.452-2.055.452-3.236 0-1.06-.102-2.049-.307-2.965-.205-.916-.525-1.705-.958-2.368a4.58 4.58 0 00-1.7-1.555c-.699-.373-1.543-.56-2.53-.56-.869 0-1.773.247-2.713.74-.94.495-1.928 1.2-2.965 2.116v10.305zm16.633-5.424c0-1.422.21-2.7.633-3.832.421-1.133.988-2.091 1.699-2.875a7.592 7.592 0 012.423-1.808 6.556 6.556 0 012.802-.632c2.073 0 3.7.699 4.881 2.097 1.181 1.398 1.772 3.374 1.772 5.93v.65c0 .217-.024.434-.073.651h-12.51a10.09 10.09 0 00.506 3.02c.313.927.753 1.723 1.32 2.386a6.025 6.025 0 002.043 1.554c.795.374 1.687.56 2.675.56.94 0 1.79-.138 2.55-.415a8.342 8.342 0 002.115-1.139l.65 1.23a21.53 21.53 0 01-2.295 1.157c-.832.361-1.887.542-3.164.542a7.998 7.998 0 01-3.128-.615 7.251 7.251 0 01-2.549-1.79c-.723-.783-1.296-1.735-1.717-2.856-.422-1.12-.633-2.392-.633-3.815zm12.691-1.048c0-2.242-.458-3.923-1.374-5.044-.916-1.121-2.157-1.681-3.724-1.681-.747 0-1.458.156-2.133.47a5.897 5.897 0 00-1.826 1.337c-.543.579-.989 1.284-1.338 2.116-.35.831-.573 1.765-.67 2.802h11.065zm5.243 5.351c0-1.904.904-3.363 2.712-4.375 1.808-1.012 4.64-1.735 8.497-2.17a9.905 9.905 0 00-.127-1.97 5.145 5.145 0 00-.615-1.772 3.537 3.537 0 00-1.265-1.265c-.542-.326-1.235-.488-2.08-.488-1.18 0-2.253.229-3.217.687-.964.458-1.736.904-2.314 1.338l-.723-1.194a19.87 19.87 0 011.139-.723 10.6 10.6 0 011.482-.723 13.04 13.04 0 011.79-.56 8.621 8.621 0 012.025-.235c1.036 0 1.904.174 2.603.524.7.35 1.266.825 1.7 1.428.433.603.74 1.308.921 2.115.181.808.272 1.682.272 2.622V149h-1.338l-.181-2.242h-.072c-.892.7-1.85 1.32-2.875 1.862a6.892 6.892 0 01-3.272.814c-.7 0-1.35-.097-1.953-.29a4.831 4.831 0 01-1.609-.867 3.926 3.926 0 01-1.102-1.483c-.266-.602-.398-1.313-.398-2.133zm1.663-.072c0 1.253.362 2.145 1.085 2.675.723.53 1.579.796 2.567.796a6.126 6.126 0 002.893-.723c.916-.482 1.916-1.181 3-2.097v-5.894c-1.783.217-3.284.482-4.5.795-1.218.314-2.2.687-2.948 1.121-.747.434-1.283.928-1.609 1.483a3.576 3.576 0 00-.488 1.844zm17.753-11.57h-2.711v-1.23l2.748-.145.217-5.025h1.373v5.025h5.026v1.374h-5.026v11.318c0 .554.043 1.054.127 1.5a3.1 3.1 0 00.452 1.157c.217.326.512.579.886.76.374.18.862.27 1.464.27.338 0 .705-.053 1.103-.162a6.85 6.85 0 001.067-.38l.434 1.302c-.507.193-1.013.35-1.519.47s-.94.18-1.302.18c-.843 0-1.542-.126-2.097-.379-.554-.253-1-.608-1.338-1.066-.337-.458-.572-1.013-.705-1.664a10.698 10.698 0 01-.199-2.133v-11.173z" fill="#FC80A8"/><path d="M296.326 131.645h1.374l.145 2.675h.109a11.255 11.255 0 012.585-2.223c.952-.591 1.91-.886 2.874-.886 1.398 0 2.47.32 3.218.958.747.639 1.278 1.5 1.591 2.585 1.012-1.085 1.995-1.946 2.947-2.585s1.934-.958 2.947-.958c3.47 0 5.206 2.217 5.206 6.653V149h-1.627v-10.92c0-1.855-.313-3.223-.94-4.103-.627-.88-1.603-1.32-2.929-1.32-1.566 0-3.302 1.085-5.206 3.254V149h-1.591v-10.92c0-1.855-.313-3.223-.94-4.103-.627-.88-1.615-1.32-2.965-1.32-1.567 0-3.302 1.085-5.207 3.254V149h-1.59v-17.355zm29.107 0h1.59v10.92c0 1.855.308 3.223.923 4.103.614.88 1.62 1.32 3.019 1.32a4.948 4.948 0 002.82-.85c.844-.567 1.772-1.464 2.784-2.694v-12.8h1.591V149h-1.338l-.18-2.893h-.073c-.843 1.013-1.735 1.82-2.675 2.423-.94.603-2.013.904-3.218.904-1.808 0-3.134-.542-3.978-1.627-.843-1.085-1.265-2.76-1.265-5.026v-11.136zm18.15 14.21a12.19 12.19 0 002.387 1.572c.844.422 1.892.633 3.146.633 1.374 0 2.404-.344 3.091-1.03.687-.688 1.03-1.489 1.03-2.405 0-.53-.126-1-.38-1.41a3.576 3.576 0 00-.993-1.049 7.734 7.734 0 00-1.356-.759 32.618 32.618 0 00-1.5-.615 81.859 81.859 0 01-1.971-.759 8.708 8.708 0 01-1.79-.958 4.666 4.666 0 01-1.284-1.338c-.325-.518-.488-1.15-.488-1.898 0-.627.12-1.223.362-1.79a4.07 4.07 0 011.084-1.482 5.295 5.295 0 011.754-.995c.687-.24 1.489-.361 2.405-.361.915 0 1.813.168 2.693.506.88.337 1.633.771 2.26 1.302l-.868 1.12a10.226 10.226 0 00-1.844-1.102c-.65-.302-1.422-.452-2.314-.452-.675 0-1.253.09-1.735.27a3.82 3.82 0 00-1.212.706c-.325.29-.566.627-.723 1.012a3.054 3.054 0 00-.235 1.157c0 .507.115.934.344 1.284.229.35.536.657.922.922.385.265.825.5 1.32.705.494.205.994.404 1.5.597l2.025.795c.675.265 1.283.59 1.826.976.542.386.982.862 1.32 1.429.337.566.506 1.271.506 2.115 0 .65-.127 1.271-.38 1.862a4.328 4.328 0 01-1.139 1.555c-.506.445-1.12.801-1.844 1.066-.723.265-1.555.398-2.495.398-1.301 0-2.495-.235-3.58-.705-1.084-.47-2.012-1.03-2.783-1.681l.94-1.194zm16.705-18.405c-.41 0-.753-.132-1.03-.397-.278-.265-.416-.603-.416-1.013 0-.458.138-.813.416-1.066.277-.253.62-.38 1.03-.38.41 0 .753.127 1.03.38.278.253.416.608.416 1.066 0 .41-.138.748-.415 1.013a1.435 1.435 0 01-1.03.397zm-.831 4.195h1.59V149h-1.59v-17.355zm6.833 8.713c0-1.446.217-2.741.651-3.886.434-1.145 1.012-2.104 1.736-2.875a7.452 7.452 0 012.513-1.772 7.556 7.556 0 013.019-.614c1.205 0 2.211.217 3.019.65a9.48 9.48 0 012.079 1.483l-.94 1.12a7.934 7.934 0 00-1.844-1.319c-.675-.35-1.435-.524-2.278-.524a5.54 5.54 0 00-2.477.56 5.988 5.988 0 00-1.989 1.591c-.566.687-1.012 1.5-1.337 2.44-.326.94-.489 1.99-.489 3.146 0 1.133.151 2.17.452 3.11.302.94.724 1.748 1.266 2.422a5.626 5.626 0 001.989 1.573c.783.374 1.645.56 2.585.56.916 0 1.765-.192 2.549-.578a8.767 8.767 0 002.079-1.41l.831 1.085a10.243 10.243 0 01-2.494 1.663c-.916.434-1.929.65-3.038.65-1.132 0-2.175-.204-3.127-.614-.952-.41-1.784-1-2.495-1.771-.711-.772-1.265-1.718-1.663-2.839-.398-1.12-.597-2.404-.597-3.85z" fill="#8FEAFF"/><path d="M404.097 145.854a12.19 12.19 0 002.386 1.573c.844.422 1.893.633 3.146.633 1.374 0 2.405-.344 3.092-1.03.687-.688 1.03-1.489 1.03-2.405 0-.53-.127-1-.38-1.41a3.576 3.576 0 00-.994-1.049 7.734 7.734 0 00-1.356-.759 32.617 32.617 0 00-1.5-.615 81.86 81.86 0 01-1.97-.759 8.708 8.708 0 01-1.79-.958 4.666 4.666 0 01-1.284-1.338c-.326-.518-.488-1.15-.488-1.898 0-.627.12-1.223.361-1.79a4.07 4.07 0 011.085-1.482c.482-.422 1.067-.754 1.754-.995.687-.24 1.488-.361 2.404-.361.916 0 1.814.168 2.694.506.88.337 1.633.771 2.26 1.302l-.868 1.12a10.226 10.226 0 00-1.844-1.102c-.651-.302-1.422-.452-2.314-.452-.675 0-1.254.09-1.736.27a3.82 3.82 0 00-1.211.706 2.7 2.7 0 00-.723 1.012 3.054 3.054 0 00-.235 1.157c0 .507.114.934.343 1.284.23.35.537.657.922.922.386.265.826.5 1.32.705.494.205.994.404 1.5.597l2.025.795c.675.265 1.284.59 1.826.976.543.386.982.862 1.32 1.429.337.566.506 1.271.506 2.115 0 .65-.126 1.271-.38 1.862a4.328 4.328 0 01-1.139 1.555c-.506.445-1.12.801-1.844 1.066-.723.265-1.554.398-2.494.398-1.302 0-2.495-.235-3.58-.705s-2.013-1.03-2.784-1.681l.94-1.194zm14.427-5.496c0-1.422.21-2.7.632-3.832.422-1.133.989-2.091 1.7-2.875a7.592 7.592 0 012.422-1.807 6.556 6.556 0 012.803-.633c2.073 0 3.7.699 4.88 2.097 1.182 1.398 1.772 3.375 1.772 5.93v.65c0 .217-.024.434-.072.651h-12.51a10.09 10.09 0 00.506 3.02c.313.927.753 1.723 1.32 2.386a6.025 6.025 0 002.043 1.554c.795.374 1.687.56 2.675.56.94 0 1.79-.138 2.55-.415a8.342 8.342 0 002.114-1.139l.651 1.23c-.699.41-1.464.795-2.296 1.157-.831.361-1.886.542-3.163.542a7.998 7.998 0 01-3.128-.615 7.251 7.251 0 01-2.549-1.79c-.723-.783-1.296-1.735-1.718-2.856-.421-1.12-.632-2.392-.632-3.815zm12.69-1.048c0-2.242-.457-3.923-1.373-5.044-.916-1.12-2.157-1.681-3.724-1.681-.748 0-1.459.156-2.134.47a5.897 5.897 0 00-1.825 1.338c-.543.578-.989 1.283-1.338 2.115-.35.831-.573 1.765-.67 2.802h11.065zm4.774 1.048c0-1.398.204-2.663.614-3.796.41-1.133.97-2.097 1.682-2.893a7.362 7.362 0 012.458-1.825 7.04 7.04 0 012.947-.633c1.06 0 1.983.18 2.766.542.783.362 1.585.856 2.404 1.483h.073l.18-1.591h1.338v25.201h-1.59v-6.689l.072-3.363a13.913 13.913 0 01-2.585 1.844c-.953.53-2.007.796-3.164.796-2.194 0-3.941-.777-5.243-2.332-1.302-1.555-1.952-3.803-1.952-6.744zm1.699 0c0 1.158.127 2.206.38 3.146s.62 1.742 1.102 2.405a5.152 5.152 0 001.79 1.554c.711.374 1.525.56 2.44.56.965 0 1.887-.246 2.767-.74.88-.495 1.777-1.2 2.693-2.116v-10.304c-.916-.82-1.777-1.398-2.585-1.736a6.367 6.367 0 00-2.477-.506c-.867 0-1.675.199-2.422.596a6.095 6.095 0 00-1.934 1.628c-.543.687-.97 1.506-1.284 2.458a9.714 9.714 0 00-.47 3.055zm18.91-8.713h1.591v10.92c0 1.855.307 3.223.922 4.103.615.88 1.621 1.32 3.02 1.32a4.948 4.948 0 002.82-.85c.843-.567 1.771-1.464 2.783-2.694v-12.8h1.591V149h-1.337l-.181-2.893h-.073c-.843 1.013-1.735 1.82-2.675 2.423-.94.603-2.013.904-3.218.904-1.808 0-3.134-.542-3.977-1.627-.844-1.085-1.266-2.76-1.266-5.026v-11.136zm17.934 8.713c0-1.422.21-2.7.633-3.832.422-1.133.988-2.091 1.7-2.875a7.592 7.592 0 012.422-1.807 6.556 6.556 0 012.802-.633c2.073 0 3.7.699 4.88 2.097 1.182 1.398 1.773 3.375 1.773 5.93v.65c0 .217-.024.434-.073.651h-12.51a10.09 10.09 0 00.506 3.02c.314.927.753 1.723 1.32 2.386a6.025 6.025 0 002.043 1.554c.795.374 1.687.56 2.675.56.94 0 1.79-.138 2.55-.415a8.342 8.342 0 002.115-1.139l.65 1.23a21.53 21.53 0 01-2.295 1.157c-.832.361-1.887.542-3.164.542a7.998 7.998 0 01-3.128-.615 7.251 7.251 0 01-2.549-1.79c-.723-.783-1.295-1.735-1.717-2.856-.422-1.12-.633-2.392-.633-3.815zm12.691-1.048c0-2.242-.458-3.923-1.374-5.044-.916-1.12-2.157-1.681-3.724-1.681-.747 0-1.458.156-2.133.47a5.897 5.897 0 00-1.826 1.338c-.543.578-.989 1.283-1.338 2.115-.35.831-.573 1.765-.669 2.802h11.064zm6.22-7.665h1.373l.145 2.675h.108a15.778 15.778 0 012.748-2.223c.94-.591 2.013-.886 3.218-.886 1.808 0 3.134.542 3.977 1.627.844 1.085 1.266 2.76 1.266 5.026V149h-1.591v-10.92c0-1.855-.307-3.223-.922-4.103-.615-.88-1.633-1.32-3.055-1.32a5.106 5.106 0 00-2.82.814c-.844.542-1.796 1.355-2.857 2.44V149h-1.59v-17.355zm17.788 8.713c0-1.446.217-2.741.651-3.886.434-1.145 1.013-2.104 1.736-2.875a7.452 7.452 0 012.513-1.772 7.556 7.556 0 013.019-.614c1.205 0 2.211.217 3.019.65a9.48 9.48 0 012.079 1.483l-.94 1.12a7.934 7.934 0 00-1.844-1.319c-.675-.35-1.434-.524-2.278-.524a5.54 5.54 0 00-2.477.56 5.988 5.988 0 00-1.989 1.591c-.566.687-1.012 1.5-1.337 2.44-.326.94-.488 1.99-.488 3.146 0 1.133.15 2.17.451 3.11.302.94.724 1.748 1.266 2.422a5.626 5.626 0 001.989 1.573c.783.374 1.645.56 2.585.56.916 0 1.766-.192 2.549-.578a8.767 8.767 0 002.079-1.41l.832 1.085a10.243 10.243 0 01-2.495 1.663c-.916.434-1.929.65-3.037.65-1.133 0-2.176-.204-3.128-.614-.952-.41-1.784-1-2.495-1.771-.711-.772-1.265-1.718-1.663-2.839-.398-1.12-.597-2.404-.597-3.85zm16.235 0c0-1.422.21-2.7.633-3.832.421-1.133.988-2.091 1.699-2.875a7.592 7.592 0 012.422-1.807 6.556 6.556 0 012.803-.633c2.073 0 3.7.699 4.88 2.097 1.182 1.398 1.772 3.375 1.772 5.93v.65c0 .217-.024.434-.072.651h-12.51a10.09 10.09 0 00.506 3.02c.313.927.753 1.723 1.32 2.386a6.025 6.025 0 002.043 1.554c.795.374 1.687.56 2.675.56.94 0 1.79-.138 2.55-.415a8.342 8.342 0 002.115-1.139l.65 1.23c-.699.41-1.464.795-2.296 1.157-.831.361-1.886.542-3.163.542a7.998 7.998 0 01-3.128-.615 7.251 7.251 0 01-2.549-1.79c-.723-.783-1.296-1.735-1.717-2.856-.422-1.12-.633-2.392-.633-3.815zm12.69-1.048c0-2.242-.457-3.923-1.373-5.044-.916-1.12-2.157-1.681-3.724-1.681-.747 0-1.459.156-2.134.47a5.897 5.897 0 00-1.825 1.338c-.543.578-.989 1.283-1.338 2.115-.35.831-.573 1.765-.67 2.802h11.065z" fill="#CCFF6D"/></g></svg>